<?xml version="1.0" encoding="UTF-8"?>
<svg id="_Слой_2" data-name="Слой 2" xmlns="http://www.w3.org/2000/svg" viewBox="0 0 362.45 65.32">
  <defs>
    <style>
      .cls-1 {
        fill: #005288;
        stroke-width: 0px;
      }
    </style>
  </defs>
  <g id="_Слой_1-2" data-name="Слой 1">
    <g id="Layer_1">
      <path class="cls-1" d="m321.03,63.71h-1.97l2.36-17.78h2.96c.81,5.44,2.51,9.56,5.14,12.43s6.07,4.3,10.31,4.3c3.91,0,7.26-1.26,9.98-3.8,2.75-2.54,4.12-5.59,4.12-9.2,0-2.15-.63-4.15-1.85-5.98s-2.96-3.32-5.14-4.42l-7.86-4.03c-5.26-2.69-8.73-5.2-10.37-7.56s-2.45-5.5-2.45-9.32c0-5.44,1.61-9.86,4.87-13.24,3.26-3.41,7.47-5.11,12.73-5.11,2.72,0,5.11.45,7.17,1.28,2.06.87,3.91,2.21,5.56,4.03l4.54-4.27h1.31l-2.51,16.73h-2.42c-.63-4.84-2.09-8.58-4.36-11.21s-5.2-3.94-8.76-3.94-6.57.99-8.94,2.96c-2.39,1.97-3.56,4.39-3.56,7.26,0,1.76.45,3.23,1.34,4.42.9,1.17,2.81,2.48,5.71,3.91l8.67,4.39c4.27,2.12,7.38,4.66,9.35,7.62s2.99,6.51,2.99,10.73c0,6.39-1.94,11.56-5.8,15.48-3.85,3.94-8.96,5.92-15.33,5.92-2.66,0-5.05-.48-7.2-1.46-2.12-.99-3.91-2.36-5.35-4.15l-5.23,4h-.03Z"/>
      <path class="cls-1" d="m270.83,63.71h-17.12v-2.33h5.17L297.99.03h3.29l1.2,61.35h8.4v2.33h-28.12v-2.33h8.4l-.27-16.73h-18.23l-10.88,16.73h9.11v2.33h-.06Zm19.99-21.61l-.54-25.16-16.17,25.16h16.7Z"/>
      <path class="cls-1" d="m235.6,63.71h-25.25v-2.33h5.89l11.15-57.61h-7.77V1.43h27.4c6.66,0,11.71,1.28,15.12,3.83,3.44,2.54,5.14,6.31,5.14,11.27,0,3.56-.81,6.66-2.36,9.26-1.58,2.63-3.91,4.72-7.05,6.28-2.21,1.11-4.75,1.88-7.56,2.36s-7.44.69-13.87.69h-3.56l-5.17,26.27h7.86v2.33h.03Zm-2.06-31.32h4.57c3.56,0,6.16-.21,7.71-.66,1.58-.45,2.93-1.2,3.97-2.27,1.67-1.55,2.99-3.65,3.91-6.28.96-2.63,1.4-5.5,1.4-8.55,0-4.03-.96-6.81-2.87-8.46-1.91-1.61-5.35-2.42-10.31-2.42h-3.05l-5.35,28.63Z"/>
      <polygon class="cls-1" points="149.39 63.71 130.95 63.71 130.95 61.38 138.6 61.38 149.92 3.77 142.15 3.77 142.15 1.34 164.81 1.34 169.11 42.31 169.92 42.31 190.44 1.34 212.32 1.34 212.32 3.77 203.71 3.77 192.42 61.38 200.43 61.38 200.43 63.71 172.75 63.71 172.75 61.38 180.79 61.38 191.52 6.42 190.5 6.42 162.09 63.71 159.28 63.71 153.3 6.34 152.34 6.34 141.44 61.38 149.39 61.38 149.39 63.71"/>
      <path class="cls-1" d="m68.94,40.16c0-4.39.87-8.73,2.57-13.06s4.21-8.52,7.53-12.55c3.85-4.81,8.04-8.43,12.46-10.88C95.95,1.26,100.62.03,105.52.03c6.63,0,12.1,2.36,16.41,7.11s6.45,10.76,6.45,18.05c0,4.18-.87,8.49-2.57,12.85s-4.18,8.55-7.44,12.58c-3.88,4.84-8.1,8.49-12.55,10.94-4.48,2.45-9.2,3.68-14.16,3.68-6.57,0-12.01-2.36-16.32-7.11-4.27-4.75-6.42-10.73-6.42-17.93l.03-.03ZM104.2,2.39c-3.71,0-6.9,1.26-9.59,3.8-2.69,2.51-5.08,6.51-7.14,11.92-1.76,4.81-3.17,9.92-4.21,15.33-1.05,5.44-1.58,10.34-1.58,14.76,0,4.99.93,8.7,2.81,11.09s4.75,3.59,8.61,3.59,6.93-1.28,9.65-3.83c2.75-2.57,5.11-6.48,7.08-11.77,1.73-4.69,3.11-9.77,4.15-15.24s1.55-10.43,1.55-14.91c0-5.02-.93-8.73-2.75-11.15-1.85-2.39-4.69-3.59-8.55-3.59h-.03Z"/>
      <polygon class="cls-1" points="28.42 63.71 0 63.71 0 61.38 8.79 61.38 20.02 3.77 12.25 3.77 12.25 1.34 40.61 1.34 40.61 3.77 31.71 3.77 20.56 61.38 28.42 61.38 28.42 63.71"/>
      <polygon class="cls-1" points="66.7 63.71 36.76 63.71 36.76 61.38 45.45 61.38 27.13 31.17 56.96 3.77 47.51 3.77 47.51 1.34 69.03 1.34 69.03 3.77 61.26 3.77 36.67 26.51 58.48 61.38 66.7 61.38 66.7 63.71"/>
    </g>
  </g>
</svg>