<?xml version="1.0" encoding="UTF-8"?>
<svg id="_Слой_2" data-name="Слой 2" xmlns="http://www.w3.org/2000/svg" viewBox="0 0 499.98 42">
  <defs>
    <style>
      .cls-1 {
        stroke-width: 0px;
      }
    </style>
  </defs>
  <g id="_Слой_1-2" data-name="Слой 1">
    <path class="cls-1" d="m331.67,39.12l-4.67-6.5-6.64-9.1-.11-.15s3.86-1.09,6.44-5.97c.24-.45.43-.93.56-1.42.65-2.49.44-5.01.15-6.71-.31-1.75-1.09-3.39-2.29-4.71-.81-.89-1.94-1.86-3.44-2.66-2.45-1.23-6.27-1.39-6.27-1.39l-11.75-.1.07.24.23.57.29,1.05.2,4.11v30.47l-.12,1.87-.16.98-.23.7-.26.44h8.76l-.43-.96-.19-.72-.14-5.34v-8.95h1.44l10.93,16.03h9.24l-1.59-1.78h0Zm-18.34-19.78h-1.69s-.11-12.19-.07-12.14l.15-.19.15-.19h2.6c1.39,0,2.76.5,3.77,1.45.94.89,1.76,2.29,1.76,4.49,0,3.32-1.91,5-3.51,5.83-.97.51-2.07.76-3.17.76h0ZM0,41.36l.35-.57.33-1.05.09-3.38.02-2.52V.44h1.07l9.93,9.88,8.82,8.87,6.24,6.62.26.32.2-.13V8.77s-.25-5.83-.25-5.83l-.3-1.16-.36-.93h8.43l-.2.58-.16.66-.06.59-.09,39.21h-1L13.81,22.53l-5.69-6.03-.19-.05.02,2.54.09,19.69.21,1.58.53,1.07S-.06,41.3,0,41.36Zm250.34-.25l-1.32-2.37-6.76-15.51-7.29-17.41-2.37-5.72-.11-.09h-1.17l-16.51,38.41-1.04,1.99-.71.66h9.41l-.28-.52.14-.99,2.51-6.29h13.15l2.32,5.72.33,1.13-.07.49-.26.51h10.03Zm-23.1-14.11l.04-.25,1.89-4.86,2.28-6.21.3.04.57,1.49,3.39,9.1.02.69s-8.5,0-8.5,0ZM255.09.83h9.16l-.36.72-.34,1.32-.08,10.31v21.03l.24.47.26.12h9.75l1.62-.3.71-.35.56-.18v7.04l-21.47-.02.32-.72.18-.64.12-.61.12-5.15V6.55l-.06-3.98-.29-1.03s-.43-.71-.43-.71Zm82.19-.32l.27.55.22.87.09.8.19,6.08-.05,24.33v1.15l-.12,2.56-.09,2.12-.23,1.06-.41.84h21.97v-7.25l-.77.41-2.36.51h-10.03l-.35-.58v-10.25h10.12l.89.1.45.22v-7.38l-1.02.48h-10.38V7.09h10.63l1.47.25.7.45V.48s-21.28.11-21.2.03c0,0,0,0,0,0Zm25.12-.05l.18.49.22.32,18.58,40.42h1.12L400.55,1.86l.79-1.07-.06-.45h-9.26c.18.62.15,1.29-.1,1.88l-8.59,20.86-1,3.06-.22-.07-2.59-7.05-3.47-7.93-3.74-9.17c-.1-.24-.1-.5,0-.74l.12-.32.19-.34s-10.21-.11-10.21-.07c0,0,0,0,0,0Zm43.51.01h9.13l-.35,1.08-.28,1.68v32.63l.12,2.36.23,1.68.42,1.1h-9.41l.26-.5.28-.8.2-2.64.13-2.53V6.38l-.14-4.3-.31-1.08s-.28-.52-.28-.52Zm17.75-.09l.38,1.09.2,1.3.1,1.93.08,4.03v24.33l-.09,4.16-.09,1.56-.26,1.4-.25.78h21.76s0-7.28,0-7.28l-.77.42-1.15.25-1.24.07h-9.98l-.38-.38v-10.3h10.12l.89.1.45.22v-7.41l-1.02.48h-10.38l.04-9.93h10.61l.83.05.8.24.52.24V.35s-21.28.11-21.2.03c0,0,0,0,0,0Zm25.37.04h9.3l-.27.84v1.09l1.58,5.83,3.3,12.05.74,3.27h.22l1.07-2.58,3.06-7.22,6.12-12.9h1.28l3.83,7.87,3.76,7.89,2.64,6.74.24.03,2.96-11.52,2.61-9.57v-1.1s-.32-.71-.32-.71h8.82l-.32.85-.88,1.97-4.61,15.78-5.89,20.42-.61,2.29h-1.23l-6.45-14.31-4.61-10.26-.59-1.92h-.29l-2.99,7.25-5.38,11.68-3.68,7.62h-1.12l-3.3-11.89-3.87-13.01-4.29-14.34-.45-1.12-.4-.75s.02-.29.02-.29Zm-303-.16c-11.7,0-20.96,8.78-21.18,20.75,0,11.46,9.34,21.26,21.18,20.75,11.7,0,20.64-8.12,21.18-20.75.21-12.18-9.82-21.25-21.18-20.75Zm13.09,20.78c-.36,8.39-5.3,13.79-13.06,13.79-8,.25-13.15-6.13-13.15-13.74v.07c.36-8.42,5.3-13.84,13.07-13.84,8.08-.4,13.15,5.98,13.15,13.62v.11s0,0,0,0Zm-82.67,20.35l-1.32-2.37-6.76-15.51-7.29-17.41-2.37-5.72-.11-.09h-1.17l-16.51,38.41-1.04,1.99-.71.66h9.41l-.2-.68.06-.84,2.51-6.29h13.15l2.32,5.72.18,1.15-.18.98h10.03Zm-23.1-14.1l.04-.25,1.89-4.86,2.29-6.21.3.04.57,1.49,3.39,9.1.02.69s-8.5,0-8.5,0Zm120.51,13.97l.35-.57.33-1.05.09-3.38.02-2.52V.35h1.07l9.93,9.88,8.82,8.87,6.24,6.62.26.32.2-.13V8.67s-.25-5.83-.25-5.83l-.3-1.16-.36-.93h8.43l-.2.58-.16.66-.06.59-.09,39.21h-1l-19.52-19.37-5.69-6.03-.19-.05.02,2.54.09,19.69.21,1.58.53,1.07s-8.84-.04-8.78.01h0ZM74.23,8.82V1.42h30.41v7.44l-1-.66-1.18-.24h-9.2l.14,31.45.16,1.12.6,1.47h-9.31l.53-1.47.27-1.88V7.96h-9.17l-1.24.38-1,.48ZM110.47,1.46h9.13l-.35,1.08-.28,1.68v34.73l.2,1.66.57,1.38h-9.41l.45-1.34.24-1.62.18-3.5V7.37l-.1-3.42-.35-1.97s-.28-.52-.28-.52Z"/>
  </g>
</svg>