<?xml version="1.0" encoding="UTF-8"?>
<svg id="_Слой_2" data-name="Слой 2" xmlns="http://www.w3.org/2000/svg" xmlns:xlink="http://www.w3.org/1999/xlink" viewBox="0 0 940.84 1217.61">
  <defs>
    <style>
      .cls-1 {
        fill: url(#_Безымянный_градиент_4);
      }

      .cls-1, .cls-2, .cls-3, .cls-4, .cls-5, .cls-6 {
        stroke-width: 0px;
      }

      .cls-2 {
        fill: url(#_Безымянный_градиент_4-4);
      }

      .cls-3 {
        fill: url(#_Безымянный_градиент_4-3);
      }

      .cls-4 {
        fill: #fff;
      }

      .cls-5 {
        fill: url(#_Безымянный_градиент_5);
        fill-rule: evenodd;
      }

      .cls-6 {
        fill: url(#_Безымянный_градиент_4-2);
      }
    </style>
    <linearGradient id="_Безымянный_градиент_4" data-name="Безымянный градиент 4" x1="251.02" y1="919.85" x2="527.74" y2="987.74" gradientTransform="translate(-873.58 3276.41) scale(3.4 -3.4)" gradientUnits="userSpaceOnUse">
      <stop offset="0" stop-color="#01146a"/>
      <stop offset="1" stop-color="#1b65ee"/>
    </linearGradient>
    <linearGradient id="_Безымянный_градиент_4-2" data-name="Безымянный градиент 4" x1="253.31" y1="910.52" x2="530.03" y2="978.42" xlink:href="#_Безымянный_градиент_4"/>
    <linearGradient id="_Безымянный_градиент_4-3" data-name="Безымянный градиент 4" x1="258" y1="891.41" x2="534.72" y2="959.3" xlink:href="#_Безымянный_градиент_4"/>
    <linearGradient id="_Безымянный_градиент_4-4" data-name="Безымянный градиент 4" x1="263.03" y1="870.93" x2="539.74" y2="938.83" xlink:href="#_Безымянный_градиент_4"/>
    <linearGradient id="_Безымянный_градиент_5" data-name="Безымянный градиент 5" x1="256.94" y1="605.53" x2="533.65" y2="882.11" gradientTransform="translate(-873.58 3276.41) scale(3.4 -3.4)" gradientUnits="userSpaceOnUse">
      <stop offset="0" stop-color="#01146b" stop-opacity="1"/>
      <stop offset=".5" stop-color="#1a65ee"/>
      <stop offset="1" stop-color="#169af8"/>
    </linearGradient>
  </defs>
  <g id="svg14">
    <g id="g18">
      <g id="g8">
        <path id="path5" class="cls-1" d="m28.51,0v98.48h2.81L173.73,0h48.22L61.66,110.83l171.21,120.02h-51.03L30.72,123.14h-2.21v107.71H0V0h28.51Z"/>
        <path id="path6" class="cls-6" d="m434.05,0v25.87h-110.91v204.98h-28.51V25.87h-110.91V0h250.32Z"/>
        <path id="path7" class="cls-3" d="m498.04,0v175.58h141.14v55.27h-209.89V0h68.75Z"/>
        <path id="path8" class="cls-2" d="m818.23,0l122.61,230.85h-76.22l-21.36-38.47h-139.3l-21.57,38.47h-76.96L729.22,0h89.01Zm-88.78,137.34h87.73l-44.04-81.5-43.69,81.5Z"/>
      </g>
      <g id="g12">
        <path id="path9" class="cls-5" d="m0,1217.61V277.22h940.84v940.39H0Z"/>
        <g id="g11">
          <path id="path10" class="cls-4" d="m799.46,831.45c0,178.48-146.9,323.17-328.11,323.17-181.22,0-328.13-144.68-328.13-323.17.04-14.87,1.12-29.72,3.24-44.45h171.37c-2.53,14.1-3.87,30.33-3.87,49.04,0,80.15,56.83,148.46,146.13,149.25,85.23.75,147.67-64.97,146.96-145.12-.82-91.69-63.36-145.14-146.96-145.14H187.39c53.83-113.87,156.43-186.7,283.96-186.75,181.21,0,328.11,144.69,328.11,323.17h0Z"/>
          <path id="path11" class="cls-4" d="m741.76,343.69l-39.41,133.32-265.97-4.42c-126.58,0-230.63,104.2-230.63,104.2l78.87-234.87,457.13,1.77Z"/>
        </g>
      </g>
    </g>
  </g>
</svg>