<?xml version="1.0" encoding="UTF-8"?>
<svg id="_Слой_2" data-name="Слой 2" xmlns="http://www.w3.org/2000/svg" viewBox="0 0 317.81 117.54">
  <defs>
    <style>
      .cls-1 {
        fill: #fcb711;
      }

      .cls-1, .cls-2, .cls-3, .cls-4, .cls-5, .cls-6, .cls-7, .cls-8 {
        stroke-width: 0px;
      }

      .cls-2 {
        fill: #cc004c;
      }

      .cls-4 {
        fill: #fff;
      }

      .cls-5 {
        fill: #0db14b;
      }

      .cls-6 {
        fill: #f37021;
      }

      .cls-7 {
        fill: #0089d0;
      }

      .cls-8 {
        fill: #6460aa;
      }
    </style>
  </defs>
  <g id="svg8">
    <g id="layer1">
      <g id="text865">
        <path id="path906" class="cls-3" d="m77.96,59.5h-8.57l-14.64-23.68v23.68h-8.16V25h10.63l12.58,19.76v-19.76h8.16v34.5Z"/>
        <path id="path908" class="cls-3" d="m108.72,48.03h-19.09c.12,2.04.9,3.6,2.32,4.68,1.44,1.08,3.54,1.62,6.33,1.62,1.76,0,3.47-.32,5.12-.95,1.65-.63,2.96-1.31,3.92-2.04h.93v6.7c-1.88.76-3.66,1.31-5.33,1.65-1.67.34-3.51.51-5.54.51-5.22,0-9.22-1.17-12-3.52-2.78-2.35-4.17-5.69-4.17-10.03s1.31-7.69,3.94-10.19c2.64-2.52,6.26-3.78,10.84-3.78,4.23,0,7.41,1.07,9.55,3.22,2.13,2.13,3.2,5.21,3.2,9.22v2.92Zm-8.29-4.89c-.05-1.75-.48-3.06-1.3-3.94s-2.09-1.32-3.82-1.32c-1.61,0-2.93.42-3.96,1.25-1.03.83-1.61,2.17-1.74,4.01h10.82Z"/>
        <path id="path910" class="cls-3" d="m152.85,33.48l-8.06,26.02h-8.85l-5.31-17.54-5.21,17.54h-8.97l-7.99-26.02h8.76l4.45,17.93,5.56-17.93h7.39l5.28,17.93,4.38-17.93h8.57Z"/>
        <path id="path912" class="cls-3" d="m177.24,51.25c0,2.69-1.2,4.86-3.61,6.51-2.41,1.64-5.71,2.46-9.89,2.46-2.32,0-4.42-.22-6.3-.65s-3.4-.91-4.54-1.44v-6.86h.76c.42.29.9.62,1.44.97.56.34,1.34.71,2.34,1.11.87.36,1.85.66,2.94.93,1.1.25,2.27.37,3.52.37,1.64,0,2.85-.18,3.64-.53.79-.37,1.18-.91,1.18-1.62,0-.63-.23-1.09-.7-1.37-.46-.29-1.34-.57-2.64-.83-.62-.14-1.46-.29-2.53-.44-1.05-.17-2.01-.37-2.87-.6-2.36-.62-4.12-1.58-5.26-2.87-1.14-1.31-1.71-2.94-1.71-4.89,0-2.5,1.18-4.58,3.55-6.23,2.38-1.67,5.62-2.5,9.73-2.5,1.95,0,3.81.2,5.58.6,1.79.39,3.19.8,4.19,1.25v6.58h-.72c-1.24-.85-2.65-1.54-4.24-2.06-1.58-.54-3.17-.81-4.8-.81-1.34,0-2.48.19-3.41.56-.91.37-1.37.9-1.37,1.58,0,.62.21,1.09.63,1.41.42.32,1.4.65,2.94.97.85.17,1.76.34,2.73.51.99.15,1.98.36,2.97.6,2.19.57,3.82,1.48,4.87,2.71,1.05,1.22,1.58,2.75,1.58,4.59h0Z"/>
      </g>
      <g id="text869">
        <path id="path891" class="cls-3" d="m17.61,93.17c-2.56,0-4.94-.38-7.11-1.14-2.16-.76-4.02-1.88-5.58-3.38-1.56-1.5-2.77-3.37-3.64-5.61-.85-2.24-1.27-4.83-1.27-7.76,0-2.73.41-5.21,1.23-7.44.82-2.22,2.01-4.13,3.57-5.72,1.5-1.53,3.35-2.71,5.56-3.54,2.22-.83,4.65-1.25,7.28-1.25,1.45,0,2.76.08,3.92.25,1.17.15,2.26.36,3.24.63,1.03.29,1.97.63,2.8,1,.85.36,1.59.69,2.22,1v8.36h-1.02c-.43-.37-.98-.81-1.65-1.32-.65-.51-1.39-1.01-2.22-1.51-.85-.49-1.77-.91-2.76-1.25s-2.05-.51-3.17-.51c-1.25,0-2.44.2-3.57.6-1.13.39-2.17,1.03-3.13,1.95-.91.88-1.65,2.05-2.22,3.5-.56,1.45-.83,3.21-.83,5.28s.3,3.97.9,5.42c.62,1.45,1.39,2.6,2.32,3.43.94.85,1.99,1.46,3.15,1.83,1.16.36,2.3.53,3.43.53s2.15-.16,3.2-.49c1.07-.32,2.05-.76,2.94-1.32.76-.45,1.46-.93,2.11-1.44.65-.51,1.18-.95,1.6-1.32h.93v8.25c-.87.39-1.69.75-2.48,1.09-.79.34-1.61.63-2.48.88-1.13.32-2.19.57-3.17.74-.99.17-2.35.25-4.08.25h0Z"/>
        <path id="path893" class="cls-3" d="m58.57,92.5h-8.39v-12.91c0-1.05-.05-2.09-.16-3.13-.11-1.05-.29-1.82-.56-2.32-.31-.57-.76-.99-1.37-1.25-.59-.26-1.41-.39-2.48-.39-.76,0-1.53.12-2.32.37-.77.25-1.61.64-2.53,1.18v18.44h-8.34v-36.05h8.34v12.91c1.48-1.16,2.9-2.05,4.26-2.66,1.37-.62,2.9-.93,4.56-.93,2.81,0,5,.82,6.58,2.46,1.59,1.64,2.39,4.09,2.39,7.34v16.94Z"/>
        <path id="path895" class="cls-3" d="m78.52,85.71v-5.42c-1.13.09-2.35.22-3.66.39-1.31.15-2.31.34-2.99.56-.83.26-1.48.65-1.92,1.16-.43.49-.65,1.15-.65,1.97,0,.54.05.98.14,1.32.09.34.32.66.7.97.36.31.78.54,1.27.7.49.14,1.27.21,2.32.21.83,0,1.68-.17,2.53-.51.87-.34,1.62-.79,2.27-1.34Zm0,4.03c-.45.34-1,.75-1.67,1.23-.66.48-1.29.86-1.88,1.14-.82.37-1.67.64-2.55.81-.88.19-1.85.28-2.9.28-2.47,0-4.54-.76-6.21-2.29-1.67-1.53-2.5-3.48-2.5-5.86,0-1.9.42-3.45,1.27-4.66s2.05-2.15,3.61-2.85c1.54-.7,3.46-1.19,5.75-1.48,2.29-.29,4.66-.51,7.11-.65v-.14c0-1.44-.59-2.43-1.76-2.97-1.17-.56-2.9-.83-5.19-.83-1.37,0-2.84.25-4.4.74-1.56.48-2.68.85-3.36,1.11h-.76v-6.28c.88-.23,2.31-.5,4.29-.81,1.99-.32,3.99-.49,5.98-.49,4.74,0,8.16.73,10.26,2.2,2.12,1.45,3.17,3.74,3.17,6.86v17.7h-8.27v-2.76Z"/>
        <path id="path897" class="cls-3" d="m117.1,92.5h-8.39v-12.91c0-1.05-.05-2.09-.16-3.13-.11-1.05-.29-1.82-.56-2.32-.31-.57-.76-.99-1.37-1.25-.59-.26-1.41-.39-2.48-.39-.76,0-1.53.12-2.32.37-.77.25-1.61.64-2.53,1.18v18.44h-8.34v-26.02h8.34v2.87c1.48-1.16,2.9-2.05,4.26-2.66,1.37-.62,2.9-.93,4.56-.93,2.81,0,5,.82,6.58,2.46,1.59,1.64,2.39,4.09,2.39,7.34v16.94Z"/>
        <path id="path899" class="cls-3" d="m147.42,92.5h-8.39v-12.91c0-1.05-.05-2.09-.16-3.13-.11-1.05-.29-1.82-.56-2.32-.31-.57-.76-.99-1.37-1.25-.59-.26-1.41-.39-2.48-.39-.76,0-1.53.12-2.32.37-.77.25-1.61.64-2.53,1.18v18.44h-8.34v-26.02h8.34v2.87c1.48-1.16,2.9-2.05,4.26-2.66,1.37-.62,2.9-.93,4.56-.93,2.81,0,5,.82,6.58,2.46,1.59,1.64,2.39,4.09,2.39,7.34v16.94Z"/>
        <path id="path901" class="cls-3" d="m177.24,81.03h-19.09c.12,2.04.9,3.6,2.32,4.68,1.44,1.08,3.55,1.62,6.33,1.62,1.76,0,3.47-.32,5.12-.95s2.96-1.31,3.92-2.04h.93v6.7c-1.88.76-3.66,1.31-5.33,1.65-1.67.34-3.51.51-5.54.51-5.22,0-9.22-1.17-12-3.52-2.78-2.35-4.17-5.69-4.17-10.03s1.31-7.69,3.94-10.19c2.64-2.52,6.26-3.78,10.84-3.78,4.23,0,7.41,1.07,9.55,3.22,2.13,2.13,3.2,5.21,3.2,9.22v2.92Zm-8.29-4.89c-.05-1.75-.48-3.06-1.3-3.94-.82-.88-2.09-1.32-3.82-1.32-1.61,0-2.93.42-3.96,1.25-1.03.83-1.61,2.17-1.74,4.01h10.82Z"/>
        <path id="path903" class="cls-3" d="m187.97,92.5h-8.34v-36.05h8.34v36.05Z"/>
      </g>
      <g id="text873">
        <path id="path915" class="cls-3" d="m72.05,108.01c0,1.81-.53,3.24-1.59,4.28-1.05,1.04-2.53,1.56-4.44,1.56s-3.39-.52-4.45-1.56c-1.05-1.04-1.58-2.47-1.58-4.28s.53-3.25,1.59-4.29c1.06-1.04,2.54-1.56,4.44-1.56,1.92,0,3.4.52,4.45,1.57,1.05,1.04,1.58,2.47,1.58,4.28Zm-4.34,2.67c.23-.28.4-.62.51-1.01.12-.4.18-.95.18-1.65,0-.65-.06-1.19-.18-1.63s-.28-.79-.49-1.05c-.21-.27-.46-.46-.75-.57-.29-.11-.61-.17-.95-.17s-.64.05-.91.14c-.26.09-.51.27-.75.55-.22.25-.39.6-.52,1.05-.12.44-.19,1-.19,1.67,0,.6.06,1.12.17,1.57.11.44.27.79.49,1.06.21.25.46.44.74.56.29.12.63.18,1,.18.32,0,.62-.05.91-.16.29-.11.54-.29.74-.55h0Z"/>
        <path id="path917" class="cls-3" d="m84.89,113.5h-3.55v-5.46c0-.44-.02-.88-.07-1.32-.05-.44-.12-.77-.24-.98-.13-.24-.32-.42-.58-.53-.25-.11-.6-.17-1.05-.17-.32,0-.65.05-.98.16-.33.1-.68.27-1.07.5v7.8h-3.53v-11h3.53v1.21c.63-.49,1.23-.87,1.8-1.13.58-.26,1.22-.39,1.93-.39,1.19,0,2.12.35,2.78,1.04.67.69,1.01,1.73,1.01,3.11v7.16Z"/>
        <path id="path919" class="cls-3" d="m98.47,109.61l2.51-7.11h3.62l-6.11,15.04h-3.82l1.74-4.11-4.28-10.92h3.7l2.63,7.11Z"/>
        <path id="path921" class="cls-3" d="m117.04,108.01c0,1.81-.53,3.24-1.59,4.28-1.05,1.04-2.53,1.56-4.44,1.56s-3.39-.52-4.45-1.56c-1.05-1.04-1.58-2.47-1.58-4.28s.53-3.25,1.59-4.29c1.06-1.04,2.54-1.56,4.44-1.56,1.92,0,3.4.52,4.45,1.57,1.05,1.04,1.58,2.47,1.58,4.28Zm-4.34,2.67c.23-.28.4-.62.51-1.01.12-.4.18-.95.18-1.65,0-.65-.06-1.19-.18-1.63s-.28-.79-.49-1.05c-.21-.27-.46-.46-.75-.57-.29-.11-.61-.17-.95-.17s-.64.05-.91.14c-.26.09-.51.27-.75.55-.22.25-.39.6-.52,1.05-.12.44-.19,1-.19,1.67,0,.6.06,1.12.17,1.57.11.44.27.79.49,1.06.21.25.46.44.74.56.29.12.63.18,1,.18.32,0,.62-.05.91-.16.29-.11.54-.29.74-.55h0Z"/>
        <path id="path923" class="cls-3" d="m129.8,113.5h-3.53v-1.21c-.65.5-1.25.88-1.79,1.14-.54.25-1.19.38-1.94.38-1.21,0-2.15-.35-2.81-1.05-.65-.7-.98-1.73-.98-3.1v-7.16h3.55v5.46c0,.56.02,1.02.05,1.39.04.37.12.67.25.91.12.24.31.42.56.53.25.11.61.17,1.06.17.3,0,.63-.06,1-.17s.72-.27,1.06-.49v-7.8h3.53v11Z"/>
        <path id="path925" class="cls-3" d="m140.37,105.86h-.31c-.15-.05-.39-.09-.72-.12-.33-.03-.61-.04-.83-.04-.5,0-.95.03-1.33.1s-.8.18-1.24.33v7.37h-3.53v-11h3.53v1.62c.78-.67,1.45-1.11,2.03-1.32.57-.22,1.1-.33,1.59-.33.12,0,.26,0,.42,0s.29.02.41.03v3.36Z"/>
        <path id="path927" class="cls-3" d="m157.3,110.01c0,1.14-.51,2.05-1.53,2.75-1.02.69-2.41,1.04-4.18,1.04-.98,0-1.87-.09-2.66-.27-.8-.18-1.44-.39-1.92-.61v-2.9h.32c.18.12.38.26.61.41.24.14.56.3.99.47.37.15.78.28,1.24.39.46.1.96.16,1.49.16.69,0,1.2-.08,1.54-.23.33-.16.5-.39.5-.69,0-.27-.1-.46-.29-.58-.2-.12-.57-.24-1.12-.35-.26-.06-.62-.12-1.07-.19-.44-.07-.85-.16-1.21-.25-1-.26-1.74-.67-2.22-1.21-.48-.56-.72-1.24-.72-2.07,0-1.06.5-1.94,1.5-2.63,1.01-.71,2.38-1.06,4.11-1.06.82,0,1.61.08,2.36.25.76.16,1.35.34,1.77.53v2.78h-.3c-.52-.36-1.12-.65-1.79-.87-.67-.23-1.34-.34-2.03-.34-.57,0-1.05.08-1.44.24-.39.16-.58.38-.58.67,0,.26.09.46.26.6.18.14.59.27,1.24.41.36.07.74.14,1.16.22.42.07.84.15,1.25.25.93.24,1.61.62,2.06,1.15.44.52.67,1.16.67,1.94h0Z"/>
        <path id="path929" class="cls-3" d="m162.43,113.5h-3.53v-11h3.53v11Zm.1-12.57h-3.72v-2.67h3.72v2.67Z"/>
        <path id="path931" class="cls-3" d="m175.7,113.5h-3.53v-1.15c-.61.5-1.18.86-1.7,1.1s-1.14.35-1.83.35c-1.34,0-2.41-.52-3.21-1.55-.8-1.03-1.2-2.42-1.2-4.17,0-.93.13-1.76.4-2.48.27-.72.65-1.35,1.12-1.86.44-.49.98-.87,1.62-1.14.63-.27,1.27-.41,1.9-.41s1.2.07,1.62.22c.42.14.86.31,1.3.53v-4.68h3.53v15.24Zm-3.53-3.04v-5.4c-.25-.1-.51-.18-.78-.23-.27-.05-.53-.07-.75-.07-.93,0-1.62.29-2.09.87-.46.57-.7,1.37-.7,2.4,0,1.08.19,1.86.56,2.35.37.48.97.72,1.79.72.32,0,.66-.06,1.02-.18.36-.12.68-.28.95-.48h0Z"/>
        <path id="path933" class="cls-3" d="m189.12,108.65h-8.07c.05.86.38,1.52.98,1.98.61.46,1.5.69,2.67.69.74,0,1.47-.13,2.16-.4.7-.27,1.25-.56,1.66-.86h.39v2.83c-.8.32-1.55.55-2.25.7s-1.49.22-2.34.22c-2.21,0-3.9-.5-5.07-1.49-1.18-.99-1.76-2.41-1.76-4.24s.56-3.25,1.67-4.31c1.12-1.06,2.64-1.6,4.58-1.6,1.79,0,3.13.45,4.04,1.36.9.9,1.35,2.2,1.35,3.9v1.23Zm-3.51-2.07c-.02-.74-.2-1.29-.55-1.67-.35-.37-.88-.56-1.62-.56-.68,0-1.24.18-1.67.53-.44.35-.68.92-.73,1.69h4.57Z"/>
      </g>
      <path id="path875" class="cls-3" d="m247.5,0c-25.27,0-45.75,11.98-45.75,26.75s20.48,26.75,45.75,26.75,45.75-11.98,45.75-26.75S272.77,0,247.5,0Zm0,14c9.39,0,17,4.7,17,10.5s-7.61,10.5-17,10.5-17-4.7-17-10.5,7.61-10.5,17-10.5Z"/>
      <path id="path882" class="cls-3" d="m247.5,43c-28.99,0-52.5,13.88-52.5,31s23.51,31,52.5,31,52.5-13.88,52.5-31-23.51-31-52.5-31Zm0,17c11.87,0,21.5,5.93,21.5,13.25s-9.63,13.25-21.5,13.25-21.5-5.93-21.5-13.25,9.63-13.25,21.5-13.25Z"/>
      <g id="g1002">
        <path id="path3113" class="cls-4" d="m283.9,66.67c-1.06-2.64-3.63-5.49-8.46-5.1-6.14.67-8.06,6.56-7.13,10.07-2.45-1.66-6.61-2.39-10.24.73-4.69,4.7-2.18,11.06.4,12.58-2.84-.26-7.33,1.66-8.32,6.68-1.06,6.24,3.7,9.87,8.32,9.87h51.32c5.35,0,8.32-4.63,7.99-9-.53-5.7-5.74-7.89-8.58-7.42,2.38-1.33,5.55-7.55.72-12.45-3.83-3.64-8.72-2.32-10.43-.73.93-3.04-.59-9.34-6.81-10.33-.43-.05-.84-.07-1.24-.07-4.74,0-6.88,3.47-7.55,5.17"/>
        <path id="path3115" class="cls-6" d="m258.93,73.36c-2.71,2.45-3.7,8.01,1.19,11.26l19.49,13.37-9.45-21.65c-1.98-5.11-7.4-6.22-11.23-2.98"/>
        <path id="path3117" class="cls-2" d="m275.71,62.84c-3.17.06-7.92,3.84-5.81,9.6l9.77,23.05,3.43-24.24c.79-6.02-3.76-8.8-7.4-8.4"/>
        <path id="path3119" class="cls-8" d="m284.63,70.31h1.85s.99,0,1.12.47c-.73.59-2.71.67-2.44,3.84l3.11,20.86,9.71-23.11c1.99-5.16-2.18-9.47-5.88-9.6-.17-.01-.35-.02-.53-.02-3.32,0-7.12,2.41-6.93,7.57"/>
        <path id="path3121" class="cls-7" d="m297.58,76.54l-9.18,21.39,19.48-13.44c4.49-3.19,3.77-8.28,1.25-10.79-1.05-1.18-2.99-2.1-5.04-2.1-2.42,0-5.01,1.28-6.52,4.95"/>
        <path id="path3123" class="cls-5" d="m305.7,87.53l-18.3,12.78h22.53c4.62,0,7.59-4.77,6.27-9.14-.88-2.75-3.5-4.91-6.54-4.91-1.28,0-2.63.39-3.97,1.27"/>
        <path id="path3125" class="cls-1" d="m258.41,100.31h22.19l-18.3-12.78c-4.23-2.72-8.98-1.13-10.7,3.38-1.45,5.16,2.18,9.4,6.8,9.4"/>
      </g>
    </g>
  </g>
</svg>