<?xml version="1.0" encoding="UTF-8"?>
<svg id="_Слой_2" data-name="Слой 2" xmlns="http://www.w3.org/2000/svg" viewBox="0 0 555.46 495.46">
  <defs>
    <style>
      .cls-1 {
        stroke-width: 0px;
      }

      .cls-1, .cls-2 {
        fill: #fff;
      }

      .cls-2 {
        fill-rule: evenodd;
        stroke-width: .49px;
      }

      .cls-2, .cls-3 {
        stroke: #9daabd;
        stroke-linecap: round;
        stroke-linejoin: round;
      }

      .cls-3 {
        stroke-width: .46px;
      }
    </style>
  </defs>
  <g id="svg8">
    <g id="layer1">
      <rect id="rect847" class="cls-3" x=".23" y=".23" width="555" height="495"/>
      <path id="path4180" class="cls-1" d="m394.09,203.65c-35.33,0-69.21,14.03-94.19,39.01-24.98,24.98-39.01,58.86-39.01,94.19,0,35.33,14.03,69.21,39.01,94.19,24.98,24.98,58.86,39.01,94.19,39.01s69.21-14.03,94.19-39.01c24.98-24.98,39.01-58.86,39.01-94.19s-14.03-69.21-39.01-94.19c-24.98-24.98-58.86-39.01-94.19-39.01Zm0,55.95c36.56,0,71.63,14.53,97.49,40.38,10.86,10.86,19.72,23.34,26.34,36.88-6.63,13.54-15.48,26.02-26.34,36.88-25.85,25.85-60.92,40.38-97.49,40.38s-71.63-14.53-97.49-40.38c-10.86-10.86-19.72-23.34-26.34-36.88,6.63-13.54,15.48-26.02,26.34-36.88,25.85-25.85,60.92-40.38,97.49-40.38h0Zm0,6.66c-18.72,0-36.68,7.44-49.92,20.68-13.24,13.24-20.68,31.2-20.68,49.92s7.44,36.68,20.68,49.92c13.24,13.24,31.2,20.68,49.92,20.68s36.68-7.44,49.92-20.68c13.24-13.24,20.68-31.2,20.68-49.92s-7.44-36.68-20.68-49.92c-13.24-13.24-31.2-20.68-49.92-20.68Z"/>
      <path id="rect857" class="cls-2" d="m135.63,31.29c-58.45,0-105.5,35.6-105.5,79.82v66.65c0,22.14,11.8,42.13,30.92,56.56-20.64,14.51-33.46,34.95-33.46,57.66v96.94c0,44.22,48.56,79.82,108.88,79.82s108.88-35.6,108.88-79.82v-96.94c0-23.04-13.19-43.74-34.35-58.28,18.65-14.38,30.12-34.11,30.12-55.94v-66.65c0-44.22-47.05-79.82-105.5-79.82Zm.65,50.73c16.96,0,30.61,10.76,30.61,24.14v75.96c0,13.37-13.65,24.14-30.61,24.14s-30.61-10.76-30.61-24.14v-75.96c0-13.37,13.65-24.14,30.61-24.14Zm.2,185.81h.63c17.51,0,31.61,10.66,31.61,23.9v98.51c0,13.24-14.1,23.91-31.61,23.91h-.63c-17.51,0-31.61-10.66-31.61-23.91v-98.51c0-13.24,14.1-23.9,31.61-23.9Z"/>
    </g>
  </g>
</svg>