<?xml version="1.0" encoding="UTF-8"?>
<svg id="_Слой_2" data-name="Слой 2" xmlns="http://www.w3.org/2000/svg" viewBox="0 0 1213.98 385.25">
  <defs>
    <style>
      .cls-1 {
        fill: #fff;
      }

      .cls-1, .cls-2 {
        stroke-width: 0px;
      }

      .cls-2 {
        fill: #020d6e;
      }
    </style>
  </defs>
  <g id="svg1">
    <g id="layer1">
      <path id="path1" class="cls-2" d="m1213.63,73.91h-15.02l-34.87-47.42v47.42h-15.57V1.2h16.01l33.88,45.68V1.2h15.57v72.71Z"/>
      <path id="path2" class="cls-2" d="m1117.26,73.91h-16.56l-12.83-49.93-12.72,49.93h-16.56l-20.94-72.71h17.43l12.83,52.54,13.92-52.54h12.17l13.81,52.54,12.72-52.54h17.54l-20.83,72.71Z"/>
      <path id="path3" class="cls-2" d="m995.02,75.22c-11.04,0-20.17-3.52-27.41-10.57-7.16-7.12-10.74-16.13-10.74-27.03s3.58-19.88,10.74-26.93c7.24-7.12,16.37-10.68,27.41-10.68s20.25,3.52,27.41,10.57c7.24,7.05,10.85,16.06,10.85,27.03s-3.62,19.99-10.85,27.03c-7.16,7.05-16.3,10.57-27.41,10.57Zm-16.12-20.49c4.09,4.51,9.47,6.76,16.12,6.76s12.02-2.25,16.12-6.76c4.09-4.51,6.14-10.21,6.14-17.11s-2.05-12.61-6.14-17.11c-4.09-4.51-9.47-6.76-16.12-6.76s-12.02,2.25-16.12,6.76c-4.02,4.51-6.03,10.21-6.03,17.11s2.01,12.61,6.03,17.11Z"/>
      <path id="path4" class="cls-2" d="m900.83,73.91h-15.57v-29.76l-28.18-42.95h17.76l18.2,29.22,17.98-29.22h17.76l-27.96,42.95v29.76Z"/>
      <path id="path5" class="cls-2" d="m853.91,73.91h-17.87l-14.36-25.84h-11.4v25.84h-15.57V1.2h34.21c7.53,0,13.49,2.18,17.87,6.54,4.46,4.36,6.69,9.99,6.69,16.9,0,5.96-1.57,10.79-4.71,14.5-3.07,3.71-6.83,6.07-11.29,7.09l16.45,27.69Zm-27.3-39.46c3.22,0,5.85-.87,7.89-2.62,2.05-1.82,3.07-4.21,3.07-7.19s-1.02-5.34-3.07-7.09c-2.05-1.82-4.68-2.73-7.89-2.73h-16.34v19.62h16.34Z"/>
      <path id="path6" class="cls-2" d="m780.89,73.91h-51.75V1.2h51.75v13.63h-36.18v15.37h35.41v13.63h-35.41v16.46h36.18v13.63Z"/>
      <path id="path7" class="cls-2" d="m690.88,73.91h-19.52L643.08,1.2h17.76l20.28,55.92,20.17-55.92h17.76l-28.18,72.71Z"/>
      <path id="path8" class="cls-2" d="m569.87,75.22c-13.01,0-23.32-3.85-30.92-11.56l8.44-11.77c6.29,6.54,14.03,9.81,23.24,9.81,4.02,0,7.13-.76,9.32-2.29,2.27-1.6,3.4-3.52,3.4-5.78,0-1.96-1.06-3.6-3.18-4.91-2.05-1.31-4.64-2.25-7.78-2.83-3.07-.58-6.43-1.42-10.09-2.51-3.65-1.09-7.05-2.33-10.2-3.71-3.07-1.38-5.66-3.56-7.78-6.54-2.05-2.98-3.07-6.61-3.07-10.9,0-6.25,2.52-11.48,7.57-15.7,5.04-4.29,11.77-6.43,20.17-6.43,11.62,0,21.12,3.38,28.51,10.14l-8.66,11.34c-5.77-5.31-12.86-7.96-21.27-7.96-3.29,0-5.85.65-7.67,1.96-1.83,1.31-2.74,3.09-2.74,5.34,0,1.74,1.02,3.23,3.07,4.47,2.12,1.16,4.71,2.03,7.78,2.62,3.14.58,6.51,1.45,10.09,2.62,3.65,1.09,7.02,2.36,10.09,3.82,3.14,1.38,5.74,3.6,7.78,6.65,2.12,2.98,3.18,6.58,3.18,10.79,0,6.98-2.52,12.61-7.57,16.9-4.97,4.29-12.21,6.43-21.71,6.43h0Z"/>
      <path id="path9" class="cls-2" d="m528.88,11.76c0,4-1.02,7.74-3.07,11.23-2.05,3.56-4.79,6.58-8.22,9.05l-6.03-4.91c1.83-.94,3.58-2.43,5.26-4.47,1.68-1.96,2.74-3.89,3.18-5.78-.66.22-1.35.33-2.08.33-2.12,0-3.91-.73-5.37-2.18-1.39-1.45-2.08-3.34-2.08-5.67s.84-4.43,2.52-6.1c1.68-1.74,3.69-2.62,6.03-2.62,2.7,0,5.01,1.02,6.91,3.05,1.97,1.96,2.96,4.65,2.96,8.07h0Z"/>
      <path id="path10" class="cls-2" d="m461.56,75.22c-11.04,0-20.17-3.52-27.41-10.57-7.16-7.12-10.74-16.13-10.74-27.03s3.58-19.88,10.74-26.93c7.24-7.12,16.37-10.68,27.41-10.68s20.25,3.52,27.41,10.57c7.24,7.05,10.85,16.06,10.85,27.03s-3.62,19.99-10.85,27.03c-7.16,7.05-16.3,10.57-27.41,10.57Zm-16.12-20.49c4.09,4.51,9.47,6.76,16.12,6.76s12.02-2.25,16.12-6.76c4.09-4.51,6.14-10.21,6.14-17.11s-2.05-12.61-6.14-17.11c-4.09-4.51-9.47-6.76-16.12-6.76s-12.02,2.25-16.12,6.76c-4.02,4.51-6.03,10.21-6.03,17.11s2.01,12.61,6.03,17.11Z"/>
      <path id="path11" class="cls-2" d="m381.2,75.33c-10.96,0-20.21-3.49-27.74-10.47-7.46-6.98-11.18-16.06-11.18-27.25s3.73-20.35,11.18-27.25C360.99,3.45,370.23,0,381.2,0c13.3,0,23.39,5.41,30.26,16.24l-12.94,6.98c-1.75-2.76-4.17-5.01-7.24-6.76-3-1.82-6.36-2.73-10.09-2.73-6.65,0-12.13,2.25-16.45,6.76-4.31,4.51-6.47,10.21-6.47,17.11s2.16,12.61,6.47,17.11c4.31,4.51,9.79,6.76,16.45,6.76,3.07,0,6.03-.54,8.88-1.63,2.85-1.09,5.08-2.4,6.69-3.92v-8.72h-19.3v-13.52h34.87v27.91c-8.26,9.16-18.64,13.74-31.14,13.74h0Z"/>
      <path id="path12" class="cls-2" d="m341.62,73.91h-17.76l-4.5-12.32h-31.36l-4.6,12.32h-17.76L293.93,1.2h19.52l28.18,72.71Zm-26.53-25.94l-11.4-31.29-11.4,31.29h22.81Z"/>
      <path id="path13" class="cls-2" d="m229.91,75.22c-11.11,0-20.39-3.49-27.85-10.47-7.38-7.05-11.07-16.1-11.07-27.14s3.69-20.06,11.07-27.03C209.51,3.53,218.8,0,229.91,0c13.67,0,23.87,5.92,30.59,17.77l-13.38,6.54c-1.61-3.05-3.98-5.56-7.13-7.52-3.07-2.03-6.43-3.05-10.09-3.05-6.65,0-12.13,2.25-16.45,6.76-4.31,4.51-6.47,10.21-6.47,17.11s2.16,12.61,6.47,17.11c4.31,4.51,9.79,6.76,16.45,6.76,3.65,0,7.02-.98,10.09-2.94,3.14-1.96,5.52-4.51,7.13-7.63l13.38,6.43c-6.94,11.92-17.14,17.88-30.59,17.88h0Z"/>
      <path id="path14" class="cls-2" d="m177.83,73.91h-15.57V1.2h15.57v72.71Z"/>
      <path id="path15" class="cls-2" d="m145.71,73.91h-15.68v-30.52h-34.54v30.52h-15.57V1.2h15.57v28.56h34.54V1.2h15.68v72.71Z"/>
      <path id="path16" class="cls-2" d="m38.92,75.22c-11.11,0-20.39-3.49-27.85-10.47C3.69,57.7,0,48.66,0,37.61S3.69,17.55,11.07,10.57C18.53,3.53,27.81,0,38.92,0,52.59,0,62.79,5.92,69.51,17.77l-13.38,6.54c-1.61-3.05-3.98-5.56-7.13-7.52-3.07-2.03-6.43-3.05-10.09-3.05-6.65,0-12.13,2.25-16.45,6.76-4.31,4.51-6.47,10.21-6.47,17.11s2.16,12.61,6.47,17.11c4.31,4.51,9.79,6.76,16.45,6.76,3.65,0,7.02-.98,10.09-2.94,3.14-1.96,5.52-4.51,7.13-7.63l13.38,6.43c-6.94,11.92-17.14,17.88-30.59,17.88h0Z"/>
      <path id="path17" class="cls-2" d="m905.11,379.67h-48.21l-148.47-204.27v204.27h-49.92V93.43h51.2l145.49,198.69V93.43h49.92v286.24Z"/>
      <path id="path18" class="cls-2" d="m517.56,385.25c-42.1,0-77.51-13.73-106.24-41.2-28.73-27.47-43.09-63.23-43.09-107.29s14.36-79.68,43.09-106.86c28.73-27.47,64.14-41.2,106.24-41.2,48.92,0,87.18,19.88,114.77,59.65l-40.96,23.17c-7.96-11.16-18.49-20.31-31.57-27.47-12.8-7.15-26.88-10.73-42.24-10.73-28.16,0-51.62,9.73-70.4,29.18-18.49,19.45-27.73,44.2-27.73,74.24s9.24,54.93,27.73,74.67c18.77,19.45,42.24,29.18,70.4,29.18,13.37,0,26.03-2.57,37.97-7.72,12.23-5.15,22.04-11.16,29.44-18.02v-44.63h-84.9v-44.2h134.82v107.29c-31,34.62-70.11,51.93-117.33,51.93h0Z"/>
      <path id="path19" class="cls-2" d="m299.29,379.67h-53.33l-55.46-211.14-55.04,211.14h-53.33L.63,93.43h55.89l55.46,220.58,58.88-220.58h39.68l58.88,220.58,55.04-220.58h55.89l-81.06,286.24Z"/>
      <path id="path20" class="cls-2" d="m927.78,379.67V93.43h286.19v286.24h-286.19Z"/>
      <path id="path21" class="cls-1" d="m1135.44,115.01c16.55,16.01,24.83,37.81,24.83,65.4v11.18c0,24.56-5.52,47.19-16.56,67.89l-62.48,120.2h-60.64l56.9-101.57c-8.28,3.31-15.87,4.97-22.76,4.97-21.52,0-39.04-7.17-52.56-21.52-13.52-14.63-20.28-34.22-20.28-58.78v-21.52c0-27.32,8.41-49.26,25.25-65.82,16.83-16.56,38.21-24.84,64.15-24.84s47.59,8.14,64.15,24.42h0Zm-88.98,36.43c-5.79,6.62-8.69,15.87-8.69,27.73v21.52c0,11.87,2.9,21.25,8.69,28.15,6.07,6.62,14.21,9.93,24.42,9.93s18.62-3.31,24.42-9.93c6.07-6.9,9.11-16.28,9.11-28.15v-21.52c0-11.87-3.04-21.11-9.11-27.73-5.79-6.9-13.93-10.35-24.42-10.35s-18.35,3.45-24.42,10.35h0Z"/>
    </g>
  </g>
</svg>