<svg width="120" height="28" fill="none" xmlns="http://www.w3.org/2000/svg"><path d="M46.989 20.208c0 .123-.113.22-.261.22h-2.27c-.203 0-.255-.188-.347-.363l-2.7-4.452h-.412c-.486 0-1.946-.05-2.374-.072v4.514c0 .195-.191.373-.395.373h-1.86a.4.4 0 0 1-.261-.122.35.35 0 0 1-.109-.25V8.263c0-.356.22-.48.595-.533.967-.142 3.044-.23 4.403-.23 2.862 0 5.505.98 5.505 4.022v.161c0 1.884-.984 2.916-2.507 3.482l2.954 4.899a.225.225 0 0 1 .038.143Zm-3.05-8.685c0-1.335-1.081-1.905-2.94-1.905-.392 0-2.083.036-2.415.072v3.858c.295.019 2.096.055 2.415.055 1.912 0 2.94-.353 2.94-1.919v-.161Zm64.799 8.688c0 .122-.074.212-.222.212h-2.269c-.204 0-.279-.18-.371-.356l-2.774-4.454h-.411c-.486 0-1.987-.05-2.415-.072v4.515c0 .195-.15.372-.354.372h-1.86a.399.399 0 0 1-.261-.121.35.35 0 0 1-.11-.25V8.263c0-.356.221-.48.596-.533.967-.142 3.044-.23 4.404-.23 2.861 0 5.504.98 5.504 4.022v.161c0 1.884-.984 2.916-2.507 3.482l3.012 4.9a.223.223 0 0 1 .038.145Zm-3.107-8.688c0-1.335-1.082-1.905-2.94-1.905-.392 0-2.083.036-2.415.072v3.858a102.6 102.6 0 0 0 2.415.055c1.912 0 2.94-.353 2.94-1.919v-.161Zm-54.127 3.25h5.95a.382.382 0 0 0 .261-.104.35.35 0 0 0 .11-.25v-1.284a.35.35 0 0 0-.11-.25.382.382 0 0 0-.262-.105h-5.949v-1.632c0-1.488.06-1.53 1.466-1.53h4.705a.384.384 0 0 0 .263-.105.353.353 0 0 0 .11-.252V8.124c0-.25-.094-.34-.373-.374-.594-.088-1.805-.248-4.015-.248-3.086 0-4.722-.02-4.722 3.646v5.632c0 3.667 1.636 3.647 4.722 3.647 2.21 0 3.42-.16 4.015-.25.28-.034.373-.123.373-.374v-1.137a.35.35 0 0 0-.11-.25.382.382 0 0 0-.263-.105H52.97c-1.406 0-1.466-.04-1.466-1.531v-2.007Zm36.597 0h6.075a.382.382 0 0 0 .262-.103.35.35 0 0 0 .11-.25v-1.285a.35.35 0 0 0-.11-.25.382.382 0 0 0-.262-.105h-6.075v-1.632c0-1.488 0-1.53 1.592-1.53h4.705a.384.384 0 0 0 .263-.105.353.353 0 0 0 .11-.252V8.124c0-.25-.094-.34-.373-.374-.595-.088-1.805-.178-4.015-.178-3.086 0-4.722-.09-4.722 3.576v5.632c0 3.667 1.636 3.72 4.722 3.72 2.21 0 3.42-.232 4.015-.323.28-.034.373-.123.373-.374v-1.137a.35.35 0 0 0-.11-.25.382.382 0 0 0-.263-.105h-4.705c-1.406 0-1.592-.04-1.592-1.531v-2.007Zm-16.539.615V7.865a.372.372 0 0 0-.374-.365h-1.84a.37.37 0 0 0-.37.364l-.016 7.524c0 2.03-.962 2.992-2.97 2.992-2.004 0-2.984-.962-2.984-2.992V7.865a.371.371 0 0 0-.373-.365H60.8c-.204 0-.343.168-.343.365v7.523c0 3.793 2.546 5.038 5.536 5.038 2.993 0 5.57-1.245 5.57-5.038ZM83.58 9.726h-3.706V19.93c-.001.095-.041.185-.111.252a.384.384 0 0 1-.264.104h-1.838a.381.381 0 0 1-.262-.105.349.349 0 0 1-.108-.251V9.726h-3.712c-.203 0-.35-.123-.35-.318l-.014-1.57c0-.197.147-.266.35-.266h10.001c.204 0 .282.07.282.266l.014 1.57c0 .195-.078.318-.282.318ZM120 16.708c0-1.707-1.013-2.59-2.584-3.198-1.234-.475-2.319-.879-3.145-1.19-.822-.312-1.522-.852-1.522-1.438 0-.8 1.035-1.263 2.407-1.263 1.618 0 2.891.216 4.119.323h.037a.31.31 0 0 0 .314-.32V8.304c0-.176-.146-.302-.333-.336-.63-.145-2.252-.468-4.024-.468-3.455 0-5.104 1.424-5.104 3.382 0 1.245.573 2.472 2.193 3.112 1.623.641 4.946 1.38 4.946 2.714 0 1.032-.502 1.6-2.157 1.6-1.718 0-3.458-.233-4.202-.323h-.037a.363.363 0 0 0-.249.1.332.332 0 0 0-.103.24v1.282c0 .195.167.318.353.354.893.196 2.56.467 4.2.467 3.721 0 4.891-1.923 4.891-3.72Z" fill="#404040"/><path d="M32 14.002c0 .43-.179.843-.497 1.147a1.735 1.735 0 0 1-1.198.475c-.45 0-.88-.17-1.199-.475a1.587 1.587 0 0 1-.496-1.147c0-.43.178-.842.496-1.147a1.735 1.735 0 0 1 1.199-.475c.45 0 .88.171 1.198.475.318.305.497.717.497 1.147Zm-5.206-2.835a1.059 1.059 0 0 0-.733.278.974.974 0 0 0-.226.319.938.938 0 0 0 .226 1.073c.096.09.211.162.337.21a1.04 1.04 0 0 0 1.097-.226.953.953 0 0 0 .289-.68.953.953 0 0 0-.288-.68 1.04 1.04 0 0 0-.702-.294Zm-1.203-3.4a1.347 1.347 0 0 0-.502.087c-.16.061-.305.152-.428.267a1.24 1.24 0 0 0-.287.405 1.194 1.194 0 0 0 .287 1.363c.122.116.268.207.428.268.16.06.33.09.503.088.339-.006.663-.14.9-.371.238-.232.372-.544.372-.869 0-.325-.134-.637-.372-.868a1.324 1.324 0 0 0-.9-.37Zm-2.099-2.58c-.317 0-.621.12-.846.335a1.12 1.12 0 0 0-.35.81c0 .304.126.595.35.81.225.214.53.335.846.335.318 0 .622-.12.846-.336a1.12 1.12 0 0 0 .35-.81 1.12 1.12 0 0 0-.35-.809 1.224 1.224 0 0 0-.846-.335Zm-2.64-1.537a1.06 1.06 0 0 0-.721.286.975.975 0 0 0-.221.317.94.94 0 0 0 .22 1.064 1.06 1.06 0 0 0 1.443 0 .955.955 0 0 0 .3-.69.955.955 0 0 0-.3-.69 1.044 1.044 0 0 0-.721-.286Zm-2.797-.632a.897.897 0 0 0-.622.235.795.795 0 0 0 0 1.18.897.897 0 0 0 1.22-.013.807.807 0 0 0 .246-.576.807.807 0 0 0-.246-.578.882.882 0 0 0-.598-.248Zm-2.741.116a.692.692 0 0 0-.481.18.637.637 0 0 0-.2.456.612.612 0 0 0 .2.456.669.669 0 0 0 .481.18.68.68 0 0 0 .46-.191.623.623 0 0 0 .189-.445.623.623 0 0 0-.19-.444.68.68 0 0 0-.459-.192Zm-2.385.55a.586.586 0 0 0-.404.16.536.536 0 0 0-.168.388c0 .145.06.284.168.387.107.103.252.16.404.16a.585.585 0 0 0 .405-.16.536.536 0 0 0 .167-.387.536.536 0 0 0-.167-.387.585.585 0 0 0-.405-.16Zm-2.038.87c-.13 0-.256.05-.349.14a.462.462 0 0 0-.145.333c0 .125.052.246.145.334a.505.505 0 0 0 .698 0 .462.462 0 0 0 .145-.334.462.462 0 0 0-.145-.334.505.505 0 0 0-.349-.138Zm-1.799 1.13a.586.586 0 0 0-.405.16.537.537 0 0 0-.168.388c0 .146.06.285.168.388.108.103.253.16.405.16a.586.586 0 0 0 .406-.16.537.537 0 0 0 .167-.388.537.537 0 0 0-.167-.387.586.586 0 0 0-.406-.161Zm-1.7 1.58a.69.69 0 0 0-.479.18.635.635 0 0 0-.2.455.612.612 0 0 0 .2.455.668.668 0 0 0 .48.18.678.678 0 0 0 .458-.191.621.621 0 0 0 .19-.444.621.621 0 0 0-.19-.443.678.678 0 0 0-.458-.192ZM5.97 9.384c-.21 0-.41.08-.558.222a.738.738 0 0 0-.23.533c0 .2.082.392.23.534a.807.807 0 0 0 .558.22c.21 0 .41-.079.558-.22a.738.738 0 0 0 .23-.534c0-.2-.083-.391-.23-.533a.807.807 0 0 0-.558-.22v-.001Zm-.822 2.726a.856.856 0 0 0-.592.234.783.783 0 0 0-.244.566c0 .213.088.416.244.566.157.15.37.235.592.235a.856.856 0 0 0 .591-.235.783.783 0 0 0 .245-.566.783.783 0 0 0-.245-.566.856.856 0 0 0-.591-.234Zm.058 2.776a1.06 1.06 0 0 0-.72.286.974.974 0 0 0-.222.316.938.938 0 0 0 .221 1.063c.095.09.207.163.33.212a1.06 1.06 0 0 0 1.112-.212.955.955 0 0 0 .298-.69.955.955 0 0 0-.298-.69 1.043 1.043 0 0 0-.721-.285Zm1.201 2.873c-.343 0-.672.13-.915.363-.243.232-.38.547-.38.876 0 .328.137.643.38.875.243.233.572.363.915.363.344 0 .673-.13.916-.363.242-.232.379-.547.379-.875 0-.329-.137-.644-.38-.876a1.324 1.324 0 0 0-.915-.363Zm2.115 2.76a1.242 1.242 0 0 0-.86.328 1.144 1.144 0 0 0-.265.374 1.102 1.102 0 0 0 .265 1.26 1.244 1.244 0 0 0 .86.328c.313-.007.611-.13.831-.344a1.12 1.12 0 0 0 .342-.801c0-.3-.123-.588-.342-.802a1.222 1.222 0 0 0-.831-.342Zm2.548 1.83c-.27 0-.529.102-.72.285a.953.953 0 0 0-.298.689c0 .258.107.506.298.689.191.182.45.285.72.285.27 0 .529-.103.72-.285a.954.954 0 0 0 .298-.69.953.953 0 0 0-.298-.688 1.042 1.042 0 0 0-.72-.285Zm2.877.989a.882.882 0 0 0-.61.241.807.807 0 0 0-.252.584c0 .218.091.428.253.583.162.154.38.241.61.241a.882.882 0 0 0 .608-.241.807.807 0 0 0 .253-.583.807.807 0 0 0-.252-.583.882.882 0 0 0-.61-.242Zm2.737.259a.687.687 0 0 0-.469.186.63.63 0 0 0-.194.448.61.61 0 0 0 .194.448.663.663 0 0 0 .469.186.678.678 0 0 0 .468-.186.62.62 0 0 0 .194-.448.62.62 0 0 0-.194-.448.678.678 0 0 0-.468-.186Zm2.391-.373a.587.587 0 0 0-.405.16.537.537 0 0 0-.168.388c0 .146.06.285.168.388.107.103.253.16.405.16a.586.586 0 0 0 .405-.16.536.536 0 0 0 .168-.388.536.536 0 0 0-.168-.387.586.586 0 0 0-.405-.16v-.001Zm2.036-.724c-.13 0-.256.05-.348.138a.462.462 0 0 0-.145.334c0 .125.053.245.145.333a.504.504 0 0 0 .697 0 .461.461 0 0 0 .144-.333.461.461 0 0 0-.144-.333.504.504 0 0 0-.349-.138Zm1.799-1.28a.596.596 0 0 0-.417.157.55.55 0 0 0-.174.394.53.53 0 0 0 .174.394.579.579 0 0 0 .417.156.588.588 0 0 0 .406-.161.538.538 0 0 0 .169-.39.538.538 0 0 0-.169-.388.588.588 0 0 0-.406-.162Zm1.702-1.753a.68.68 0 0 0-.47.187.623.623 0 0 0-.195.45c0 .169.07.33.195.45a.68.68 0 0 0 .47.186.68.68 0 0 0 .46-.192.623.623 0 0 0 .189-.444.623.623 0 0 0-.19-.445.68.68 0 0 0-.459-.192Zm1.42-2.36c-.21 0-.41.079-.558.22a.738.738 0 0 0-.231.534c0 .2.083.392.23.533.149.142.35.22.558.22.21 0 .41-.079.557-.22a.738.738 0 0 0 .231-.533c0-.2-.083-.392-.23-.533a.806.806 0 0 0-.558-.221Zm.824-2.813a.865.865 0 0 0-.588.234.767.767 0 0 0 0 1.126.835.835 0 0 0 .588.233c.22 0 .433-.084.589-.233a.78.78 0 0 0 .244-.563.78.78 0 0 0-.244-.563.852.852 0 0 0-.589-.234Zm-3.258-.915c-.21 0-.41.08-.559.221a.74.74 0 0 0-.231.535c0 .2.083.392.231.534a.808.808 0 0 0 .559.222c.21 0 .41-.08.558-.222a.74.74 0 0 0 .231-.534.74.74 0 0 0-.231-.534.808.808 0 0 0-.558-.222Zm-3.057-.672a.457.457 0 0 0-.317.125.419.419 0 0 0-.13.302c0 .114.047.223.13.303a.457.457 0 0 0 .633 0 .419.419 0 0 0 .131-.303.42.42 0 0 0-.131-.302.458.458 0 0 0-.316-.125Zm-.846-2.035a.63.63 0 0 0-.434.172.576.576 0 0 0-.18.416c0 .156.064.306.18.416a.63.63 0 0 0 .87 0c.115-.11.18-.26.18-.416a.576.576 0 0 0-.18-.416.63.63 0 0 0-.436-.172Zm-2.007-1.71a.874.874 0 0 0-.61.226.802.802 0 0 0-.256.577.802.802 0 0 0 .255.577.872.872 0 0 0 1.187-.018.785.785 0 0 0 .237-.559.785.785 0 0 0-.236-.559.857.857 0 0 0-.577-.244Zm-2.725-.288a.969.969 0 0 0-.67.265.887.887 0 0 0-.277.64c0 .241.1.472.278.642a.97.97 0 0 0 .67.265.969.969 0 0 0 .669-.265c.177-.17.277-.4.277-.641 0-.24-.1-.47-.277-.64a.969.969 0 0 0-.67-.266Zm-2.307 1.258a.922.922 0 0 0-.637.253.843.843 0 0 0-.264.609c0 .229.095.448.264.61a.922.922 0 0 0 .637.252c.239 0 .468-.091.636-.253a.843.843 0 0 0 .264-.609.843.843 0 0 0-.263-.61.922.922 0 0 0-.637-.252Zm-1.183 2.369a.62.62 0 0 0-.429.17.568.568 0 0 0-.177.41c0 .154.064.301.177.41a.62.62 0 0 0 .43.17.62.62 0 0 0 .428-.17.568.568 0 0 0 .178-.41.568.568 0 0 0-.178-.41.62.62 0 0 0-.429-.17Zm.047 2.21a.457.457 0 0 0-.315.126.418.418 0 0 0-.131.302c0 .113.047.222.13.302.084.08.198.125.316.125a.457.457 0 0 0 .316-.125.418.418 0 0 0 .13-.302.418.418 0 0 0-.13-.302.457.457 0 0 0-.316-.125Zm.801 1.698a.63.63 0 0 0-.435.173.576.576 0 0 0-.18.416c0 .156.065.306.18.416a.63.63 0 0 0 .435.173.63.63 0 0 0 .435-.173c.116-.11.18-.26.18-.416a.576.576 0 0 0-.18-.416.63.63 0 0 0-.435-.173Zm2.02 1.31a.859.859 0 0 0-.593.236.786.786 0 0 0-.246.567c0 .213.089.417.246.568.157.15.37.235.593.235a.859.859 0 0 0 .593-.235.786.786 0 0 0 .246-.568.786.786 0 0 0-.246-.567.859.859 0 0 0-.593-.236Zm2.717.067a.968.968 0 0 0-.669.265.886.886 0 0 0-.277.64c0 .24.1.47.277.64.178.17.418.264.669.264.25 0 .491-.095.668-.265.178-.17.277-.4.277-.64s-.1-.47-.277-.64a.968.968 0 0 0-.668-.264Zm2.321-1.176c-.24 0-.469.091-.638.253a.846.846 0 0 0-.265.611c0 .23.095.45.265.611.169.162.399.254.638.254.24 0 .47-.091.639-.253a.846.846 0 0 0 .264-.612.846.846 0 0 0-.264-.61.925.925 0 0 0-.639-.254Zm1.179-1.795a.633.633 0 0 0-.43.17.58.58 0 0 0-.177.411.56.56 0 0 0 .177.411.61.61 0 0 0 .43.17.622.622 0 0 0 .43-.17.569.569 0 0 0 .177-.41.568.568 0 0 0-.178-.412.621.621 0 0 0-.43-.17Zm2.643-4.267c-.27 0-.527.103-.718.285a.95.95 0 0 0-.297.687.95.95 0 0 0 .297.687c.19.182.449.284.718.284.27 0 .527-.102.718-.284a.951.951 0 0 0 .297-.687.95.95 0 0 0-.297-.687 1.039 1.039 0 0 0-.718-.285Zm-1.72-2.727c-.322 0-.63.122-.858.34a1.137 1.137 0 0 0-.355.821c0 .308.127.604.355.821.228.218.536.34.858.34.322 0 .63-.122.858-.34.228-.217.356-.513.356-.82 0-.309-.128-.604-.356-.822a1.242 1.242 0 0 0-.858-.34Zm-2.595-1.526c-.288 0-.565.11-.769.305-.204.195-.319.46-.319.736 0 .276.115.54.32.736.203.195.48.305.768.305.289 0 .565-.11.77-.305.203-.195.318-.46.318-.736 0-.276-.115-.54-.319-.736a1.113 1.113 0 0 0-.769-.305Zm-2.88-.303a.977.977 0 0 0-.676.267.894.894 0 0 0-.28.647c0 .242.101.474.28.646.18.171.422.268.676.268a.977.977 0 0 0 .675-.268.894.894 0 0 0 .28-.646c0-.243-.1-.475-.28-.647a.977.977 0 0 0-.675-.267Zm-2.88.883a.731.731 0 0 0-.505.2.67.67 0 0 0-.21.483.67.67 0 0 0 .21.484c.134.128.316.2.505.2.19 0 .372-.072.506-.2a.67.67 0 0 0 .209-.484.67.67 0 0 0-.21-.484.731.731 0 0 0-.505-.2Zm-2.432 1.617a.684.684 0 0 0-.48.176.63.63 0 0 0-.2.453.604.604 0 0 0 .2.453.662.662 0 0 0 .48.176.672.672 0 0 0 .455-.19.615.615 0 0 0 .187-.44.615.615 0 0 0-.187-.438.672.672 0 0 0-.455-.19Zm-1.643 2.31a.675.675 0 0 0-.467.185.618.618 0 0 0-.193.447c0 .167.07.328.193.446a.675.675 0 0 0 .467.185.676.676 0 0 0 .466-.185.618.618 0 0 0 .194-.446.618.618 0 0 0-.194-.447.675.675 0 0 0-.466-.185Zm-.693 2.53a.805.805 0 0 0-.556.22.737.737 0 0 0-.231.532c0 .2.083.392.23.533.148.141.348.22.557.22.209 0 .409-.079.557-.22a.737.737 0 0 0 .23-.533c0-.2-.083-.391-.23-.532a.806.806 0 0 0-.557-.22Zm.403 2.587c-.27 0-.528.103-.719.285a.952.952 0 0 0-.298.688c0 .258.107.505.298.688.19.182.45.285.719.285.27 0 .528-.103.718-.285a.952.952 0 0 0 .298-.688.952.952 0 0 0-.298-.688 1.04 1.04 0 0 0-.718-.285Zm1.719 2.355c-.16 0-.317.03-.464.088-.147.059-.28.144-.393.251a1.157 1.157 0 0 0-.262.376 1.116 1.116 0 0 0 .262 1.263c.113.108.246.193.393.252a1.26 1.26 0 0 0 1.32-.252c.227-.217.354-.512.354-.82 0-.306-.127-.601-.354-.819a1.24 1.24 0 0 0-.857-.339Zm2.607 1.759c-.29 0-.567.11-.772.306-.205.195-.32.461-.32.738 0 .277.115.543.32.739.205.196.482.306.772.306.29 0 .567-.11.772-.306.204-.196.32-.462.32-.739 0-.277-.116-.543-.32-.738a1.117 1.117 0 0 0-.772-.306Zm2.872.55c-.255 0-.5.097-.68.27a.9.9 0 0 0-.282.65.9.9 0 0 0 .281.65c.18.174.425.27.68.27.256 0 .5-.096.68-.27a.9.9 0 0 0 .282-.65.9.9 0 0 0-.281-.65.984.984 0 0 0-.68-.27Zm2.88-.409a.744.744 0 0 0-.504.2.684.684 0 0 0-.21.484.659.659 0 0 0 .21.484.718.718 0 0 0 .505.2c.19 0 .371-.072.505-.2a.669.669 0 0 0 .21-.484.67.67 0 0 0-.21-.483.731.731 0 0 0-.505-.2Zm2.436-1.497a.685.685 0 0 0-.48.176.63.63 0 0 0-.201.453.608.608 0 0 0 .2.453.662.662 0 0 0 .481.177.672.672 0 0 0 .45-.192.616.616 0 0 0 .185-.438.616.616 0 0 0-.184-.438.672.672 0 0 0-.45-.191Zm1.643-2.334a.685.685 0 0 0-.476.179.629.629 0 0 0-.199.451.607.607 0 0 0 .199.45.663.663 0 0 0 .476.18.672.672 0 0 0 .45-.192.616.616 0 0 0 .185-.438.616.616 0 0 0-.185-.437.672.672 0 0 0-.45-.192Zm6.718-7.876a1.522 1.522 0 0 0-.568.1c-.18.069-.345.172-.484.302a1.4 1.4 0 0 0-.323.457 1.35 1.35 0 0 0 0 1.084 1.4 1.4 0 0 0 .323.457c.139.13.303.233.484.302.18.07.373.103.568.1.384-.006.75-.157 1.02-.419.268-.262.42-.614.42-.982s-.152-.72-.42-.983a1.497 1.497 0 0 0-1.02-.418Zm-1.862-3.22c-.164 0-.326.03-.477.09-.151.06-.289.148-.404.259a1.19 1.19 0 0 0-.27.387 1.147 1.147 0 0 0 0 .912c.062.145.154.277.27.387.115.111.253.199.404.259a1.295 1.295 0 0 0 1.358-.259c.234-.223.365-.527.365-.843 0-.316-.131-.62-.365-.843a1.275 1.275 0 0 0-.881-.35ZM25.01 2.52c-.285 0-.558.108-.759.3a1.005 1.005 0 0 0-.314.727c0 .273.113.534.314.727.201.193.474.3.76.3.284 0 .557-.107.759-.3.2-.193.314-.454.314-.727 0-.272-.113-.533-.314-.726a1.099 1.099 0 0 0-.76-.301ZM21.911.99a.905.905 0 0 0-.627.238.801.801 0 0 0 0 1.19.876.876 0 0 0 .627.237.89.89 0 0 0 .615-.244.814.814 0 0 0 .255-.588.814.814 0 0 0-.255-.589.89.89 0 0 0-.615-.243ZM18.863.209a.766.766 0 0 0-.529.21.701.701 0 0 0-.22.506c0 .19.08.372.22.507.14.134.33.21.53.21a.766.766 0 0 0 .529-.21.701.701 0 0 0 .22-.507.701.701 0 0 0-.22-.506.766.766 0 0 0-.53-.21ZM15.998 0a.67.67 0 0 0-.456.18.616.616 0 0 0-.189.436.595.595 0 0 0 .19.436.646.646 0 0 0 .455.18c.17 0 .334-.064.455-.18a.603.603 0 0 0 .189-.436.603.603 0 0 0-.189-.435.659.659 0 0 0-.455-.181ZM13.14.205c-.2 0-.39.075-.531.21a.703.703 0 0 0-.22.508c0 .19.079.373.22.508.14.134.332.21.53.21a.767.767 0 0 0 .52-.216.703.703 0 0 0 .214-.502.703.703 0 0 0-.214-.502.767.767 0 0 0-.52-.216ZM10.093.99a.904.904 0 0 0-.616.244.802.802 0 0 0 0 1.177.874.874 0 0 0 .616.244.89.89 0 0 0 .615-.244.815.815 0 0 0 .255-.589.815.815 0 0 0-.255-.588.89.89 0 0 0-.615-.244ZM6.99 2.517a1.1 1.1 0 0 0-.76.301 1.006 1.006 0 0 0-.314.727c0 .273.113.534.315.727a1.1 1.1 0 0 0 .76.301 1.1 1.1 0 0 0 .76-.3c.2-.194.314-.455.314-.728 0-.273-.113-.534-.315-.727a1.1 1.1 0 0 0-.76-.301Zm-2.763 2.53a1.295 1.295 0 0 0-.484.084 1.252 1.252 0 0 0-.411.257 1.19 1.19 0 0 0-.276.389 1.147 1.147 0 0 0 .276 1.311c.118.111.258.198.411.257a1.295 1.295 0 0 0 1.35-.272c.228-.223.356-.523.356-.835 0-.312-.128-.612-.357-.835a1.273 1.273 0 0 0-.865-.356Zm-1.86 3.225a1.523 1.523 0 0 0-.568.1c-.18.069-.345.171-.483.302a1.4 1.4 0 0 0-.324.457 1.35 1.35 0 0 0 0 1.083 1.4 1.4 0 0 0 .324.458c.138.13.303.233.483.302a1.521 1.521 0 0 0 1.587-.319c.27-.262.42-.615.42-.982 0-.368-.15-.72-.42-.983a1.497 1.497 0 0 0-1.02-.418Zm-.672 4.108c-.45 0-.88.171-1.199.475A1.587 1.587 0 0 0 0 14.002c0 .43.179.843.496 1.147.318.305.75.475 1.2.475.449 0 .88-.17 1.198-.475.318-.304.496-.716.496-1.147 0-.43-.178-.842-.496-1.147a1.735 1.735 0 0 0-1.199-.475Zm.673 4.549a1.524 1.524 0 0 0-.572.097 1.473 1.473 0 0 0-.487.302c-.14.13-.25.286-.326.458a1.35 1.35 0 0 0 0 1.089c.075.172.186.328.326.459.14.13.306.233.487.302.182.068.376.101.572.097.382-.009.746-.16 1.014-.422.267-.262.417-.614.417-.98s-.15-.718-.417-.98a1.497 1.497 0 0 0-1.014-.422Zm1.86 3.645c-.33 0-.646.126-.88.349a1.165 1.165 0 0 0-.364.842c0 .316.13.619.364.842.234.224.55.35.88.35.33 0 .647-.126.88-.35.234-.223.365-.526.365-.842 0-.316-.131-.619-.365-.842a1.273 1.273 0 0 0-.88-.349Zm2.76 2.855a1.1 1.1 0 0 0-.76.3 1.006 1.006 0 0 0-.314.728c0 .273.113.534.315.727a1.1 1.1 0 0 0 .76.301 1.1 1.1 0 0 0 .76-.301c.2-.193.314-.454.314-.727 0-.273-.113-.534-.315-.727a1.1 1.1 0 0 0-.76-.301Zm3.105 1.916a.89.89 0 0 0-.616.244.815.815 0 0 0-.255.589c0 .22.092.432.255.589a.89.89 0 0 0 .616.244c.23 0 .452-.088.615-.244a.815.815 0 0 0 .255-.59.815.815 0 0 0-.255-.588.89.89 0 0 0-.615-.244Zm3.05 1.017a.767.767 0 0 0-.53.21.702.702 0 0 0-.22.508c0 .19.079.372.22.507.14.134.33.21.53.21.198 0 .39-.076.53-.21a.702.702 0 0 0 .22-.508.702.702 0 0 0-.22-.507.767.767 0 0 0-.53-.21Zm2.861.403a.66.66 0 0 0-.456.18.604.604 0 0 0-.19.437c0 .164.069.321.19.437a.66.66 0 0 0 .456.181.66.66 0 0 0 .456-.18.604.604 0 0 0 .19-.438.604.604 0 0 0-.19-.436.66.66 0 0 0-.456-.181Zm2.857-.404a.767.767 0 0 0-.53.21.702.702 0 0 0-.22.508c0 .19.08.372.22.507s.331.21.53.21.39-.075.53-.21a.702.702 0 0 0 .22-.507.702.702 0 0 0-.22-.508.767.767 0 0 0-.53-.21Zm3.05-1.015a.894.894 0 0 0-.617.245.818.818 0 0 0-.256.59c0 .222.092.435.256.592a.893.893 0 0 0 .617.244.893.893 0 0 0 .617-.244.818.818 0 0 0 .256-.591.818.818 0 0 0-.255-.591.894.894 0 0 0-.618-.245Zm3.102-1.92a1.1 1.1 0 0 0-.76.301 1.007 1.007 0 0 0-.316.728c0 .273.114.535.315.728a1.1 1.1 0 0 0 .76.3 1.1 1.1 0 0 0 .761-.3c.202-.194.315-.455.315-.728 0-.273-.113-.535-.315-.728a1.1 1.1 0 0 0-.76-.301Zm2.763-2.853c-.33 0-.646.126-.879.349a1.164 1.164 0 0 0-.364.841c0 .315.131.618.364.841.233.223.55.349.88.349.329 0 .645-.126.878-.349.233-.223.364-.526.364-.841 0-.316-.13-.618-.364-.841a1.272 1.272 0 0 0-.879-.349Zm1.86-3.642a1.526 1.526 0 0 0-.568.1c-.18.07-.345.172-.484.303-.139.13-.25.286-.324.458a1.35 1.35 0 0 0 0 1.085c.075.172.185.327.324.458.139.13.303.233.484.303.18.069.374.103.569.1a1.5 1.5 0 0 0 1.021-.42c.27-.262.421-.616.421-.984s-.151-.721-.42-.984a1.5 1.5 0 0 0-1.022-.419Z" fill="#FA6400"/></svg>