<?xml version="1.0" encoding="UTF-8"?>
<svg id="_Слой_2" data-name="Слой 2" xmlns="http://www.w3.org/2000/svg" viewBox="0 0 698.55 242.99">
  <defs>
    <style>
      .cls-1, .cls-2, .cls-3, .cls-4 {
        stroke-width: 0px;
      }

      .cls-1, .cls-3 {
        fill-rule: evenodd;
      }

      .cls-3 {
        fill: #c01827;
      }

      .cls-4 {
        fill: #fff;
      }
    </style>
  </defs>
  <g id="svg2985">
    <g id="g3034">
      <path id="path2995" class="cls-2" d="m29.49,135.34v50.14H0v-111.34h29.12v44.98l38.71-44.98h34.29l-47.19,52.72,49.4,59.36h-37.24l-37.6-50.88Z"/>
      <path id="path2997" class="cls-2" d="m105.03,74.21v112.16h29.16v-41.5h10.56l22.38,41.25h33.97l-26.94-46c20.68-2.99,40.96-58.37-18.59-65.66l-50.53-.25Zm29.19,21.97h17.19c14.73.24,20.52,23.04,0,27.06h-17.19v-27.06Z"/>
      <path id="path3003" class="cls-1" d="m252.63,71.89c-36.98,0-56.28,26.11-56.28,58.31s19.57,58.31,56.28,58.31,56.31-26.11,56.31-58.31-20.94-58.31-56.31-58.31Zm0,23c16.22,0,25.81,15.82,25.81,35.31s-8.86,35.31-25.81,35.31-25.81-15.82-25.81-35.31,8.86-35.31,25.81-35.31Z"/>
      <path id="path3009" class="cls-2" d="m342.63,117.1v69.27h-28.88v-112.06h30.76l41.72,70.34v-70.34h27.81v111.79h-28.35l-43.06-69Z"/>
      <path id="path2997-9" class="cls-3" d="m698.55,121.5c0,67.1-54,121.5-120.61,121.5s-120.61-54.4-120.61-121.5S511.34,0,577.95,0s120.61,54.4,120.61,121.5Z"/>
      <path id="path3000" class="cls-4" d="m579.36,144.76v39.69h-98.6v-40.16c39.16-29.46,77.59-64.63,108.97-127.35h42.18v127.32h17.95v40.45h-18.2v35.72h-42.87v-125.49c-12.66,18.44-25.65,36.4-41.83,49.77l32.41.05Z"/>
    </g>
  </g>
</svg>