<?xml version="1.0" encoding="UTF-8"?>
<svg id="_Слой_2" data-name="Слой 2" xmlns="http://www.w3.org/2000/svg" viewBox="0 0 248.54 28.98">
  <defs>
    <style>
      .cls-1 {
        fill: #005e8e;
      }

      .cls-1, .cls-2, .cls-3 {
        stroke-width: 0px;
      }

      .cls-2 {
        fill: #c20410;
      }

      .cls-3 {
        fill: #ff1204;
      }
    </style>
  </defs>
  <g id="_Слой_1-2" data-name="Слой 1">
    <g id="Layer_1">
      <path class="cls-1" d="m31.77,1.13h-10.59v16.1h3.29v-6.12h5.98v-2.98h-5.98v-4.03h7.3V1.13Zm5.76,0h-3.29v16.1h3.29V1.13Zm14.1,0v9.61L42.29.83h-1.07v16.4h3.29V7.57l9.32,9.96h1.1V1.13h-3.29,0Zm17.37,16.1h3.54L65.38.83h-1.1l-7.2,16.4h3.54l.9-2.1h6.59s.9,2.1.9,2.1Zm-2.05-4.81h-4.3l2.15-5.44,2.15,5.44ZM85.17,1.12v9.61L75.82.83h-1.07v16.4h3.29V7.57l9.32,9.96h1.1V1.12h-3.29Zm14.64-.29c-4.81,0-8.59,3.61-8.59,8.35s3.78,8.34,8.57,8.34c3.12,0,5.73-1.54,7.13-4l-2.49-1.76c-1.07,1.71-2.59,2.71-4.61,2.71-3,0-5.2-2.17-5.2-5.27s2.2-5.32,5.2-5.32c2.03,0,3.54,1,4.61,2.71l2.49-1.76c-1.41-2.46-4-4-7.1-4h0Zm13.2.29h-3.29v16.1h3.29V1.12Zm14.08,16.1h3.54L123.45.83h-1.1l-7.2,16.4h3.54l.9-2.1h6.59l.9,2.1Zm-2.05-4.81h-4.3l2.15-5.44,2.15,5.44Zm11.08-11.3h-3.29v16.1h10.35v-2.98h-7.05V1.12Zm25.94,0h-10.83v16.1h11.13v-2.98h-7.83v-4.07h5.54v-2.81h-5.54v-3.27h7.54V1.12h0Zm15.93,16.1l-5.3-8.2,4.95-7.91h-3.73l-3.07,5.08-3.1-5.08h-3.76l5.03,7.91-5.34,8.2h3.76l3.42-5.34,3.42,5.34h3.73Zm8.25-16.1h-6.05v16.1h3.29v-5.68h2.76c3.39,0,5.81-2.12,5.81-5.22s-2.42-5.2-5.81-5.2Zm0,2.9c1.54,0,2.44.95,2.44,2.29s-.9,2.34-2.44,2.34h-2.76v-4.64s2.76,0,2.76,0Zm22.03,13.2l-4.56-6.32c1.73-.85,2.83-2.51,2.83-4.59,0-3.15-2.42-5.2-5.81-5.2h-6.05v16.1h3.29v-5.68h2.42l4.17,5.68h3.71,0Zm-10.3-13.2h2.76c1.54,0,2.44.95,2.44,2.29s-.9,2.32-2.44,2.32h-2.76s0-4.61,0-4.61Zm23.16-2.9h-10.83v16.1h11.13v-2.98h-7.83v-4.07h5.54v-2.81h-5.54v-3.27h7.54V1.12h0Zm8.2-.29c-3.03,0-5.34,1.78-5.34,4.56,0,2.27,1.61,3.59,3.9,4.64l1.73.78c1.27.59,2.05.95,2.05,2,0,1.12-.88,1.78-2.29,1.78-1.93,0-3.07-1.12-3.95-2.34l-2.27,1.71c1.2,2.15,3.44,3.56,6.22,3.56,3.2,0,5.64-1.83,5.64-4.83,0-2.29-1.44-3.59-3.98-4.71l-1.83-.81c-1.17-.54-1.88-.93-1.88-1.85,0-1.07.93-1.56,2-1.56,1.32,0,2.29.68,3.07,1.85l2.25-1.73c-.95-1.76-2.76-3.05-5.32-3.05h0Zm13.52,0c-3.03,0-5.34,1.78-5.34,4.56,0,2.27,1.61,3.59,3.9,4.64l1.73.78c1.27.59,2.05.95,2.05,2,0,1.12-.88,1.78-2.29,1.78-1.93,0-3.07-1.12-3.95-2.34l-2.27,1.71c1.2,2.15,3.44,3.56,6.22,3.56,3.2,0,5.64-1.83,5.64-4.83,0-2.29-1.44-3.59-3.98-4.71l-1.83-.81c-1.17-.54-1.88-.93-1.88-1.85,0-1.07.93-1.56,2-1.56,1.32,0,2.29.68,3.07,1.85l2.25-1.73c-.95-1.76-2.76-3.05-5.32-3.05h0Z"/>
      <path class="cls-2" d="m194.22,28.84l-1.61-2.68c.62-.16,1.37-.68,1.37-1.86s-.77-1.92-2.49-1.92h-2.44v6.46h1.12v-2.53h1.24l1.51,2.53h1.3,0Zm-1.49-4.45c0,.75-.49,1.15-1.37,1.15h-1.18v-2.37h1.16c1.06,0,1.39.49,1.39,1.22h0Zm6.86,1.87c0-1.52-.82-2.62-2.33-2.62s-2.44,1.03-2.44,2.56.8,2.8,2.7,2.8c.64,0,1.39-.24,1.97-.79l-.34-.5c-.6.45-1.06.59-1.6.59-1.06,0-1.6-.72-1.67-1.75h3.69c.02-.08.02-.17.02-.28h0Zm-1.09-.29h-2.61c.15-1.05.56-1.65,1.32-1.65.89,0,1.21.63,1.29,1.65h0Zm7.19,2.11c-.13.03-.23.03-.34.03-.32,0-.49-.1-.49-.61v-2.24c0-.95-.56-1.58-1.98-1.58-.88,0-1.57.28-2.16.64l.33.71c.49-.31,1.03-.54,1.66-.54.87,0,1.16.36,1.16.66v.32c-2.43.12-3.41.79-3.41,1.89,0,.99.75,1.56,1.71,1.56.68,0,1.32-.16,1.76-.79.07.44.23.8.84.8.36,0,.71-.1.93-.24v-.61s0,0,0,0Zm-1.83-.49c-.35.39-.86.58-1.44.58-.72,0-1-.36-1-.88s.4-1.13,2.44-1.28v1.58h0Zm7.28,1.24v-6.93h-1.02v2.56c-.44-.57-1-.78-1.62-.78-1.39,0-2.17.96-2.17,2.58,0,2.16,1.21,2.64,2.11,2.64.74,0,1.13-.16,1.72-.72l.07.64h.91,0Zm-1.05-1.27c-.31.36-.85.61-1.34.61-.77,0-1.36-.5-1.36-1.91,0-1.27.49-1.87,1.34-1.87s1.22.55,1.36.96v2.21h0Zm7.97-2.92v-.72h-1.55v-1.55h-.85l-.19,1.55h-.86v.72h.86v2.84c0,.97.46,1.41,1.54,1.41.44,0,.76-.06.99-.21v-.63c-.21.07-.4.07-.6.07-.72,0-.9-.27-.9-.82v-2.66h1.55,0Zm5.69,1.65c0-1.56-.99-2.67-2.5-2.67s-2.48,1.11-2.48,2.68.99,2.68,2.48,2.68,2.5-1.12,2.5-2.69h0Zm-1.03.03c0,1.14-.55,2.02-1.47,2.02s-1.45-.9-1.45-2.03.51-2.01,1.45-2.01,1.47.87,1.47,2.02Zm8.94,2.51v-.89h-3v-5.57h-1.12v6.46h4.12Zm5.32-2.58c0-1.52-.82-2.62-2.33-2.62s-2.44,1.03-2.44,2.56.8,2.8,2.7,2.8c.64,0,1.39-.24,1.97-.79l-.34-.5c-.6.45-1.06.59-1.6.59-1.06,0-1.6-.72-1.67-1.75h3.69c.02-.08.02-.17.02-.28h0Zm-1.09-.29h-2.61c.15-1.05.56-1.65,1.32-1.65.89,0,1.21.63,1.29,1.65h0Zm7.19,2.11c-.13.03-.23.03-.34.03-.32,0-.49-.1-.49-.61v-2.24c0-.95-.56-1.58-1.98-1.58-.88,0-1.57.28-2.16.64l.33.71c.49-.31,1.03-.54,1.66-.54.87,0,1.16.36,1.16.66v.32c-2.43.12-3.41.79-3.41,1.89,0,.99.75,1.56,1.71,1.56.68,0,1.32-.16,1.76-.79.07.44.23.8.84.8.36,0,.71-.1.93-.24v-.61s0,0,0,0Zm-1.83-.49c-.35.39-.86.58-1.44.58-.72,0-1-.36-1-.88s.4-1.13,2.44-1.28v1.58h0Zm7.28,1.24v-6.93h-1.02v2.56c-.44-.57-1-.78-1.62-.78-1.39,0-2.17.96-2.17,2.58,0,2.16,1.21,2.64,2.11,2.64.74,0,1.13-.16,1.72-.72l.07.64h.91,0Zm-1.05-1.27c-.31.36-.85.61-1.34.61-.77,0-1.36-.5-1.36-1.91,0-1.27.49-1.87,1.34-1.87s1.22.55,1.36.96v2.21h0Z"/>
      <g id="_2252088389120" data-name=" 2252088389120">
        <path class="cls-3" d="m6.49,1.69c-.77.93-.63,2.34.28,3.14h0l6.5,5.83c.85.74.29,1.97.29,1.97h0l.13.12,1.36-1.69c.33-.41.5-.91.5-1.4h0v-.03c0-.64-.27-1.27-.78-1.72h0l-6.51-5.83c-.85-.75-.29-1.98-.29-1.98h0l-.13-.12-1.36,1.69h0Z"/>
        <path class="cls-3" d="m3.5,5.43c-.77.94-.63,2.34.28,3.14h0l6.51,5.83c.85.74.29,1.97.29,1.97h0l.13.12,1.36-1.69c.76-.93.63-2.34-.28-3.14h0l-6.51-5.83c-.85-.74-.29-1.97-.29-1.97h0l-.13-.12-1.36,1.69h0Z"/>
        <path class="cls-3" d="m.5,9.17c-.33.4-.49.9-.5,1.39h0v.04c0,.64.27,1.27.78,1.71h0l6.51,5.83c.85.75.29,1.98.29,1.98h0l.13.12,1.36-1.69c.76-.94.63-2.34-.28-3.14h0l-6.51-5.84c-.85-.74-.29-1.97-.29-1.97h0l-.13-.12-1.36,1.69h0Z"/>
      </g>
    </g>
  </g>
</svg>