<?xml version="1.0" encoding="utf-8"?>
<!-- Generator: Adobe Illustrator 26.0.3, SVG Export Plug-In . SVG Version: 6.00 Build 0)  -->
<svg version="1.0" id="Layer_1" xmlns="http://www.w3.org/2000/svg" xmlns:xlink="http://www.w3.org/1999/xlink" x="0px" y="0px"
	 viewBox="0 0 908 671.5" style="enable-background:new 0 0 908 671.5;" xml:space="preserve">
<style type="text/css">
	.st0{fill:#3E0189;}
	.st1{fill:#20272D;}
</style>
<path class="st0" d="M780.7,198.5l-43.2,103.8h48L829,198.5H780.7z M723.1,339.5c-0.2,14.3,11.3,26.1,25.6,26.3h0.7
	c15.2,0,27.4-12.3,27.4-27.4c0.2-14.3-11.2-26-25.5-26.2c0,0,0,0,0,0h-0.8c-15.2,0-27.4,12.3-27.4,27.5c0,0,0,0,0,0L723.1,339.5z
	 M679.6,306.6c0-12.6-10.2-22.9-22.9-22.9s-22.9,10.2-22.9,22.9c0,12.6,10.2,22.9,22.9,22.9l0,0
	C669.4,329.5,679.6,319.3,679.6,306.6L679.6,306.6z M550.2,306.6c0-12.6-10.2-22.9-22.9-22.9s-22.9,10.2-22.9,22.9
	c0,12.6,10.2,22.9,22.9,22.9l0,0C540,329.5,550.2,319.3,550.2,306.6L550.2,306.6z M272.6,330.2c-13,0-23.6-10.6-23.6-23.6
	s10.6-23.6,23.6-23.6c13,0,23.6,10.6,23.6,23.6l0,0c0.2,12.9-10.1,23.4-23,23.6H272.6z M79,249.3l48.9,115.5l-17.7,41.6h43l65.2-157
	h-42.8l-26.5,67.2l-26.2-67.2H79z M588.6,306.7c0,33.8-27.4,61.3-61.3,61.3s-61.3-27.4-61.3-61.3s27.4-61.3,61.3-61.3l0,0
	C561.2,245.4,588.6,272.8,588.6,306.7C588.6,306.6,588.6,306.6,588.6,306.7z M718,306.7c0,33.8-27.4,61.3-61.3,61.3
	c-33.8,0-61.3-27.4-61.3-61.3s27.4-61.3,61.3-61.3c0,0,0,0,0,0C690.6,245.4,718,272.8,718,306.7C718,306.6,718,306.6,718,306.7z
	 M347.9,198.5v165.3h40.4v-61c0-11.9,5.8-19,14.9-19s14.2,6.2,14.2,17.6v62.4h40.4v-72c0-27.4-15-45.3-39.2-45.3
	c-11.7-0.5-22.9,4.7-30.2,13.9v-61.9H347.9z M295.3,249.3V260c-7.8-8.9-19.1-13.8-30.9-13.4c-31.3,0-54.9,27.4-54.9,60.1
	c0,32.6,23,60.2,54.9,60.2c11.9,0.5,23.3-4.6,30.9-13.7v10.7h39.1V249.3H295.3z"/>
<path class="st1" d="M499.7,408.9c6.1-0.2,11.9,2.3,15.9,6.9c4.3,6,6.3,13.3,5.7,20.6v34.9H499v-32.5c0-5.4-2.6-8.1-7.5-8.1
	c-2.3-0.1-4.6,0.8-6.1,2.6c-1.5,2-2.2,4.5-2.1,7v31.1H461v-60.5h22.3v5.8C487.1,411.5,493.3,408.5,499.7,408.9z"/>
<path class="st1" d="M550.1,448.6c2.5,4.3,7.4,6.7,12.3,6c3.8,0,7.5-1.3,10.4-3.8l14.6,12.3c-6.8,6.8-16.2,10.4-25.8,9.8
	c-9.2,0.4-18.1-2.9-24.9-9.1c-6.1-5.9-9.4-14.2-9.2-22.7c-0.5-17.3,13.1-31.7,30.3-32.2h1.6c16.9-0.5,31,12.8,31.6,29.7c0,0,0,0,0,0
	c0,0.7,0,1.4,0,2.1c0,2.6-0.3,5.3-0.9,7.9L550.1,448.6z M550.1,434.2h20.3c-1.1-4.6-5.5-7.6-10.1-7c-4.7-0.4-9,2.5-10.5,7H550.1z"/>
<path class="st1" d="M664.9,410.8h23.6L671,471.3h-22.7l-7.5-28.5l-7.5,28.5h-22.7L593,410.8h23.6l7,33.5l9.2-33.5h16.9l9.2,33.5
	L664.9,410.8z"/>
<path class="st1" d="M713.8,428.6c0,1,0.7,1.7,2.3,2.3c1.8,0.6,3.7,1.1,5.6,1.3c2.5,0.3,4.9,0.9,7.2,1.6c2.5,0.8,5,1.8,7.3,3
	c2.4,1.3,4.3,3.3,5.6,5.8c3.3,6.1,3.3,13.5,0,19.6c-1.6,2.8-4,5.1-6.9,6.6c-2.7,1.4-5.6,2.5-8.6,3.2c-3,0.7-6.1,1-9.2,1
	c-14.5,0-24-4.8-28.3-14.4l19.5-8.7c1.1,3.8,4.6,6.4,8.6,6.1c2.7,0,4-0.9,4-2.7s-1-1.9-3-2.6l-7.9-2c-2.9-0.7-5.8-1.6-8.5-2.8
	c-2.9-1.2-5.5-3.3-7.3-5.8c-1.9-3.1-2.7-6.7-2.5-10.2c-0.3-6.1,2.6-11.9,7.6-15.4c5.1-3.7,11.2-5.6,17.5-5.5
	c11.2-1.2,21.8,5,26.1,15.4l-18.3,6.7c-0.9-3-3.6-5.1-6.8-5.1C715,426,713.8,427.2,713.8,428.6z"/>
</svg>
