<?xml version="1.0" encoding="UTF-8" standalone="no"?>
<svg xmlns="http://www.w3.org/2000/svg" width="709" height="142" viewBox="0 0 708.99999 142.00001">
  <path fill="#f36c34" d="M70.146.6159968c-16.071 0-31.404 1.668-42.369 20.6660002v-17.042H0V139.595h29.583V69.976997c0-25.588 13.123-39.68 36.951-39.68a53.263 53.263 0 0 1 9.325.756l1.466.267V.6159968Z"/>
  <path d="M102.476 78.173997C103.523 105.376 116.601 120.288 139.358 120.288c14.65 0 30.344-9.343 30.344-24.939h28.513c0 27.998-29.297 46.65-57.549 46.65-43.683 0-65.657-24.327-65.657-73.244003 0-41.327 23.282-68.2710002 63.565-68.2710002 40.806 0 61.47 26.4180002 61.47 77.6900002zm69.58-17.528c-1.046-25.112-14.649-38.19-34.267-38.19-19.618 0-33.483 14.126-34.528 38.19zM297.375 138.336c-.787-2.355-2.996-14.91-2.996-18.31C286.795 132.842 270.054 142 248.865 142c-31.389 0-45.254-15.174-45.254-37.147 0-36.360003 24.329-41.853003 60.166-46.037003 20.664-2.616 28.773-5.232 29.557-14.125 0-14.386-9.416-22.757-29.034-22.757-20.928 0-29.56 9.416-30.87 25.896h-25.373c.787-27.728 14.91-47.3460002 57.288-47.3460002 41.853 0 55.978 19.0960002 55.978 53.1000002 0 0-.565 59.392003 0 65.255003a177.38 177.38 0 0 0 3.257 19.666zm-3.257-66.311003c-4.187 4.448-13.6 5.493-30.083 7.848-23.018 3.664-32.96 6.149-32.96 22.103003 0 13.341 7.852 20.141 23.806 20.141 20.664 0 37.927-13.864 38.714-33.744003zm123.186-27.334c-1.833-16.218-9.942-23.282-30.87-23.282-18.309 0-27.986 4.448-27.986 16.218 0 12.296 8.368 15.174 29.034 19.357 42.115 9.68 59.904 14.91 59.904 43.947003 0 23.28-19.618 41.069-57.81 41.069-38.453 0-61.733-18.312-62.52-46.824h28.25c0 12.58 13.342 22.887 34.006 22.887 22.76 0 31.653-8.526 31.653-16.087 0-12.816003-13.864-17.003003-31.39-20.664003-46.823-9.154-57.548-20.402-57.548-43.685 0-20.663 16.741-37.1430002 55.194-37.1430002 39.237 0 54.933 16.7400002 56.24 44.2070002zm33.212 26.68c0-42.637 25.895-70.8870002 67.487-70.8870002 40.805 0 66.442 27.9890002 66.442 70.8870002C584.445 113.746 558.549 142 518.003 142c-42.378 0-67.487-29.038-67.487-70.630003Zm106.46 0c0-30.866-13.6-47.608-38.973-47.608-25.373 0-39.237 16.742-39.237 47.608 0 30.605003 13.864 47.607003 39.237 47.607003 25.109 0 38.973-17.002 38.973-47.607003zM660.753.4839968c-7.437 0-14.818.941-21.693 3.9920002-10.046 3.975-17.88 11.25-22.475 23.343v-23.674h-26.154V138.335h27.946V69.279997c0-24.101 9.548-41.33 35.706-41.33 14.127 0 27.64 9.656 27.64 27.728V138.335h27.2V47.045997c0-46.2130002-48.17-46.5620002-48.17-46.5620002z"/>
</svg>