<?xml version="1.0" encoding="UTF-8"?>
<svg id="_Слой_2" data-name="Слой 2" xmlns="http://www.w3.org/2000/svg" viewBox="0 0 1048.11 142.1">
  <defs>
    <style>
      .cls-1 {
        fill: #ee1c25;
      }

      .cls-1, .cls-2, .cls-3, .cls-4, .cls-5, .cls-6, .cls-7, .cls-8, .cls-9, .cls-10 {
        stroke-width: 0px;
      }

      .cls-2 {
        fill: #d12b2b;
      }

      .cls-3 {
        fill: #0059ab;
      }

      .cls-4 {
        fill: #c7c0bb;
      }

      .cls-11, .cls-12, .cls-13 {
        stroke: #000;
        stroke-miterlimit: 81.97;
      }

      .cls-11, .cls-13 {
        stroke-width: 1.05px;
      }

      .cls-12 {
        stroke-width: 2.5px;
      }

      .cls-5 {
        fill: #e9e9e9;
      }

      .cls-6 {
        fill: #fff;
      }

      .cls-13 {
        fill: none;
      }

      .cls-7 {
        fill: #01478d;
      }

      .cls-8 {
        fill: #ece8dc;
      }

      .cls-9 {
        fill: #c7c2c2;
      }

      .cls-10 {
        fill: #990038;
      }
    </style>
  </defs>
  <g id="_Слой_1-2" data-name="Слой 1">
    <g>
      <path class="cls-12" d="m225.23,35.62l-27.48,100.97h25.61l15.82-11.66,1.67,11.66h25.39l3.96-3.33,2.29.21,1.87,3.12h52.26l13.95-10.2-1.67,10.2h24.98l18.74-13.11-3.12,13.11h25.4l26.86-20.19,34.55-70.79,5.63,48.1-12.08,42.88h28.11l20.61-15.82s5.83,13.95,17.9,15.82c3.33.63,8.95.84,8.95.84,4.17,0,6.67-.04,10.83-.84,5.04-.95,7.77-2.15,12.49-4.16,6.62-2.82,16.03-9.16,16.03-9.16l-2.7,13.32h26.64l13.33-9.16-2.29,9.16h58.08l14.16-10.2,3.33,10.2h31.86l25.19-20.19-11.87-55.59,35.6-44.97h-30.19l-15.82,11.87,2.71-12.08h-30.81l-5.63,5s-4.37-2.5-6.24-3.75c-1.88-1.04-6.66-1.04-6.66-1.04h-50.59l-7.5,5.83s-5.2-5.41-12.07-6.87c-11.46-2.7-13.54-1.67-18.95-1.67-9.37,0-19.99,4.38-19.99,4.38l.21-1.88-31.43.21-15.62,12.49-.42-12.49h-30.81l-10.41,7.71,2.92-7.71h-26.86l-13.32,9.58-.42-9.58h-27.48l-10.62,7.91-.83-8.12h-77.03l-3.96,2.09,1.04-2.09-27.27.21-10.62,7.71-1.46-7.92h-29.77l-24.98,19.99h0Z"/>
      <path class="cls-12" d="m792.27,15.68l-23.32,18.53-28.52,102.43h27.48l25.82-19.78,3.74-11.45s5.23.15,8.54-.21c3.04-.33,7.7-1.45,7.7-1.45,0,0-2.71,13.03.84,19.98,4.78,9.38,13.11,12.08,23.73,12.91,9.58.83,14.88-.17,23.73-3.12,8.07-2.69,19.16-10.41,19.16-10.41,0,0,5.17,6.88,9.78,9.58,5.16,3.01,8.85,3.37,14.78,3.95,9.42.93,15.2-.21,23.95-3.95,9.36-3.96,25.19-14.79,25.19-14.79l-4.58,17.91h26.02l25.4-19.37,17.9-62.66,21.45-18.32,5.41-19.78h-59.75l-6.04,4.16s-4.53-2.88-7.7-4.16c-6.47-2.62-10.72-2.81-17.7-2.71-9.02.15-14.5,1.2-22.48,5.42-4.92,2.6-11.45,8.53-11.45,8.53,0,0-3.96-7.7-8.54-9.78-8.12-3.75-13.48-3.82-22.27-3.54-7.88.25-12.48,1.18-19.78,4.16-6.34,2.6-14.99,9.16-14.99,9.16,0,0-2.92-5.41-5-7.7-1.87-2.5-7.49-3.54-7.49-3.54h-51.01Z"/>
      <path class="cls-6" d="m252.38,18.23l-25.4,94.52h19.15l15.41-52.88,5.83,52.88h21.65l27.07-94.52h-19.57l-13.74,45.38-5-45.38h-25.4Z"/>
      <path class="cls-6" d="m324.3,18.23l-25.82,94.52h49.55l5.83-16.66h-27.89l6.66-23.31h25.4l4.99-16.66h-25.81l6.66-20.82h27.9l-5.42,77.45h22.07l24.98-53.3-5.41,53.3h21.24l45.8-94.52h-19.99l-23.31,47.05,4.58-47.05h-21.65l-22.07,46.22,4.58-46.22h-72.87Z"/>
      <path class="cls-13" d="m324.3,18.23l-25.82,94.52h49.55l5.83-16.66h-27.89l6.66-23.31h25.4l4.99-16.66h-25.81l6.66-20.82h27.9l-5.42,77.45h22.07l24.98-53.3-5.41,53.3h21.24l45.8-94.52h-19.99l-23.31,47.05,4.58-47.05h-21.65l-22.07,46.22,4.58-46.22h-72.87Z"/>
      <path class="cls-13" d="m252.38,18.23l-25.4,94.52h19.15l15.41-52.88,5.83,52.88h21.65l27.07-94.52h-19.57l-13.74,45.38-5-45.38h-25.4Z"/>
      <path class="cls-6" d="m551.28,35.41l-16.65,61.21s-1.61,7.81.83,11.66c1.47,2.34,3.06,3.12,5.41,4.58,4.33,2.68,7.45,3.04,12.49,3.74,5.64.79,8.97.52,14.57-.41,4.67-.77,7.39-1.32,11.66-3.33,3.5-1.65,5.38-2.9,8.33-5.42,3.87-3.29,8.33-9.57,8.33-9.99,0,0,8.74-31.23,8.74-30.81l6.67-23.32c-.42,0,3.53-11.45,2.28-16.24-1.87-8.74-7.7-11.03-11.24-11.45-6.66-1.25-8.1-1.2-13.32-1.25-3.58-.04-5.62-.08-9.16.42-4.94.71-7.8,1.36-12.29,3.54-2.96,1.44-4.55,2.48-7.07,4.58-4.72,3.92-9.58,12.49-9.58,12.49"/>
      <path class="cls-6" d="m491.25,18.23l7.5,55.79-10.41,38.73h22.06l10.83-37.48,38.72-57.04h-22.48l-21.24,33.73-2.08-33.73h-22.9Z"/>
      <path class="cls-11" d="m575.25,37.32l-15.41,52.88s-.81,2.66-.21,4.17c.52,1.28,1.27,1.88,2.5,2.49,1.46.73,2.54.49,4.17.42,2-.08,3.32-.13,5-1.25,1.19-.79,1.8-1.45,2.49-2.71.43-.76.21-2.7.83-2.08.21.21,12.08-43.09,12.08-43.09l1.87-7.5s.9-2.03.63-3.33c-.17-.82-.49-1.24-1.04-1.87-1.11-1.26-2.29-1.5-3.96-1.67-1.46-.15-2.32.06-3.75.42-1.27.31-2,.55-3.12,1.25-.92.58-2.08,1.87-2.08,1.87h0Z"/>
      <path class="cls-6" d="m625.53,18.23l-25.82,94.52h22.49l11.24-38.31h9.99s3.05.57,3.75,2.08c.48,1.03,0,2.92,0,2.92l-8.74,33.31h23.73l10-35.39s1.5-4.77,0-7.08c-.82-1.26-1.65-1.7-2.92-2.5-1.35-.86-3.75-1.67-3.75-1.67,0,0,3.67-1.58,5.83-2.91,1.88-1.16,3.02-1.77,4.58-3.33.9-.9,2.08-2.5,2.08-2.5l7.5-25.4s.53-3.37,0-5.41c-.49-1.86-1.02-2.93-2.29-4.37-1.26-1.45-2.26-2.03-3.96-2.92-.94-.49-2.5-1.04-2.5-1.04"/>
      <path class="cls-11" d="m645.47,35.41l-6.87,22.07h11.87s1.94-.79,2.91-1.66c1.47-1.32,1.7-2.58,2.5-4.38,1.01-2.25,1.27-3.64,1.87-6.04.63-2.48,1.64-3.91,1.25-6.45-.17-1.09,0-1.97-.83-2.71-.59-.53-1.09-.69-1.87-.83-.72-.13-1.88,0-1.88,0h-8.95Z"/>
      <path class="cls-6" d="m695.75,18.23l-27.9,94.52h24.36l12.7-41.85,7.7,41.85h25.61l-10.82-52.47,33.31-42.05h-22.07l-28.32,31.23,8.75-31.23h-23.32Z"/>
      <path class="cls-13" d="m695.75,18.23l-27.9,94.52h24.36l12.7-41.85,7.7,41.85h25.61l-10.82-52.47,33.31-42.05h-22.07l-28.32,31.23,8.75-31.23h-23.32Z"/>
      <path class="cls-13" d="m625.53,18.23l-25.82,94.52h22.49l11.24-38.31h9.99s3.05.57,3.75,2.08c.48,1.03,0,2.92,0,2.92l-8.74,33.31h23.73l10-35.39s1.5-4.77,0-7.08c-.82-1.26-1.65-1.7-2.92-2.5-1.35-.86-3.75-1.67-3.75-1.67,0,0,3.67-1.58,5.83-2.91,1.88-1.16,3.02-1.77,4.58-3.33.9-.9,2.08-2.5,2.08-2.5l7.5-25.4s.53-3.37,0-5.41c-.49-1.86-1.02-2.93-2.29-4.37-1.26-1.45-2.26-2.03-3.96-2.92-.94-.49-2.5-1.04-2.5-1.04h-51.21Z"/>
      <path class="cls-13" d="m551.28,35.41l-16.65,61.21s-1.61,7.81.83,11.66c1.47,2.34,3.06,3.12,5.41,4.58,4.33,2.68,7.45,3.04,12.49,3.74,5.64.79,8.97.52,14.57-.41,4.67-.77,7.39-1.32,11.66-3.33,3.5-1.65,5.38-2.9,8.33-5.42,3.87-3.29,8.33-9.57,8.33-9.99,0,0,8.74-31.23,8.74-30.81l6.67-23.32c-.42,0,3.53-11.45,2.28-16.24-1.87-8.74-7.7-11.03-11.24-11.45-6.66-1.25-8.1-1.2-13.32-1.25-3.58-.04-5.62-.08-9.16.42-4.94.71-7.8,1.36-12.29,3.54-2.96,1.44-4.55,2.48-7.07,4.58-4.72,3.92-9.58,12.49-9.58,12.49h0Z"/>
      <path class="cls-13" d="m491.25,18.23l7.5,55.79-10.41,38.73h22.06l10.83-37.48,38.72-57.04h-22.48l-21.24,33.73-2.08-33.73h-22.9Z"/>
      <path class="cls-6" d="m795.03,18.23l-26.44,94.52h22.07l8.74-28.73s17.28.83,21.86,0c3.54-.63,5.81-1.38,9.16-3.13,3.7-1.93,6.02-3.12,8.54-6.45,1.64-2.17,1.97-3.77,3.12-6.24,5.61-12.13,9.58-32.9,9.58-32.9,0,0,1.25-3.95.41-6.45-.41-1.67-.06-2.93-.83-4.58-.75-1.62-1.56-2.38-2.91-3.54-1.5-1.28-2.5-1.46-4.38-2.5h-.83"/>
      <path class="cls-11" d="m813.69,35.41l-8.75,30.4s1.35.77,2.3,1.04c1.41.4,2.28.25,3.74.21,1.8-.04,2.88-.04,4.58-.63,2.41-.84,3.7-1.89,5.21-3.95,1.24-1.71,1.33-3.02,2.08-5,1.74-4.6,3.54-12.08,3.54-12.08,0,0,.76-2.51.83-4.16.06-1.71.66-3.04-.41-4.37-.67-.83-1.34-1-2.3-1.46-3.79-1.86-10.82,0-10.82,0h0Z"/>
      <path class="cls-6" d="m856.33,32.02l-18.53,64.12s-.77,8.11,1.88,12.08c1.56,2.34,3.02,3.29,5.41,4.79,4.28,2.7,7.48,2.85,12.49,3.54,5.63.77,8.96.68,14.57-.21,4.67-.74,7.39-1.29,11.66-3.33,3.53-1.7,5.44-2.98,8.33-5.62,3.59-3.29,7.49-9.58,7.49-10,0,0,9.16-30.6,9.16-30.19l7.08-24.98c-.41,0,2.92-8.49,1.67-13.74-.69-2.86-.83-5.62-3.13-6.87-2.49-1.66-4.49-3-7.7-4.16-4.33-1.57-7.06-1.65-11.66-1.88-5.04-.25-7.95-.11-12.9.84-3.74.71-5.86,1.24-9.37,2.7-4.37,1.83-6.82,3.17-10.41,6.25-2.66,2.28-6.04,6.66-6.04,6.66"/>
      <path class="cls-11" d="m876.91,39.87l-14.57,49.97s-1.25,5.61,1.87,7.07c1.67.63,3.79,1.32,6.25,1.04,2.07-.23,3.74-1.25,4.99-1.87,2.71-1.46,2.71-5.41,3.33-4.79.21.21,12.08-43.09,12.08-43.09l1.87-7.5s1.25-2.5-.83-5.41c-.42-.83-2.44-1.39-4.16-1.67-2.96-.48-5,.42-7.5,1.67-1.66.83-3.33,4.58-3.33,4.58h0Z"/>
      <path class="cls-6" d="m988.92,18.23l-4.37,16.24h14.78l-22.07,78.28h21.86l22.07-77.45h15.82l5-17.07h-53.09Z"/>
      <path class="cls-6" d="m955.4,50.05h22.07s1.5-5.31,2.29-8.74c.74-3.23,1.63-5.02,1.66-8.33.04-3.73.11-6.22-1.87-9.37-1.38-2.19-2.61-3.19-4.79-4.58-2.28-1.45-3.84-1.81-6.45-2.5-2.86-.75-4.56-.82-7.5-1.04-3.8-.29-6-.54-9.78,0-2.15.31-3.3.77-5.42,1.25-2.59.58-4.16.53-6.66,1.46-2.9,1.07-4.33,2.2-6.87,3.95-2.23,1.54-3.49,2.46-5.41,4.38-1.8,1.78-2.93,2.78-4.17,4.99-1.14,2.04-1.42,3.38-2.08,5.62-.61,2.08-.94,3.27-1.25,5.41-.37,2.66-.7,4.24-.21,6.88.38,2.04,1,3.11,1.87,4.99,1.92,4.13,3.94,5.93,6.66,9.58,1.97,2.64,3.09,4.13,5.21,6.66,2.03,2.42,3.4,3.6,5.41,6.04,1.25,1.51,2.11,2.27,3.12,3.95,1.05,1.75,1.72,2.78,2.08,4.79.37,2,.34,3.25-.21,5.21-.43,1.57-.75,2.57-1.88,3.74-1.38,1.44-2.6,2-4.58,2.3-2.03.3-3.41.17-5.2-.84-1.26-.7-2.03-1.23-2.71-2.5-.7-1.3-.62-2.26-.62-3.74,0-1.66.46-2.55.83-4.17.36-1.55,1.04-3.95,1.04-3.95h-22.9s-.83,2-1.25,3.33c-.65,2.07-.81,3.29-1.25,5.41-.66,3.15-1.52,4.9-1.46,8.12.06,2.82.34,4.5,1.46,7.08.94,2.15,1.65,3.36,3.33,5,1.65,1.6,2.93,2.11,5,3.12,3.49,1.7,5.73,2.14,9.57,2.71,4.34.64,6.88.43,11.25,0,4.78-.47,7.56-.85,12.07-2.5,3.41-1.26,5.27-2.22,8.33-4.17,2.97-1.89,4.67-3.04,7.08-5.62,2.47-2.65,3.66-4.42,5.2-7.7,1.62-3.44,2.18-5.61,2.71-9.37.64-4.51.98-7.27-.21-11.66-.9-3.33-2.05-5.04-3.95-7.91-2.29-3.45-4.26-4.88-7.08-7.91-3.02-3.23-5.03-4.77-7.91-8.12-1.97-2.27-3.61-3.27-4.79-6.04-1-2.36-1.67-3.92-1.25-6.45.25-1.47.43-2.45,1.46-3.54.92-.98,1.83-1.09,3.12-1.46,1.34-.37,2.16-.59,3.54-.41,1.62.21,2.59.71,3.75,1.87.92.93,1.36,1.64,1.66,2.91.35,1.5-.04,2.42-.21,3.96-.15,1.63-.25,2.57-.62,4.16-.36,1.5-1.25,3.75-1.25,3.75"/>
      <path class="cls-13" d="m955.4,50.05h22.07s1.5-5.31,2.29-8.74c.74-3.23,1.63-5.02,1.66-8.33.04-3.73.11-6.22-1.87-9.37-1.38-2.19-2.61-3.19-4.79-4.58-2.28-1.45-3.84-1.81-6.45-2.5-2.86-.75-4.56-.82-7.5-1.04-3.8-.29-6-.54-9.78,0-2.15.31-3.3.77-5.42,1.25-2.59.58-4.16.53-6.66,1.46-2.9,1.07-4.33,2.2-6.87,3.95-2.23,1.54-3.49,2.46-5.41,4.38-1.8,1.78-2.93,2.78-4.17,4.99-1.14,2.04-1.42,3.38-2.08,5.62-.61,2.08-.94,3.27-1.25,5.41-.37,2.66-.7,4.24-.21,6.88.38,2.04,1,3.11,1.87,4.99,1.92,4.13,3.94,5.93,6.66,9.58,1.97,2.64,3.09,4.13,5.21,6.66,2.03,2.42,3.4,3.6,5.41,6.04,1.25,1.51,2.11,2.27,3.12,3.95,1.05,1.75,1.72,2.78,2.08,4.79.37,2,.34,3.25-.21,5.21-.43,1.57-.75,2.57-1.88,3.74-1.38,1.44-2.6,2-4.58,2.3-2.03.3-3.41.17-5.2-.84-1.26-.7-2.03-1.23-2.71-2.5-.7-1.3-.62-2.26-.62-3.74,0-1.66.46-2.55.83-4.17.36-1.55,1.04-3.95,1.04-3.95h-22.9s-.83,2-1.25,3.33c-.65,2.07-.81,3.29-1.25,5.41-.66,3.15-1.52,4.9-1.46,8.12.06,2.82.34,4.5,1.46,7.08.94,2.15,1.65,3.36,3.33,5,1.65,1.6,2.93,2.11,5,3.12,3.49,1.7,5.73,2.14,9.57,2.71,4.34.64,6.88.43,11.25,0,4.78-.47,7.56-.85,12.07-2.5,3.41-1.26,5.27-2.22,8.33-4.17,2.97-1.89,4.67-3.04,7.08-5.62,2.47-2.65,3.66-4.42,5.2-7.7,1.62-3.44,2.18-5.61,2.71-9.37.64-4.51.98-7.27-.21-11.66-.9-3.33-2.05-5.04-3.95-7.91-2.29-3.45-4.26-4.88-7.08-7.91-3.02-3.23-5.03-4.77-7.91-8.12-1.97-2.27-3.61-3.27-4.79-6.04-1-2.36-1.67-3.92-1.25-6.45.25-1.47.43-2.45,1.46-3.54.92-.98,1.83-1.09,3.12-1.46,1.34-.37,2.16-.59,3.54-.41,1.62.21,2.59.71,3.75,1.87.92.93,1.36,1.64,1.66,2.91.35,1.5-.04,2.42-.21,3.96-.15,1.63-.25,2.57-.62,4.16-.36,1.5-1.25,3.75-1.25,3.75h.02Z"/>
      <path class="cls-13" d="m856.33,32.02l-18.53,64.12s-.77,8.11,1.88,12.08c1.56,2.34,3.02,3.29,5.41,4.79,4.28,2.7,7.48,2.85,12.49,3.54,5.63.77,8.96.68,14.57-.21,4.67-.74,7.39-1.29,11.66-3.33,3.53-1.7,5.44-2.98,8.33-5.62,3.59-3.29,7.49-9.58,7.49-10,0,0,9.16-30.6,9.16-30.19l7.08-24.98c-.41,0,2.92-8.49,1.67-13.74-.69-2.86-.83-5.62-3.13-6.87-2.49-1.66-4.49-3-7.7-4.16-4.33-1.57-7.06-1.65-11.66-1.88-5.04-.25-7.95-.11-12.9.84-3.74.71-5.86,1.24-9.37,2.7-4.37,1.83-6.82,3.17-10.41,6.25-2.66,2.28-6.04,6.66-6.04,6.66h0Z"/>
      <path class="cls-13" d="m795.03,18.23l-26.44,94.52h22.07l8.74-28.73s17.28.83,21.86,0c3.54-.63,5.81-1.38,9.16-3.13,3.7-1.93,6.02-3.12,8.54-6.45,1.64-2.17,1.97-3.77,3.12-6.24,5.61-12.13,9.58-32.9,9.58-32.9,0,0,1.25-3.95.41-6.45-.41-1.67-.06-2.93-.83-4.58-.75-1.62-1.56-2.38-2.91-3.54-1.5-1.28-2.5-1.46-4.38-2.5h-48.92Z"/>
      <path class="cls-13" d="m988.92,18.23l-4.37,16.24h14.78l-22.07,78.28h21.86l22.07-77.45h15.82l5-17.07h-53.09Z"/>
      <path class="cls-6" d="m201.04,113.48l-.49-1.27-.49-1.29-.49-1.35-.49-1.36-.52-1.39-.52-1.38-.55-1.36-.52-1.38-.55-1.36-.58-1.35-.58-1.33-.58-1.32-.67-1.23-.6-1.18-.66-1.15-.73-1.15-.77-1.13-.81-1.09-.81-1.03-.86-1.03-.92-.98-.93-.92-.94-.92-.98-.87-.98-.8-1-.81-1.01-.75-1.06-.66-1.03-.64-1.07-.61-1.03-.58-.86-.6-.81-.9-.75-1.12-.67-1.23-.58-1.35-.43-1.32-.35-1.24-.15-1.09.43-3.62.61-3.69.69-3.71.69-3.68.72-3.68.7-3.71.6-3.69.43-3.66-.4.08-.46.08-.49.06-.52.02h-1.7l-.55-.02-.58-.02-.61-.02-.52-.08-.58-.08-.52-.11-.49-.08-.46-.17-.4-.15-.72-.29-.69-.34-.72-.34-.7-.4-.66-.46-.69-.46-.64-.46-.64-.55-.6-.52-.61-.58-.55-.58-.57-.6-.52-.66-.49-.64-.52-.64-.46-.66-.84-1.41-.61-1.49-.43-1.59-.76-3.22-.43-1.62-.55-1.46-.81-1.39-.37-.49-.43-.46-.46-.4-.49-.41-1.06-.72-.55-.32-.57-.28-.61-.25-.57-.26-.61-.23-.66-.22-.58-.17-.6-.21-.61-.21-.6-.15-.78-.22-.8-.21-.78-.23-.8-.23-.78-.15-.83-.21-.78-.15-.81-.15-.77-.13-.84-.08-.78-.06-.84-.06-.77-.02h-.84l-.77.02-.84.06-1.15.15-1.15.17-1.15.26-1.13.28-1.18.32-1.12.31-1.13.34-1.12.31-1.12.35-1.12.34-1.12.25-1.15.26-1.12.23-1.16.15-1.12.11-1.18.02-.63-.02-.61-.11-.6-.11-.61-.15-.55-.15-.58-.23-.55-.21-.58-.19-.55-.23-.58-.26-.52-.23-.58-.22-.61-.23-.55-.17-.6-.23-.6-.15-.52-.17-.52-.11-.55-.11-.52-.04-.52-.13-.55-.02-1.03-.17-.52-.06-.58-.02-.51-.08-.52-.08-.55-.04-.52-.13-.52-.11-.55-.15-.55-.21-.57-.23-.55-.28-.58-.35-.52-.34-.52-.37-.58-.37-.52-.37-.58-.34-.52-.32-.58-.31-.55-.26-.58-.17-.55-.17-.6-.02h-.61l-1.27.11-1.2.11-1.12.15-1.06.21-1.03.23-1.05.21-3.08.75-1.12.31-1.18.34-1.29.28-1.39.35-1.56.37-1.64.34-1.84.37-1.01.17-1.18.21-1.24.17-1.29.15-1.41.21-1.42.15-1.47.11-1.5.13-1.47.11-1.5.02-1.44.06h-1.41l-1.36-.08-1.29-.08-1.21-.15-1.06-.17-.92-.19-.89-.23-.9-.23-.86-.26-.86-.28-.84-.31-.86-.29-.84-.28-.8-.4-.84-.31-.81-.35-.81-.37-.8-.37-.78-.4-.84-.41-.77-.37-.81-.4-.77-.37-.84-.41-.78-.37-.78-.43-.83-.37-.81-.37-.8-.37-.84-.35-.83-.37-.81-.31-.87-.34-.86-.31-.87-.29-.86-.25-.92-.26-.89-.21-.89-.13-.92-.04-.87-.06-.89.06-.87.02-.86.02-.86.08-.87.08-.86.06-.86.02-.84.06h-.86l-.87-.06-.88-.08-.87-.17-.52-.13-.49-.15-.49-.21-.49-.17-.49-.22-.46-.24-.49-.22-.43-.21-.46-.23-.46-.26-.43-.22-.46-.26-.46-.22-.43-.23-.46-.23L.07.15l24.03,139.26.8.06.81.02h.81l.84.02.81.06h2.44l.84-.06.77-.02.84-.02.78-.11.8-.08.78-.15.77-.21.78-.17,1.18-.37,1.2-.46,1.16-.49,1.2-.49,1.2-.52,1.21-.52,1.18-.58,1.27-.55,1.18-.55,1.21-.55,1.2-.49,1.21-.49,1.18-.46,1.18-.41,1.18-.37,1.2-.32,1.21-.17,1.26-.11,1.35-.08h1.36l1.43.08,1.42.11,1.47.13,1.47.15,1.47.17,1.44.17,1.47.15,1.38.15,1.39.15,1.32.08,1.26.02h1.23l1.01-.02.96-.08.88-.13.84-.08.75-.17.75-.11.72-.15.72-.13.73-.04.66-.08.75-.02h.75l.81.02.8.11.92.17.98.22,1.18.43,1.12.55,1.16.69,1.03.75,1.07.86,1.03.86,1,.9,1.04.89,1,.86,1,.84,1.07.8,1.04.64,1.09.55,1.12.43,1.2.25,1.21.06,1.03-.06,1.01-.11,1.03-.15,1.01-.23.97-.26.93-.31.97-.34,1.9-.75.92-.43.89-.46.95-.49.9-.51.92-.5.89-.57.89-.52.92-.58.9-.51.88-.55.92-.58.9-.52.89-.57.92-.52.92-.49.95-.49.92-.46.95-.43.95-.43.97-.37.96-.37,1.03-.29,1.01-.25.6-.15.66-.11.76-.11.8-.08.87-.02.8-.04.93.04.86.06.83.11.78.17.75.17.66.26.6.34.49.37.37.46.29.52.04.61-.17.6-.34.64-.52.64-.6.63-.72.64-.75.61-.73.64-.72.6-.6.57-.52.52-.37.52-.17.49.06.46.31.37.58.35,1.09.37,1.18.23,1.12.11,1.2.04,1.24-.13,1.26-.15,1.36-.23,1.35-.31,1.44-.31,1.5-.37,1.52-.37,1.62-.43,1.7-.4,1.73-.4,1.84-.37,1.92-.37,1.24-.22,1.23-.24,1.23-.25,1.18-.26,1.21-.31,1.18-.26,1.15-.28,1.12-.31,1.12-.29,1.15-.31,1.06-.29,1.09-.25,1.1-.31,1.06-.26,1.04-.26,1.05-.25,1.04-.23,1.01-.17,1.03-.21,1.01-.15.98-.15,1-.11.98-.08.98-.02.97-.06.98.06.92.04.98.08.95.15.98.23.92.22.94.29,1.1.43,1.09.44,1.06.49,1.07.52,1.05.58,1.04.58,1,.57,1.04.61.95.66.98.58.94.61.95.58.9.52.89.52.86.49.84.43.49.23.49.17.52.21.52.15.55.15.52.13.58.13.54.08.58.06.61.06h1.23l.64-.06.66-.06.7-.11.66-.15-1.09-.61-1.06-.6-1.04-.64-1-.64-1.01-.69-.95-.67-.92-.71-.92-.73-.89-.75-.86-.75-.84-.81-.81-.77-.83-.78-.8-.83-.76-.84-.75-.83-.75-.86-.72-.9-.69-.86-.69-.89-.67-.95-.69-.92-.67-.95-.64-.95-.66-.98-.64-.94-.63-.98-.63-1.04-.61-1.01-.61-1-.62-1.01-.61-1.07-.49-1.23v-.07Z"/>
      <path class="cls-9" d="m96.04,28.2l.58,1.49.52,1.56.49,1.53.49,1.56.52,1.49.6,1.47.72,1.38.84,1.36.34.43.31.37.87.63.46.29.46.26.49.22.52.26.49.23.49.25.52.26.46.25.49.29.43.32.43.34.37.37.81,1.01.71,1.07.7,1.12.64,1.12.63,1.12.61,1.18.63,1.12.64,1.09-.15-1.32-.08-1.35-.02-1.39-.06-1.36-.17-1.35-.26-1.33-.43-1.23-.6-1.15-.38-.61-.46-.52-.49-.55-.51-.43-.58-.46-.6-.37-.61-.4-.63-.37-.61-.37-.64-.34-.64-.37-.6-.37-.61-.43-.54-.4-.58-.41-.49-.49-.49-.46-.43-.46-.46-.49-.41-.49-.43-.49-.4-.52-.43-.52-.37-.51-.4-.55-1.12-1.55-.37-.49-.37-.55-.43-.52-.37-.49h0Z"/>
      <g>
        <path class="cls-5" d="m12.03,4.02l.06,1.01v3.26l.06,1.09.08,1.03.23,1.01.34.95.4.75.46.74.46.73.43.66.49.66.49.67.49.64.49.63.52.67.46.63.49.64.49.63.46.7.41.69.4.72.37.75.58,1.36.34,1.41.23,1.41.15,1.47.17,1.44.31,1.37.43,1.29.72,1.27.64.46.54-.21.5-.7.4-.89.46-.81.4-.52.46.13.52.89,1.04,2.76,1.03,2.76.98,2.79.89,2.82.89,2.79.86,2.82.81,2.9.75,2.85.67,2.88.69,2.9.55,2.93.51,2.91.49,2.93.43,2.96.35,2.96.25,3.02.38,1.41.63-.67.83-2.33.92-3.48.87-4.15.75-4.34.49-4.03.17-3.26-.11-1.41-.21-1.36-.25-1.39-.35-1.36-.4-1.32-.46-1.35-.43-1.29-.55-1.36-.52-1.32-.51-1.32-.55-1.32-.51-1.32-.43-1.36-.46-1.35-.4-1.36-.35-1.39-.21-1.46-.06-1.68v-3.57l-.08-1.75-.22-1.61-.43-1.44-.78-1.15-.87-.94-.69-.98-.66-.95-.52-1.03-.43-1.04-.38-1.06-.31-1.04-.28-1.09-.26-1.09-.22-1.12-.23-1.12-.26-1.12-.25-1.18-.32-1.15-.37-1.18-.4-1.15-1.07-.49-1.03-.4-1.06-.4-1.05-.32-1.06-.25-1.1-.28-1.03-.17-1.06-.21-1.04-.08-1.03-.08h-2.04l-.98.02-.98.08-.94.15-.93.15h0Zm52.78,126.89l.98.04.98.13.97.11.98.13.98.08.98.11.94.11.98.06,1.04.13.98.08.95.06,1.03.04,1.01.04.97.02h1.01l-.58-1.64-1.27-3.34-.66-1.7-.58-1.69-.46-1.73-.29-1.76-.08-1.76-.02-.69-.11-.63-.17-.64-.32-.58-.34-.55-.37-.58-.43-.49-.46-.52-.49-.49-.52-.49-.97-.97-.46-.52-.43-.49-.37-.52-.35-.58-.69-1.35-.66-1.32-.64-1.29-.61-1.36-.58-1.36-.52-1.41-.4-1.41-.31-1.5-.17-1.47-.08-1.44-.02-1.41v-1.41l-.04-1.41-.06-1.44-.23-1.46-.34-1.5-.4-1.53-.41-1.44-.46-1.26-.49-1.23-.57-1.29-.69-1.36-.84-1.5-.98-1.71-.77-1.12-.24.46.24,1.73.49,2.59.66,3.11.72,3.34.61,3.17.41,2.67-.02,1.07-.17,1.03-.21,1.01-.25.97-.23,1.01-.21.98-.02,1.06.15,1.07.32,1.03.46,1.01.61,1,.69.97.66,1.01.61.98.52,1.01.34,1.06.32,2.01.04,2.07-.04,2.07.02,2.01.24,1.12.28.98.25,1.03.06,1.18-.11.49-.21.46-.26.46-.26.43-.28.49-.28.46-.26.49-.15.49-.4,1.53-.08,1.61.02,1.67-.02,1.61.98.13h-.06Z"/>
        <path class="cls-5" d="m24.34,139.15h.61l.6.02.64.02.6.08.64.04.61.06.64.04.63.08.61.02.64.02.66.06h.58l.66-.06.58-.02.67-.13.61-.11,1.44-.4,1.44-.46,1.44-.49,1.42-.55,1.44-.58,1.42-.6,1.41-.61,1.42-.58,1.44-.67,1.42-.57,1.43-.61,1.42-.57,1.47-.52,1.47-.49,1.5-.46,1.52-.4-.04-2.53-.06-3.14-.17-3.48-.21-3.4-.37-2.96-.6-2.13-.83-.95-1.13.63-1.72,1.99-1.56,1.52-1.42,1.04-1.29.63-1.18.35-1.12.02-1.05-.15-1.07-.37-.95-.49-1.03-.52-1.01-.58-1.01-.52-1.12-.4-1.18-.26-1.23-.11-1.39.17-.95.21-.92.21-.92.28-.89.28-.87.35-.83.34-.81.37-.8.4-.78.4-.8.49-.78.49-.75.52-.75.58-.81.57-.74.58-.76.66.38,2.16.37,2.16.34,2.16.37,2.16.75,4.32.35,2.13.37,2.16v.04Z"/>
        <path class="cls-5" d="m40.25,12.08l.83,1.69.84,1.73.77,1.73.78,1.7.81,1.72.74,1.73.78,1.7.81,1.73.8,1.67.84,1.67.87,1.7.88,1.62.95,1.61.98,1.61,1.07,1.53,1.06,1.56.37.17.46-.31.52-.68.58-.84.51-.81.5-.64.37-.28.25.23.92,2.64.61,2.74.37,2.76.25,2.79.25,2.82.35,2.76.52,2.76.78,2.63.46,1,.52,1.01.6.95.64.95.64.93.72.88.72.92.74.9.73.88.75.93.72.89.73.95.66.92.64.95.6,1,.58,1.01.67,1.32.63,1.32.61,1.36.6,1.36.52,1.38.55,1.39.52,1.35.52,1.39.49,1.41.52,1.39.55,1.39.52,1.36.55,1.35.58,1.36.63,1.32.64,1.29.55.95.61.89.67.92.71.8.76.87.75.84.78.83.75.86.77.81.7.89.66.9.58.89.55.95.41,1,.34,1.01.23,1.09.04,2.01-.34,2.02-.63,1.98-.81,1.95-.94,1.99-.95,1.98-.81,1.98-.61,2.04-.23,1.64-.08,1.74v1.75l-.02,1.72.69-.02.66-.08.67-.02.7-.08.63-.02h.69l.66-.02h.7l.17-1.2.13-1.27.08-1.29.04-1.26.15-1.26.28-1.21.37-1.18.55-1.04.43-.31.58-.02.72.08.81.11.75.11.66.02.49-.21.25-.43.17-1.35-.11-1.36-.31-1.35-.41-1.39-.49-1.36-.4-1.35-.41-1.36-.13-1.36.13-1.62.43-1.67.52-1.64.52-1.67.46-1.61.26-1.59-.06-1.5-.49-1.41-.72-1.07-.81-.91-.92-.87-1-.81-1.1-.71-1.12-.66-1.18-.64-1.15-.64-1.18-.66-1.15-.64-1.12-.66-1.1-.75-.98-.81-.88-.86-.84-.93-.7-1.06-1.06-2.22-.95-2.29-.84-2.28-.71-2.42-.64-2.39-.61-2.42-.52-2.48-.52-2.45-.52-2.48-.55-2.47-.52-2.45-.64-2.42-.69-2.42-.74-2.36-.87-2.33-1.01-2.31-.46-.31-.66.22-.87.58-.89.78-.92.75-.75.55-.55.21-.23-.43-.08-2.13.35-2.13.55-2.16.77-2.13.7-2.13.6-2.13.37-2.13-.02-2.13-.11-1.12-.24-1.15-.26-1.07-.34-1.05-.37-1.1-.41-1.03-.46-1.04-.49-1.04-.49-1.05-.52-1.01-.51-1.03-.52-1.04-.49-1.04-.55-1.06-.43-1.03-.46-1.09-1.39.19-1.35.08-1.39.08-1.36.02-1.41.04-1.36-.08-1.35-.08-1.29-.15-1.32-.17-1.33-.23-1.26-.31-1.24-.31-1.23-.38-1.21-.46-1.2-.49-1.12-.57h0Z"/>
        <path class="cls-5" d="m84.16,17.17l-.23-.34-.25.43-.28.94-.29,1.41-.25,1.62-.17,1.6-.11,1.47v1.09l.15.78.26.75.34.74.46.73.4.75.46.75.37.75.28.81.23,1.29.15,1.18.08,1.12.11,1.03.13,1.03.25,1.03.41,1.07.6,1.12.41.64.46.6.46.61.49.54.46.58.55.52.52.52.57.55.52.51.55.52.58.55.58.52.55.55.57.55.52.61.52.55.43.49.43.51.43.58.43.6.43.64.4.64.46.69.4.66.41.7.43.66.41.69.37.64.37.63.37.61.37.6.34.52.41.71.46.72.4.7.43.72.43.72.43.66.43.73.46.72.4.72.46.67.46.71.49.67.43.72.46.7.49.66.49.69.52.67.64.63.72.61.72.6.67.61.6.63.46.72.22.78.29,2.31.08,2.3-.15,2.27-.19,2.31-.15,2.27.02,2.22.26,2.27.63,2.16.55,1.21.61,1.15.68,1.09.75,1.1.84,1.06.89,1,.93,1.01.92.98.94,1.01.95.97.9,1.01.86,1.06.83,1.03.78,1.09.7,1.12.57,1.21,1.03,2.48.78,2.53.61,2.54.49,2.56.41,2.59.43,2.68.43,2.61.52,2.71,1.04-.49,1-.49,1.01-.49,1-.49,1.04-.4,1.04-.37,1.05-.35,1.04-.25,1.09-.21,1.09-.04h1.12l1.15.11,1.18.26,1.2.37,1.18.55,1.29.69-.75-1.1-.81-1.08-.75-1.04-.75-1-.78-1.04-.74-1.01-.76-1-.77-1.01-.75-.98-.75-1.06-.75-1-.73-1.07-.68-1.03-.73-1.09-.72-1.13-.69-1.18-.52-.92-.52-.98-.52-.97-.49-1.01-.49-.98-.46-1.01-.49-.97-.46-1.03-.43-1.01-.43-1.01-.43-1-.43-1.01-.4-.97-.41-1.05-.37-1-.43-.99-.67-1.49-.72-1.41-.75-1.36-.75-1.32-.77-1.26-.81-1.26-.75-1.24-.75-1.18-.69-1.24-.64-1.29-.55-1.29-.46-1.35-.37-1.44-.28-1.47-.17-1.59v-1.66l-.06-1.79-.31-1.67-.55-1.61-.73-1.56-.89-1.5-1.06-1.44-1.15-1.35-1.2-1.36-1.27-1.35-1.32-1.26-2.57-2.57-1.2-1.29-1.06-1.29-1.04-1.29-.8-1.36-.75-1.36-.87-1.32-.87-1.32-.94-1.26-.98-1.26-1.01-1.29-1-1.24-1.07-1.23-1-1.27-1.06-1.23-1.04-1.23-1.03-1.24-.95-1.23-.95-1.29-.9-1.26-.86-1.3-.55-.8-.49-.87-.52-.92-.49-.91-.49-.98-.43-.98-.46-.98-.46-.98-.4-1-.4-.98-.34-.98-.37-.97-.32-.92-.29-.95-.25-.87-.23-.86h-.01Z"/>
        <path class="cls-5" d="m98.37,14.62l.37,1.2.34,1.23.34,1.27.34,1.26.32,1.3.34,1.23.35,1.26.37,1.29.4,1.23.43,1.18.49,1.21.52,1.18.55,1.06.69,1.09.72,1.01.75.84.78.71.92.67.89.61.99.58,1,.52,1.06.49,1.03.49,1.07.49,1.04.49,1.05.49,1.01.52.98.61.92.61.93.71.8.76.95,1.12.78,1.23.71,1.35.61,1.44.61,1.44.6,1.46.66,1.41.81,1.36.52.77.61.78.61.72.63.75.67.71.69.73.67.66.69.72.67.73.66.72.58.69.6.77.55.78.49.77.43.84.37.86.49,1.84.23,1.87.02,1.93-.11,1.95-.15,1.93-.13,1.96.06,1.92.21,1.87.34,1.59.4,1.53.43,1.58.43,1.55.46,1.5.52,1.53.49,1.56.55,1.49.52,1.5.52,1.5.52,1.53.49,1.5.55,1.5.52,1.53.49,1.53.46,1.5.31.89.46.89.5.83.54.87.61.83.66.84.67.78.66.84.7.77.63.84.64.81.61.83.57.86.49.9.37.92.34.92.26,1.46-.08,1.59-.28,1.7-.37,1.7-.37,1.73-.29,1.67-.06,1.61.24,1.56.28-1.36.46-1.26.55-1.2.68-1.21.64-1.15.61-1.21.49-1.29.34-1.35.25-2.51-.08-2.62-.17-2.71-.23-2.72-.17-2.68.17-2.59.49-2.42,1.04-2.16.63-.46.7.22.71.78.64,1.18.61,1.38.52,1.44.37,1.39.23,1.15.15,1.56.02,1.59-.06,1.55-.15,1.55-.28,1.59-.29,1.58-.34,1.56-.37,1.56-.28.97-.32.99-.37.98-.37.94-.37.98-.4.98-.43.97-.4.98-.46.97-.43.99-.43.94-.43.99-.43.94-.4.98-.75,1.96.37-.35.34-.31.75-.63.34-.32.37-.34.75-.63.37-.29.37-.34.37-.29.37-.31.37-.34.41-.28.37-.29.43-.31.6-1.5.52-1.73.46-1.87.52-1.81.61-1.53.75-1.21.97-.6,1.25.08.97.57.37,1.06-.11,1.39-.43,1.58-.64,1.76-.63,1.82-.55,1.72-.32,1.58.61-1.29.66-1.26.78-1.24.69-1.23.69-1.26.55-1.29.46-1.27.29-1.36.06-1.06-.08-1.03-.23-1.07-.28-1.09-.34-1-.4-1.01-.43-1-.37-.95-.41-1.09-.4-1.1-.46-1.06-.46-1.09-.43-1.07-.46-1.03-.49-1.09-.46-1.06-.43-1.03-.46-1.07-.46-1.03-.43-1.07-.43-1.04-.41-1.09-.4-1.07-.37-1.06-.34-1.06-.26-1.12-.42-2.24-.21-1.18-.25-1.12-.32-1.09-.37-1.1-.49-1.09-.58-1.04-.7-1-.75-1.01-.71-1.06-.67-1.06-.67-1.07-.46-1.18-.55-1.71-.31-1.75-.31-1.75-.26-1.82-.34-1.73-.43-1.72-.67-1.64-.86-1.56-.37-.25-.31.22-.34.64-.32.89-.21,1.06-.22,1.1-.11.97-.04.81.08.86.21.87.28.91.43.92.41.92.46.93.43.92.46.89.37.89.34.87.22.8.15.78-.04.73-.17.63-.37.61-.55.49-.64.28-.61.13-.63-.13-.58-.25-.58-.43-.55-.61-.52-.69-.55-.78-.49-.86-.43-.92-.46-.92-.4-.95-.75-1.84-.31-.81-.28-.78-.17-.88.11-.9.29-.98.37-.95.64-1.95.15-.92-.11-.95-.26-1.12-.23-1.12-.28-1.12-.26-1.18-.31-1.12-.34-1.12-.75-2.24-.4-1.09-.49-1.09-.49-1.09-.52-1.01-.61-1.01-.6-.97-.7-.9-.75-.92-1.26-1.35-1.38-1.24-1.47-1.15-1.49-1.1-1.59-1.06-1.58-1.04-1.65-.97-1.62-.98-1.63-.97-1.62-1.01-1.55-1.01-1.56-1.06-1.5-1.12-1.39-1.21-1.35-1.26-1.23-1.36-1.18-1.81-.92-1.98-.69-2.13-.52-2.25-.46-2.31-.37-2.3-.4-2.25-.49-2.1-.58-.08-.61-.13-.55-.04-.57-.08-.55-.06-.57-.08-.58-.08-.55-.08-.58-.08-.55-.08-.58-.11-.54-.06-.58-.11-.57-.13-.58-.13-.58-.11.41,1.21h.03Z"/>
        <path class="cls-5" d="m116.4,19.5l.94,1.65.96,1.72.95,1.79.92,1.78.94,1.85.95,1.83.95,1.82,1.04,1.75,1.03,1.7,1.12,1.62,1.18,1.52,1.23,1.41,1.32,1.23,1.41,1.06,1.56.93.55.13h.61l1.44-.21.69-.11h.67l.58.13.49.35.81,1.09.55,1.15.43,1.18.35,1.23.32,1.24.37,1.23.55,1.2.75,1.21.32.43.37.43.37.37.41.37.4.31.41.31.46.35.4.28.43.29.43.34.43.31.41.32.75.75.37.43.34.43.55.94.46,1.01.4,1.04.34,1.06.37,1.06.37,1.04.43,1.06.49,1.01.87,1.5.92,1.53.97,1.44,1.01,1.47,1.03,1.44,1.03,1.39,1.1,1.44,1.03,1.41,1.07,1.41,1.06,1.41,1.03,1.44,1.01,1.46.98,1.47.92,1.44.89,1.56.83,1.53.78,1.89.52,2.1.37,2.25.26,2.3.23,2.36.31,2.27.37,2.16.55,1.99.58,1.23.72,1.2.86,1.12.9,1.12.83,1.16.75,1.2.52,1.23.22,1.41-.11,2.51-.37,2.33-.52,2.22-.67,2.11-.75,2.13-.75,2.16-.74,2.28-.67,2.47.31-.04.35-.06.37-.06.37-.13.43-.08.4-.04.4-.13.46-.08.41-.08.43-.08.43-.08.37-.08.43-.13.31-.06.41-.02.28-.08.78-1.36.83-1.26.78-1.24.77-1.26.67-1.18.57-1.33.43-1.37.35-1.5.23-2.57.11-2.59-.06-2.62-.17-2.59-.34-2.57-.43-2.55-.66-2.51-.78-2.45-.46-1.3-.52-1.26-.57-1.21-.58-1.24-.7-1.18-.66-1.18-.78-1.15-.69-1.18-.8-1.12-.76-1.12-.78-1.15-.81-1.15-.75-1.12-1.5-2.25-.72-1.12-.75-1.32-.72-1.47-.75-1.58-.75-1.61-.75-1.74-.78-1.72-.81-1.79-.77-1.78-.83-1.76-.81-1.75-.87-1.7-.86-1.61-.92-1.5-.89-1.44-.95-1.26-.98-1.12-1.12-1.29-.89-1.18-.72-1.09-.49-1.07-.3-1.01-.19-.97-.04-.95.02-.92.08-.9.13-.94.13-.98.13-1.01.08-1.06.02-1.09-.02-1.18-.21-1.29-.11-.37-.26-.23-.31-.06-.4.04-.49.11-.55.23-.58.23-.61.28-.61.26-.63.26-.61.22-.52.15-.52.08-.46-.02-.37-.21-.29-.28-.69-1.5-.26-1.59v-1.7l.17-1.73.22-1.73.21-1.75v-1.7l-.31-1.64-.37-1.06-.37-1.01-.43-1.06-.46-1.01-.52-1-.55-1.01-.52-1.03-.54-.98-.58-1.01-.58-.97-.55-.99-.58-.97-.52-.95-.58-.98-.52-.94-.49-.99-1.38-.02-1.44.02-2.77.42-1.38.34-1.42.35-1.38.4-1.39.43-1.35.43-1.39.43-1.36.37-2.7.64-1.36.17-1.32.11h-1.32l1.04,1.56h.01Z"/>
        <path class="cls-5" d="m158.62,30.53l.49,2.25.41,2.31.46,2.33.4,2.36.37,2.39.43,2.42.41,2.39.4,2.42.46,2.45.49,2.36.49,2.39.58,2.33.57,2.34.67,2.24.7,2.22.8,2.18.67,1.53.75,1.56.83,1.47.86,1.46.95,1.41.92,1.44,1.03,1.39,1.01,1.39,1.04,1.41,1.06,1.36,1.1,1.38,1.03,1.36,1.01,1.39,1.05,1.36.99,1.44.97,1.38,1.01,1.53.98,1.47.97,1.41.98,1.36.97,1.27.93,1.26.95,1.3.89,1.26.92,1.27.86,1.29.87,1.29.86,1.35.78,1.44.83,1.5.75,1.55.75,1.64.52,1.09.63,1.15.75,1.24.84,1.29.89,1.29.98,1.35,1.06,1.41,1.09,1.36,1.12,1.35,1.13,1.36,1.17,1.27,1.12,1.26,1.13,1.21,2.13,2.13,1.01.96-1.12-1.47-1.12-1.59-1.15-1.62-1.12-1.63-1.15-1.71-1.15-1.72-1.12-1.76-1.12-1.78-1.09-1.76-1.12-1.75-1.1-1.79-1.06-1.73-1.04-1.67-1.06-1.67-1-1.61-.98-1.53-1.53-2.31-1.58-2.27-1.61-2.28-1.68-2.24-1.64-2.25-1.67-2.27-1.64-2.25-3.23-4.49-1.55-2.3-1.53-2.34-1.47-2.33-1.38-2.36-1.32-2.39-1.23-2.45-1.16-2.53-1.23-3.45-.92-3.6-.55-3.69-.43-3.73-.26-3.8-.26-3.8-.28-3.8-.46-3.71-.49-.37-.49-.4-.49-.46-.49-.43-.98-.97-.46-.55-.46-.52-.46-.57-.46-.55-.43-.61-.43-.6-.4-.61-.37-.64-.37-.63-.34-.64h-.01Z"/>
      </g>
      <g>
        <path class="cls-1" d="m176.65,50.69l1.47-9.07-.41.08-.46.08-.49.06-.52.02h-1.7l-.55-.02-.58-.04-.61-.02-.52-.08-.58-.08-.52-.11-.49-.08-.46-.17-.4-.13-.72-.29-.75-.34-.66-.34-.73-.41-.69-.43-.66-.49-.64-.46-.63-.49-.67-.55-.55-.55-.61-.58-.52-.61-.55-.6-.52-.64-.43-.64-.46-.64-.84-1.43-.61-1.53-.43-1.61-.37-1.67-.37-1.62-.43-1.58-.55-1.5-.81-1.39-.37-.49-.43-.46-.46-.4-.49-.4-.51-.34-.55-.37-.55-.32-.57-.28-.61-.26-.57-.25-.61-.23-.66-.22-.58-.17-.6-.21-.61-.21-.61-.15-.78-.23-.8-.21-.78-.22-.81-.23-.75-.15-.78-.21-.81-.15-.77-.15-.78-.11-.81-.08-.81-.04-.8-.06-.83-.02h-.81l-.84.02-.86.06-1.15.15-1.15.17-1.15.26-1.12.28-1.18.31-1.13.32-1.12.34-1.12.31-1.12.35-1.12.34-1.12.26-1.15.26-1.13.22-1.15.15-1.12.11-1.18.02-.6-.02-.58-.11-.61-.11-.58-.15-.55-.21-.57-.17-.58-.22-.55-.24-.61-.22-.57-.26-.55-.25-.58-.23-.55-.26-.61-.23-.6-.21-.61-.19-.52-.13-.52-.08-.55-.08-.52-.08-.52-.02-.55-.08-.52-.04-.52-.08-.52-.02-.58-.02-.51-.08-.52-.08-.55-.11-.52-.06-.52-.11-.55-.15-.55-.21-.57-.22-.55-.28-.58-.35-.55-.34-.55-.37-.55-.37-.57-.37-.52-.34-.58-.31-.54-.31-.52-.26-.57-.17-.58-.17-.58-.02h-.57l-1.23.08-1.12.11-1.1.15-1,.15-.98.23-.95.17-.98.28-.92.21-1.03.32-1.01.25-1.09.29-1.18.31-1.23.29-1.41.31-1.47.31-1.64.32.37,1.35.34,1.32.37,1.36.37,1.29.35,1.32.31,1.36.34,1.29.31,1.35,1.01-.08,1-.17,1.06-.17,1.01-.24,1.03-.22,1.07-.23,1.03-.25,1.04-.23,1.03-.21,1.07-.23,1-.21,1.04-.17,1.03-.11.98-.08,1-.02.98.02,1.01.13,1.01.22,1,.29.98.37.98.43.97.43.98.49.97.49.95.49.96.46.97.41,1.03.34.98.28,1.01.21,1.03.11,1.07-.04.83-.04h.78l.84.08.77.04.84.13.78.11.8.17.78.15.77.15.81.17.78.17.83.11.78.15.83.13.78.04.84.06.77.02.84-.02h.81l.8-.08.81-.08.81-.06.81-.11.8-.11.81-.15.83-.15.78-.17.83-.15.79-.17.83-.19.78-.15.83-.21.84-.15.77-.17.84-.17.78-.15.84-.15.77-.15.84-.13.78-.08.84-.11.77-.02.84-.08h1.61l.81.06.81.04.8.08,1.04.15,1,.21,1.04.26,1.01.28.97.37,1.01.46.94.51.99.58.88.67.9.74.92.84.81.95.83,1,.78,1.12.75,1.23.72,1.33,1.32,6.56.17.64.28.57.31.55.37.55.46.49.46.43.52.46.55.37.61.4,1.2.76.64.34.64.35.66.34.64.31.6.34.32.21.43.17.41.15.46.17.97.3.52.13.52.11.55.11.52.02.55.08.58.04h.52l.57-.04.52-.04.52-.06v-.04Z"/>
        <path class="cls-1" d="m173.89,66.38l1.12-7.25-.37.08h-.46l-.43-.06-.46-.04-.52-.13-.49-.17-.52-.15-.55-.17-.55-.21-.52-.17-.49-.22-.55-.21-.43-.17-.46-.21-.46-.15-.37-.15-1.12-.46-.75-.34-.49-.25-.28-.26-.25-.35-.3-.51-.4-.76-.64-1.03-.72-1.18-.4-1.04-.25-1.03-.17-1.01-.11-1-.04-1.1-.21-1.2-.32-1.35-.34-.69-.46-.73-.54-.68-.72-.7-.75-.69-.84-.64-.89-.64-.95-.61-.92-.58-.95-.51-.94-.49-.9-.41-.84-.37-.74-.34-.73-.25-.55-.21-.75-.22-1.44-.42-.67-.15-.69-.11-.66-.13-.7-.13-.64-.08-.63-.02-.69-.02h-2.01l-.72.02-.73.02-.75.06-1.03.15-1.07.17-1.03.23-1.03.26-1.04.28-1,.28-1.04.29-1,.31-1.04.25-1.03.26-1.01.23-1.03.23-1.04.15-1.03.13-1.06.08h-1.65l-.6-.08-.64-.08-.7-.11-.66-.15-.69-.15-.7-.21-.68-.17-.73-.21-.69-.17-.7-.23-.66-.17-.69-.21-.63-.17-.61-.21-.6-.15-.43-.11-.49-.11-.55-.13-.49-.08-.52-.13-.52-.04-.52-.08-.55-.06-.55-.08-.51-.11-.55-.06-.52-.08-.49-.11-.52-.08-.49-.11-.46-.08-.55-.21-.57-.17-.61-.28-.63-.26-.61-.26-.63-.25-.64-.28-.63-.3-.67-.25-.63-.24-.64-.19-.61-.21-.6-.15-.61-.08-.55-.02-.57.02-1.12.06h-2.07l-.92-.06-.92-.02-.86-.02-.87-.08-.86-.02h-1.85l-1,.02-1.04.02-1.12.13-1.26.17-1.32.21-1.52.25.37,1.27.34,1.18.32,1.2.31,1.21.32,1.2.31,1.18.31,1.23.29,1.21.95-.13.94-.04.93-.13.94-.11.92-.15.92-.13.93-.11.94-.08.95-.11.92-.04.92-.08.92-.04.95-.04h.92l.96.04.95.04,1.78.17.86.13.87.21.83.15.84.23.8.22.87.24.83.19.84.29.8.25.87.26.86.29.92.25.9.31.95.26.8.22.83.24.81.19.81.24.8.22,1.56.46.81.17.77.21.81.17.75.17.78.15.76.13.74.11.72.04.75.06h1.56l1.5-.08,1.53-.15,1.52-.21,1.53-.25,1.5-.29,1.55-.31,1.5-.34,1.5-.29,1.5-.28,1.5-.22,1.52-.21,1.47-.15,1.49-.02,1.47.02,1.47.15,1.01.15,1.15.22,1.24.32,1.29.4,1.35.49,1.39.58,1.39.63,1.44.75,1.36.78,1.36.92,1.26.92,1.2,1.01,1.12,1.09,1.01,1.12.86,1.2.72,1.26,1.62,5.76.22.98.17.66.19.43.26.28.37.21.49.22.73.32.97.49.64.35.72.22.7.23.77.15.69.15.75.15.72.21.73.23-.02-.02Z"/>
        <path class="cls-1" d="m176.65,78.69l-.61-.75-.55-.81-.46-.86-.41-.86-.37-.9-.31-.95-.25-.98-.26-.97-.75.04-.6-.08-.55-.08-.43-.15-.37-.15-.34-.17-.25-.21-.26-.21-.37-.21-.46-.31-.52-.4-.51-.49-.52-.64-.55-.72-.43-.87-.37-.97-.21-.58-.15-.62-.15-.64-.17-.66-.08-.67-.17-.63-.13-.61-.08-.52-.22-.67-.37-.66-.46-.58-.52-.55-.6-.52-.7-.46-.69-.43-.72-.37-.81-.37-.75-.35-.77-.31-.75-.26-.73-.26-.66-.22-.61-.21-.58-.21-.75-.22-.71-.23-.73-.23-.66-.19-.64-.24-.69-.19-.63-.23-.64-.17-.7-.15-.63-.13-.67-.13-.69-.13-.72-.06-.69-.02h-.72l-.78.02-1.07.13-1.06.08-1,.11-.99.11-.97.13-.98.06-.95.11-.94.08-.98.13-.98.06-.95.06-.95.04-1.03.06h-3.08l-.61-.06h-.58l-.66.06h-.64l-.63.02h-.63l-.64.04-.7.02h-1.29l-.66-.02h-.64l-.64-.06-.6-.08-.61-.11-.61-.15-.49-.11-.55-.15-.58-.13-.63-.11-.67-.11-.69-.13-.73-.15-.69-.08-.77-.13-.7-.06-.69-.11-.72-.06-.64-.04-.61-.02-.54-.04h-.55l-.92-.04-.72-.08-.61-.17-.4-.23-.34-.28-.24-.35-.3-.69-.15-.31-.19-.34-.17-.26-.31-.26-.41-.19-.52-.13-.68-.02-.87.06-1.12.17-1.1.15-1.09.13-1,.11-1.01.11-1,.08-1.06.11-1.07.08-1.03.13-1.12.11-1.18.04-1.18.13-1.32.11-1.36.11-1.46.13-1.59.11.37,1.09.34.98.37.86.37.87.34.86.35.89.31,1.01.31,1.18,1.04.11,1.05.06h1.13l1.15-.06,1.18-.11,1.21-.11,1.18-.21,1.21-.21,1.2-.22,1.21-.23,1.15-.25,1.12-.26,1.09-.28,1.01-.26.97-.21.95-.23,1.01-.21.89-.11.78-.02h.63l.55.11.49.15.37.21.37.25.32.25.25.29.28.34.26.35.28.34.32.38.37.28.43.34.97.15,1.01.15,1.03.15,1.03.23,1.04.21,1.06.22,1.04.17,1,.23,1.04.17,1,.23.99.17.97.17.89.15.89.11.84.08.78.02,1.52.02,1.5.06,1.5-.06,1.5-.02,1.55-.02,1.5-.08,1.53-.02,1.52-.08,1.5-.02,1.53-.02h3.05l1.5.02,3.02.22,1.49.17.99.11,1,.13,1.1.08,1.09.13,1.12.15,1.15.15,1.12.22,1.18.26,1.09.37,1.06.4,1.07.55,1,.64.95.78.87.92.77,1.03.7,1.2,4.37,7.19.15.32.22.34.23.32.25.37.26.37.23.31.15.26.11.17.32.23.43.23.55.22.55.15.61.08h.6l.52-.08.49-.17.04.03Z"/>
        <path class="cls-1" d="m192.35,92.9l-.34-.43-.31-.4-.34-.43-.35-.43-.34-.46-.32-.43-.34-.46-.37-.46-.37-.43-.37-.49-.43-.46-.41-.49-.4-.46-.49-.43-.46-.49-.52-.46-.8.08-.78.06-.78.04-.72.02-.69.04-.55-.04-.49-.08-.37-.15-.34-.17-.5-.21-.62-.23-.7-.25-.67-.29-.72-.37-.63-.49-.58-.6-.29-.55-.37-.58-.43-.66-.43-.64-.49-.61-.46-.6-.41-.55-.34-.49-.4-.52-.46-.58-.52-.61-.61-.61-.64-.61-.63-.58-.7-.6-.72-.58-.69-.55-.72-.54-.73-.49-.69-.43-.66-.37-.64-.34-.61-.26-.52-.21-.74-.22-.78-.17-.75-.21-.75-.17-.69-.15-.78-.17-.69-.08-.75-.11-.78-.08-.69-.08-.75-.04-.72-.06h-1.5l-.78.06-.75.02-1.03.11-1.07.08-1.01.11-.97.08-1,.11-.99.13-.97.08-.98.13-.98.04-.97.08-.98.08-1,.06-.99.06h-3.11l-1,.02-.81.06-.6.08-.52.08-.52.13-.63.02h-.75l-1.04-.08-.55-.11-.6-.06-.61-.11-.55-.13-.61-.15-.57-.11-.61-.15-.55-.17-.58-.11-.55-.15-.57-.15-.52-.13-.54-.15-.52-.17-.52-.15-.49-.15-.94-.34-.75-.4-.64-.43-.49-.41-.46-.4-.32-.46-.31-.41-.25-.37-.29-.37-.31-.35-.31-.25-.4-.23-.49-.15-.58-.13h-.71l-.87.06-1.21.17-1.26.17-1.33.19-1.35.23-1.39.17-1.44.23-1.41.23-1.52.23-1.5.21-1.53.22-1.59.23-1.55.21-1.56.17-1.62.21-1.58.15-1.59.15.35,1.12.4.98.41.89.49.84.46.84.4.89.43.98.34,1.15,1.06.11h1.23l1.42-.02,1.5-.15,1.59-.21,1.61-.26,1.67-.28,1.7-.34,1.7-.35,1.7-.37,1.61-.34,1.53-.37,1.44-.31,1.29-.34,1.18-.29,1.01-.23.97-.22.87-.08.72.06.54.15.5.23.43.28.31.37.29.46.21.49.19.52.17.51.17.58.17.55.21.55.26.52.28.49.92.15.86.15.78.17.75.15.72.15.66.17.67.17.63.13.64.13.64.11.64.06.63.08h1.44l.78-.02.84-.13.75-.08.75-.11.8-.06.78-.08.8-.08.78-.04.83-.06.8-.06.84-.02.83-.08.81-.02.84-.06.86-.02h.84l.87-.02.83-.06h3.37l.83.06h.81l.84.02.83.02.84.06.8.02.81.02.77.08.78.06.8.08.76.08.74.04.98.17,1.01.15,1.09.23,1.09.26,1.12.25,1.21.35,1.15.37,1.24.4,1.2.46,1.24.52,1.23.55,1.2.61,1.24.66,1.15.7,1.2.75,1.12.8,3.91,5.1.23.21.31.25.49.35.49.37.55.31.43.34.37.31.21.17.17.13.32.15.37.11.46.13.51.11.55.13.61.08.62.08.67.06.63.04.61.06h.55l.49-.06.46-.02.37-.08.25-.08h-.01Z"/>
        <path class="cls-1" d="m15,86.54l.23,1.29.25,1.32.26,1.39.26,1.41.26,1.36.31,1.29.28,1.29,1.18-.11,1.12-.13,1.12-.15,1.09-.17,1.12-.17,1.09-.21,1.1-.17,1.12-.21,1.09-.17,1.07-.23,1.09-.21,1.12-.17,1.09-.21,1.12-.17,1.15-.21,1.16-.15,1.03-.13,1.06-.11,1.01-.11,1.09-.06,1.06-.08,1.03-.08,1.07-.04,1.09-.02,1.04-.06,1.09-.02,1.03-.02h2.16l1.1-.04h1.06l1.06.04h2.19l1.07.02h1.06l1.09.02,1.09.06,1.04.02,1.09.02h1.06l1.07.02,1.05.06,1.04.02,1.09.04,1.07.04,1.03.02,1.06.02.87.06.83.04.87.08.86.06.87.08.86.11.86.08.87.11.86.08.86.11.87.08.86.11.86.13.86.11.87.11.89.11.87.08.86.08.86.11.87.08.86.06.86.08.87.06.89.04.86.04.87.02h.86l.86.06.84-.06h.87l.86-.02.86-.08,1.29-.06,1.27-.11,1.26-.08,1.29-.11,1.29-.13,1.29-.08,1.27-.17,1.23-.17,1.27-.23,1.23-.26,1.26-.31,1.23-.31,1.24-.43,1.15-.43,1.2-.58,1.15-.61.49-.25.51-.23.58-.17.58-.17.57-.08.61-.08.67-.02.58-.04h.66l.58.04.66.06.64.08.61.13.6.11.55.15.58.17.75.34.55.58.49.71.43.78.37.77.49.72.55.58.75.32.72.21.75.13.75.15.75.17.78.11.75.15.77.11.75.04.81.13.75.08.78.06.78.08.8.08.78.02.8.08.78.04.78.02.81.02.77.06.81.02.75.02h.77l.78.04.81.02h.77l.75.02.81.04h.75l.78.04h.75l.74.02.78.02.95.06h.94l.98-.06.95-.02.92-.02.97-.08.96-.06.91-.11.96-.08.97-.13.96-.11.91-.06.96-.13.91-.11.95-.11.95-.08.92-.11.95-.06.95-.08.92-.02.89-.02.95-.06h.95l.92.06.95.02.89.08.95.06.92.13.95.13.89.21.95.23.95.26.67.22.69.37.57.41.67.52.55.61.58.64.55.71.55.75.51.81.52.78.52.78.55.83.49.78.52.78.49.69.52.69.61.64.63.61.7.55.75.49.78.37.81.23.8.08.81-.15-.37-1.18-.43-1.12-.41-1.12-.4-1.1-.46-1.09-.41-1.09-.43-1.12-.37-1.1-.87-.08-.87-.17-.83-.15-.78-.15-.77-.23-.81-.17-.72-.29-.69-.28-.7-.28-.64-.37-.64-.4-.6-.43-.52-.51-.55-.58-.49-.6-.43-.67-.15-.32-.24-.34-.31-.41-.37-.46-.37-.49-.43-.52-.49-.54-.49-.55-.55-.52-.52-.49-.51-.49-.49-.4-.52-.37-.49-.31-.46-.21-.41-.17-.86-.17-.86-.15-.87-.17-.86-.15-.84-.15-.83-.11-.78-.11-.83-.11-.79-.13-.83-.04-.78-.08-.81-.08-.77-.06-.81-.08-.78-.04-.75-.06-.78-.02-.8-.08-.78-.02-.83-.04-.78-.04-.81-.02h-.8l-.81-.02-.83-.02-.86-.06-.81-.02-.86-.02-.87-.06-.86-.02-.92-.04-.9-.04-.86-.02h-3.45l-.86.02h-.88l-.88.04h-.87l-.86.04-.92.02-.86.06-.9.02h-.86l-.86.02h-.9l-.86.06h-4.41l-.86-.06-.86-.02-.87-.08-.86-.02-.86-.08-.87-.13-.86-.08-.84-.13-.86-.17-.81-.13-.72-.35-.49-.58-.43-.81-.3-.88-.34-.9-.32-.86-.43-.72-.61-.49-.43-.24-.43-.19-.43-.15-.43-.11-.4-.06-.4-.04-.43-.02-.41.02-.4.04-.43.02-.4.08-.41.11-.46.08-.4.11-.46.17-.46.15-1.2.49-1.15.43-1.21.43-1.15.34-1.18.29-1.18.25-1.18.23-1.16.23-1.18.17-1.15.17-1.21.15-1.15.11-1.18.13-1.2.15-1.15.11-1.2.13-.81.04-.84.13-.86.02-.83.08-.87.08-.87.02-.86.02-.86.06h-.89l-.86.02h-4.44l-.89-.02h-.93l-.86-.06-.89-.02h-.89l-.87-.02-.92-.06-.86-.02-.89-.04-.87-.04-.86-.02-1.73-.06-.83-.06h-.86l-.84-.02-.81-.02-2.47-.13-1.21-.08-1.24-.13-1.2-.11-1.23-.11-1.21-.13-1.18-.15-1.2-.11-1.23-.15-1.21-.13-2.41-.3-1.18-.13-1.21-.15-1.15-.11-1.2-.13-1.2-.11-1.21-.11-1.18-.13-1.18-.08-1.2-.02-1.18-.08h-1.21l-1.2-.04h-1.15l-1.2.04-1.21.08-1.2.08-1.18.04-1.2.17-1.21.15-.9.13-.88.04-.92.08-.9.06-.86.08-.9.08-.92.11-.88.06-.87.15-.89.17-.92.17-.9.23-.94.25-.9.32-.95.37-.92.4.26,1.2v.16Z"/>
        <path class="cls-1" d="m18.61,107.54l.31,1.44.34,1.53.37,1.61.37,1.65.35,1.56.34,1.52.31,1.29,1.12-.22,1.15-.21,1.18-.21,1.21-.15,1.2-.21,1.21-.11,1.18-.15,1.2-.15,1.18-.15,1.12-.17,1.09-.15,1.04-.17,1-.21.95-.22.89-.21.81-.32,1-.37,1.01-.34,1.01-.29,1.06-.31,1.03-.26,1.07-.21,1.09-.23,1.09-.21,1.07-.17,1.1-.17,1.12-.15,1.15-.15,1.12-.11,1.09-.11,1.15-.11,1.12-.06,1.12-.08,1.12-.11,1.15-.08,1.12-.06,1.12-.08,1.12-.04,2.25-.17,1.09-.08,1.12-.08,1.09-.11,1.09-.15,1.09-.11,1.04-.15,1.06-.17,1.04-.17,1.8-.32,1.71-.17,1.64-.11,1.62-.08h1.49l1.47.08,1.39.11,1.36.15,1.32.22,1.24.23,1.21.29,1.15.34,1.09.34,1.1.37,1.06.37.95.41.97.43.98.4.92.41.89.37.9.43.86.37.84.31.86.34.83.31.81.29.81.23.84.17.8.17.83.04.84.06.86-.06,1.24-.11,1.18-.15,1.15-.17,1.12-.21,1.04-.23,1-.26,1.03-.28.99-.31.98-.34.94-.37.98-.4,1.03-.46,1.01-.52,1-.52,1.1-.58,1.09-.63,1.03-.52.58-.26.55-.22,1.15-.46,1.15-.3.6-.15.55-.08.61-.08.6-.02h.58l.55.02.58.11.54.13.78.37.52.61.37.72.29.75.34.78.37.72.52.52.73.34.75.21.74.13.8.15.78.11.83.11.84.13.86.08.81.02.86.04.92.06h3.57l.87-.06.88-.04.9-.02.89-.13.92-.08.87-.11.88-.11.87-.15.86-.11.86-.17.84-.17.83-.17.81-.21.81-.22.75-.21,1.5-.46.73-.26.88-.31.87-.25.89-.24.96-.17.88-.13.95-.13.89-.13.95-.02.92-.06h.95l.96.06.92.06.94.08.98.04.92.17.98.08.95.17.98.17.94.19.95.23.95.17.98.23.95.25.98.23.91.26.98.22.95.26.92.26.95.25.95.26.92.23.95.26.75.26.72.34.67.46.64.52.6.58.58.64.55.66.55.72.52.72.52.75.49.72.52.75.49.66.54.7.55.64.58.6.6.58.64.64.72.61.69.52.75.46.81.26.75.11.75-.21-.37-.4-.46-.49-.44-.58-.49-.55-.49-.6-.55-.64-.46-.69-.55-.67-.49-.69-.49-.66-.43-.73-.43-.69-.37-.63-.31-.64-.28-.64-.21-.58-.83-.11-.75-.15-.64-.11-.58-.15-.52-.15-.46-.15-.41-.22-.34-.26-.34-.28-.32-.37-.31-.37-.34-.49-.31-.52-.35-.6-.37-.72-.46-.78-.46-.77-.55-.92-.63-.9-.75-.89-.76-.83-.83-.67-.8-.55-.75-.26-.87-.17-.89-.22-.87-.21-.86-.23-.86-.17-.86-.23-.87-.17-.86-.23-.84-.21-.86-.17-.87-.21-.8-.15-.87-.21-.83-.15-.87-.15-.83-.11-.84-.11-.86-.11-.81-.06-.86-.08-.83-.02-.84-.06h-.86l-.81.06-.86.02-.87.08-.83.06-.87.15-.86.17-.87.17-.86.21-.86.26-.83.26-.87.22-.86.17-.87.23-.89.15-.9.21-.91.15-.92.13-1.84.21-.98.06-1.9.17-.94.02-.96.02h-.97l-.99.04-.94-.04h-.95l-.95-.02-.98-.02-.94-.08-.93-.02-.94-.08-.92-.11-.92-.06-.93-.11-.92-.11-.86-.15-.89-.11-.84-.17-.86-.15-.67-.34-.49-.58-.35-.8-.25-.9-.25-.89-.35-.86-.4-.73-.64-.49-.46-.19-.46-.15-.43-.11-.49-.11-.49-.02-.49-.02-.49.02-.49.02-.52.04-.49.08-.46.11-.49.17-.46.17-.43.21-.43.21-.4.23-1.18.75-1.13.69-1.06.64-1.07.58-1,.49-1,.43-1.07.34-1,.3-1.01.21-1.06.11-1.1.06-1.12-.04-1.2-.13-1.18-.24-1.33-.28-1.35-.43-.81-.21-.77-.28-.84-.17-.81-.23-.83-.17-.86-.21-.88-.19-.88-.17-.92-.15-.9-.17-.95-.15-.92-.11-.97-.15-1.01-.11-.98-.13-1.01-.04-1.05-.13-1.07-.08-1.06-.06-1.09-.06-1.12-.04-1.15-.06-1.15-.02-1.21-.02-1.18-.06h-2.45l-1.29-.02-1.27.02h-2.66l-1.36.06-1.23.02-1.18.02-1.23.06-1.2.04-1.21.06-1.21.06-1.18.08-1.21.06-1.18.08-1.18.11-1.18.08-1.15.08-1.18.08-1.18.11-1.18.13-1.15.13-1.18.11-1.15.15-1.18.11-1.16.13-1.18.15-1.15.11-1.15.15-1.18.15-1.15.17-1.18.08-1.2.17-1.15.15-1.21.15-1.15.15-1.2.17-1.21.15-.92.11-.95.11-.94.06-.92.08-.99.06-1,.04-.97.06-1.01.08-1.03.08-1.01.08-1.01.11-1.01.17-1.06.17-1.04.21-1.03.26-1.03.25.34,1.26v.04Z"/>
        <path class="cls-1" d="m24.34,139.36h1.52l.81.04h3.23l.84-.04.81-.02.8-.02.81-.08.8-.04.78-.13,1.5-.34.78-.21,1.18-.38,1.23-.37,1.21-.43,1.2-.49,1.2-.54,1.18-.52,1.21-.52,1.23-.58,1.21-.52,1.21-.52,1.18-.49,1.2-.49,1.21-.46,1.2-.41,1.24-.37,1.18-.31,1.2-.22,1.23-.15,1.32-.06h1.36l1.39.02,1.44.08,1.41.11,1.47.17,1.47.15,1.44.17,1.47.17,1.38.15,1.39.11,1.32.13,1.26.02h1.23l1.07-.02.97-.06.9-.06.83-.11.78-.11.72-.11.73-.13.69-.13.69-.11.72-.02.7-.04h.77l.75.04.81.11.92.17.98.22,1.18.43,1.12.55,1.16.68,1.03.75,1.06.81,1.04.86,1,.9,1.04.89,1,.87,1,.83,1.07.75,1.04.64,1.09.54,1.12.38,1.2.28,1.21.04,1.03-.02,1.01-.11,1.03-.15,1.01-.21.98-.25.97-.29.92-.34.98-.34.95-.4.92-.43.92-.49.93-.43.91-.52.89-.55.9-.52.92-.52.89-.58.89-.55.92-.55.89-.55.96-.57.88-.52.9-.52.94-.55.9-.49.95-.49.92-.43.98-.43.95-.37.97-.37.98-.28,1.01-.29.6-.13.66-.11.75-.11.84-.04.83-.06h1.76l.87.06.84.11.83.17.75.17.66.23.58.34.49.37.37.4.24.52.04.66-.17.64-.34.63-.49.67-.61.67-.73.63-.72.63-.69.61-.72.61-1.12,1.12-.37.49-.21.49.02.4.31.37.55.32,1.08.37,1.18.21,1.12.11,1.2.06,1.23-.08,1.27-.15,1.36-.21,1.35-.28,1.44-.31,1.5-.37,1.53-.37,1.61-.41,1.7-.4,1.73-.37,1.84-.43,1.92-.31,1.24-.23,1.23-.23,1.23-.25,1.18-.26,1.21-.31,1.18-.26,1.15-.28,1.12-.31,1.12-.3,1.15-.31,1.06-.29,1.09-.31,1.1-.25,1.05-.26,1.04-.26,1.06-.26,1.04-.22,1.01-.23,1.03-.17,1.01-.17.97-.15,1.01-.11.98-.11.98-.02.97-.02.98.02.92.02.98.11.94.11.99.21.92.26.94.26,1.1.4,1.09.49,1.06.55,1.07.52,1.06.61,1.04.55,1,.63,1.04.61.94.6.99.64.94.57.96.61.89.51.89.52.86.49.84.43.49.22.49.17.52.19.52.15.55.15.52.15.58.11.55.08.58.06.6.04h1.23l.64-.04.66-.06.7-.11.66-.15-.81-.43-.8-.43-.78-.46-.8-.49-.76-.49-.75-.49-.72-.49-.74-.52-.73-.52-.66-.55-.73-.55-.66-.58-.7-.55-.63-.61-.67-.61-.66-.61-.64.08-.63-.06-.58-.11-.52-.21-.52-.31-.49-.37-.49-.4-.46-.49-.43-.46-.46-.49-.46-.52-.43-.46-.46-.43-.47-.43-.43-.34-.49-.3-.84-.37-.78-.37-.8-.37-.78-.37-.81-.37-.8-.43-1.62-.76-.83-.37-.87-.37-.88-.4-.93-.37-1.96-.75-1-.37-1.09-.37-.9-.31-.86-.23-.86-.19-.78-.21-.8-.15-.75-.15-.73-.08-.69-.08-.72-.02-.7-.02-.66.02h-.7l-.66.08-.69.06-.66.08-.7.11-.66.15-.72.11-.72.15-.75.21-.75.17-.84.21-.78.17-.86.23-.9.22-.94.23-.98.23-1,.21-1.07.23-1.12.26-1.15.22-1.24.23-1.87.34-1.72.37-1.65.37-1.5.37-1.38.34-1.27.32-1.21.31-1.18.25-1.06.21-1.06.15-1.01.04-1.01-.02-.98-.11-1-.23-1.04-.31-1.03-.46-1.18-.72-.97-.86-.81-.98-.69-1.03-.55-1.09-.55-1.13-.43-1.05-.49-.99-.34-.43-.4-.32-.46-.17-.49-.08h-.52l-.58.08-.61.15-.6.17-.64.22-.64.26-.63.26-.63.31-.64.23-.61.26-.6.17-.58.17-.98.26-.92.29-.93.31-.86.31-1.62.64-.77.4-.72.31-.72.37-.72.34-.67.37-.66.37-.67.37-.63.34-.67.37-.63.35-.67.31-.63.35-.64.34-.7.29-.66.31-.66.25-.73.26-.75.26-.75.22-.8.21-.78.17-.86.15-.92.11-.9.11-.97.04-1.01.04-1.23-.04-1.12-.17-1.09-.28-1.07-.43-.97-.49-.92-.61-.9-.6-.92-.67-1.78-1.38-.95-.69-.95-.64-.98-.6-1.03-.55-1.12-.49-1.18-.37-1.01-.28-.97-.21-.92-.17-.96-.04-.88-.08h-.87l-.86.02-.86.08-.92.08-.87.06-.89.11-.9.13-.94.08-.98.11-1.04.06-1.06.06h-1.2l-1.27-.06-1.26-.06-1.33-.04-1.32-.06-1.38-.08-1.35-.02-1.36-.08h-4.11l-1.33.08-1.32.06-1.27.17-1.29.17-1.18.25-1.23.26-1.24.31-1.23.28-1.24.37-1.29.37-1.26.37-1.29.43-1.26.4-1.26.46-1.29.41-1.27.46-1.26.4-1.23.43-1.23.37-1.27.37-1.23.37-.75.17-.75.21-.78.11-.81.11-.78.06-.77.08-.84.04-.83.06-.81.02h-.84l-.83.04-.84.04h-.8l-.81.02-.81.08-.81.02,1.82,11.51h.03Z"/>
      </g>
      <path class="cls-7" d="m69.94,13.35l-1.2.21-1.36.23-1.44.17-1.5.21-1.58.17-1.62.17-1.61.15-1.65.11-1.61.06-1.58.08h-2.96l-1.36-.11-1.23-.13-1.12-.17-.93-.21-1.78-.46-.87-.25-.86-.28-.83-.26-.87-.34-.83-.29-.81-.34-.84-.37-.81-.35-.8-.37-.81-.37-.77-.37-.84-.37-.78-.43-.8-.37-.78-.41-.84-.37-.77-.37-.78-.37-.83-.37-1.62-.75-.84-.34-.83-.34-.81-.31-.87-.31-.86-.29-.86-.32-.87-.25-.92-.23-.88-.22-.9-.15-.92-.06-.86-.08h-.9l-.86.02-.86.04-1.73.13-.86.04-.87.04-.84.04h-.86l-.86-.04-.89-.08-.87-.17-.52-.15-.49-.15-.49-.21-.49-.17-.49-.23-.46-.23-.49-.23-.43-.21-.46-.23-.46-.25-.43-.23-.46-.26-.46-.22-.43-.23-.46-.23-.46-.23,12.87,74.46,1.67-.28,1.67-.26,1.64-.22,1.61-.24,1.59-.17,1.52-.17,1.53-.15,1.5-.11,1.5-.06,1.44-.11,1.41-.02,1.39-.06,1.35-.02h2.68l1.32.02h1.24l2.48.11,1.2.02,1.15.08,1.12.08,1.12.06,1.12.08,1.07.04,2.1.17,1.01.06.98.11.97.06.95.06.92.08,1.53.11,1.42.15,1.43.11,1.35.15,1.3.15,1.32.13,1.24.13,1.23.17,1.21.13,1.2.15,1.15.11,1.12.13,1.12.08,1.15.11,1.12.13,1.12.08,1.09.08,1.12.02,1.09.02,1.12.02,1.12.04,1.15-.04h1.18l1.21-.02,1.18-.04,1.23-.08,1.24-.13,1.32-.11,1.32-.15,1.39-.21,1.38-.19,1.47-.23-1.76-3.71-1.7-3.77-1.62-3.8-1.58-3.73-1.52-3.8-1.47-3.82-1.38-3.83-1.42-3.82-1.36-3.83-1.29-3.88-1.32-3.88-1.27-3.89-1.29-3.88-1.23-3.94-1.27-3.91-1.29-3.94-1.06.17v.04Z"/>
      <g>
        <path class="cls-3" d="m39.82,11.86l-.49-.22-.46-.24-.46-.22-.49-.23-.43-.22-.49-.21-.46-.26-.49-.23-.49-.23-.43-.25-.49-.23-.46-.26-.46-.25-.49-.24-.43-.25.66,1.86.69,1.9,1.27,3.79.63,1.93.63,1.91.64,1.92.67,1.91.63,1.92.67,1.9.72,1.93.72,1.87.75,1.86.78,1.85.83,1.84.9,1.84.34.64.43.58.43.57.49.52.52.52.58.49.6.49.61.46.55.49.6.49.58.49.55.52.55.52.52.58.41.55.43.64.66,1.63.49,1.67.35,1.7.28,1.76.26,1.73.34,1.69.49,1.65.66,1.56.61,1.01.66.97.64.94.72.93.69.94.72.9.75.86.76.92.8.87,1.5,1.72.78.9,1.5,1.72.72.87.72.89h1.15l.4.06h.78l.37.02h.75l.4.02h.78l.37.02h1.18l-.17-.28-.13-.35-.17-.31-.15-.35-.34-.69-.15-.32-.17-.31-.58-.99-.61-.92-.63-.95-.73-.89-.72-.95-.69-.86-.75-.89-.78-.93-.75-.88-.69-.9-.72-.92-.64-.92-.66-.95-.55-.98-.49-1-.46-1-.78-2.6-.57-2.7-.31-2.79-.29-2.82-.28-2.79-.37-2.79-.58-2.74-.87-2.67-.26-.23-.37.28-.49.64-.55.81-.57.84-.58.68-.52.32-.4-.17-1.07-1.56-1.01-1.53-.97-1.61-.9-1.61-.88-1.62-.84-1.7-.83-1.67-.78-1.67-.8-1.72-.78-1.71-.75-1.72-.81-1.73-.78-1.69-.77-1.74-.84-1.72-.83-1.7-.43-.21-.02.03Z"/>
        <path class="cls-3" d="m10.76,3.8l-.37-.06h-.34l-.37-.02-.35-.02-.37-.04-.34-.04-.37-.06-.37-.08-.41-.08-.4-.04-.46-.08-.49-.11-.49-.13.31,1.73.15,1.7.02,1.7-.02,1.66.02,1.68.08,1.7.25,1.65.49,1.69.28.75.69,1.5.4.72.41.72.43.7.43.72.46.72.4.72.46.72.46.7.4.71.4.73.37.75.35.75.34.75.4,1.06.43,1.12.31,1.1.32,1.12.29,1.15.25,1.18.31,1.15.26,1.12.29,1.18.34,1.12.37,1.09.37,1.1.46,1.03.52,1.01.58.94.66.95.46.26.46-.35.49-.75.52-.97.52-.98.51-.77.55-.46.55.11.89.89.66,1.07.43,1.23.34,1.26.23,1.39.23,1.36.25,1.35.37,1.29.4,1.27.46,1.26.41,1.33.46,1.26.4,1.32.46,1.35.46,1.32.43,1.29.43,1.33.43,1.32.46,1.36.46,1.26.41,1.32.46,1.29.43,1.29.43,1.27.41.02.46.06h1.76l.4.02.37.02-.31-2.59-.41-2.53-.43-2.59-.49-2.56-.52-2.53-.58-2.54-.61-2.53-.63-2.51-.72-2.54-.72-2.5-.75-2.48-.78-2.44-.84-2.48-.86-2.45-.86-2.44-.9-2.4-.52-.86-.46-.02-.4.49-.46.81-.4.86-.49.72-.55.25-.64-.43-.72-1.29-.43-1.39-.31-1.38-.17-1.47-.15-1.44-.23-1.41-.34-1.36-.58-1.29-.37-.75-.4-.72-.46-.69-.43-.7-.49-.63-.49-.64-.49-.63-.49-.67-.52-.63-.49-.64-.49-.67-.49-.66-.46-.66-.46-.73-.4-.74-.37-.75-.34-.99-.23-1-.08-1.09-.06-1.09v-3.34l-.06-1.01h-1.2l.02-.02Z"/>
      </g>
      <g>
        <path class="cls-4" d="m31.76,35.41l1.29-1.26,2.28,1.76-1.44-2.62,1.27-1.15-2.1-.31-1.47-2.65.17,2.51-2.13-.49,2.13,1.93v2.3h0Z"/>
        <path class="cls-4" d="m57.85,39.02l.95-1.12,1.96,1.61-1.12-2.25.98-1.36-1.82-.15-1.44-2.33.17,1.97-1.82-.13,1.95,1.63.17,2.1h.01Z"/>
        <path class="cls-4" d="m22.21,26.5l1.47-1.29,2.16,1.93-1.32-2.76,1.32-1.15-2.16-.49-1.47-2.47v2.3l-2.1-.31,2.1,1.76v2.5Z"/>
        <path class="cls-4" d="m49.79,31.59l.98-1.32,1.95,1.81-1.33-2.47,1.13-1.29-1.93-.17-1.15-2.45v2.17l-1.95-.35,1.95,1.78.35,2.31h0Z"/>
        <path class="cls-4" d="m61.88,33.29l.98-1.15,1.95,1.67-1.47-2.34.97-1.15-1.8-.35-1.12-2.1v1.96l-1.62-.35,1.95,1.7.15,2.1h0Z"/>
        <path class="cls-4" d="m35.37,48.99l1.29-1.47,2.45,1.81-1.64-2.62,1.32-1.33-2.13-.34-1.29-2.62v2.48l-2.1-.34,2.1,2.01v2.42h0Z"/>
        <path class="cls-4" d="m61.88,51.75l.98-1.3,1.95,1.61-1.32-2.44.98-1.5-1.76-.17-1.32-2.31.13,2.16-1.89-.17,1.89,1.78.35,2.34h0Z"/>
        <path class="cls-4" d="m65.49,45.38l.98-1.15,1.92,1.63-1.29-2.44.98-1.36-1.95-.15-1.12-2.48.13,2.13-1.8-.15,1.95,1.62.21,2.33h0Z"/>
        <path class="cls-4" d="m38.97,62.99l1.29-1.5,2.31,1.64-1.47-2.62,1.27-1.67h-2.1l-1.47-2.76v2.59l-2.1-.15,2.1,1.84.17,2.62h0Z"/>
        <path class="cls-4" d="m65.7,64.47l.98-1.32,2.1,1.67-1.61-2.45,1.12-1.64h-1.96l-1.12-2.68.15,2.48-1.95-.15,1.95,1.81.35,2.27h0Z"/>
        <path class="cls-4" d="m69.52,57.9l.98-1.32,1.95,1.61-1.47-2.48.97-1.46-1.75-.15-1.18-2.48v2.48l-1.76-.15,1.95,1.62.29,2.33h0Z"/>
        <path class="cls-4" d="m27.09,21.41l1.32-1.15,2.1,1.81-1.47-2.64,1.32-1.13-2.16-.34-1.27-2.61v2.29l-2.1-.49,2.24,1.96v2.31h0Z"/>
        <path class="cls-4" d="m54.25,27.14l1.15-1.12,1.93,1.68-1.29-2.34.98-1.15-1.95-.37-1.12-2.25.15,1.95-1.96-.34,1.96,1.84.17,2.1h0Z"/>
        <path class="cls-4" d="m73.76,72.54l.81-1.5,1.95,1.5-1.32-2.48.97-1.5-1.78-.15-1.29-2.45.17,2.45-1.82-.21,1.82,1.84.49,2.48v.02Z"/>
        <path class="cls-4" d="m19.46,13.14l1.29-1.18,2.27,1.82-1.47-2.48,1.47-1.12-2.27-.49-1.29-2.48v2.13l-2.28-.31,2.28,1.92v2.19Z"/>
        <path class="cls-4" d="m46.82,21.2l1.12-1.21,1.95,1.7-1.26-2.33,1.12-.98-1.96-.49-1.33-2.13.21,1.95-1.95-.49,2.1,1.82v2.16h0Z"/>
        <path class="cls-4" d="m58.06,22.47l.98-1.15,1.92,1.63-1.44-2.16,1.12-1.12-1.82-.34-1.26-2.13.13,1.82-1.78-.17,1.95,1.61.17,2.01h.02Z"/>
      </g>
      <g>
        <path class="cls-8" d="m45.34,37.53l1.32-1.36,1.96,1.85-1.32-2.48,1.12-1.26-2.1-.35-1.33-2.33.21,2.13-1.95-.31,1.95,1.78.15,2.33h0Z"/>
        <path class="cls-8" d="m69.52,40.93l.98-1.36,1.95,1.7-1.47-2.33,1.15-1.13-1.78-.34-1.32-2.13.19,1.98-1.61-.21,1.75,1.67.15,2.13h0Zm-52.3-7.42l1.47-1.3,2.42,1.82-1.61-2.63,1.61-1.35-2.42-.32-1.47-2.64v2.33l-2.28-.34,2.11,1.99.17,2.45h0Z"/>
        <path class="cls-8" d="m36.85,29.47l1.12-1.15,2.3,1.64-1.47-2.45,1.12-1.33-1.96-.34-1.29-2.33v2.18l-2.1-.34,2.1,1.78.17,2.33h0Z"/>
        <path class="cls-8" d="m72.28,34.78l.98-1.2,1.79,1.64-1.29-2.13.8-1.12-1.61-.35-1.15-2.13.17,1.98-1.64-.34,1.81,1.64.15,2.01h0Z"/>
        <path class="cls-8" d="m8.64,25.65l1.61-1.29,2.45,1.95-1.47-2.79,1.67-1.32-2.66-.32-1.26-2.64-.15,2.33-2.44-.34,2.44,1.95-.21,2.48h.01Z"/>
        <path class="cls-8" d="m49.15,50.47l1.12-1.52,2.1,1.83-1.29-2.64,1.15-1.29-2.13-.17-1.29-2.65v2.5l-1.95-.37,2.1,1.82.21,2.5h0Z"/>
        <path class="cls-8" d="m73.34,53.02l.99-1.35,1.95,1.65-1.47-2.27.97-1.33-1.78-.34-1.15-2.13.17,2.13-1.65-.34,1.81,1.84.15,2.16h0Zm-52.8-5.46l1.47-1.5,2.45,1.84-1.47-2.65,1.47-1.47-2.45-.31-1.47-2.82v2.45l-2.27-.15,2.27,1.99v2.62h0Z"/>
        <path class="cls-8" d="m26.03,40.5l1.47-1.36,2.31,1.84-1.47-2.62,1.26-1.5-2.25-.34-1.18-2.59-.15,2.45-2.24-.34,2.24,1.98v2.48h0Zm14.3,1.81l1.32-1.32,2.1,1.81-1.47-2.65,1.12-1.5-2.1-.13-1.29-2.48.17,2.33-2.13-.34,2.13,1.81.15,2.47Zm13.01,1.64l1.13-1.35,2.13,1.84-1.47-2.63,1.12-1.32-1.93-.15-1.32-2.48.17,2.1-1.93-.15,1.93,1.65.17,2.47h0Zm23.4,2.96l.8-1.18,1.79,1.5-1.29-2.3.98-1.32-1.81-.15-1.27-2.33.31,2.19-1.63-.23,1.8,1.67.32,2.16h0Z"/>
        <path class="cls-8" d="m11.39,39.23l1.47-1.47,2.42,1.95-1.47-2.79,1.65-1.5-2.59-.34-1.32-2.75-.15,2.61-2.44-.28,2.44,1.89v2.68h0Z"/>
        <path class="cls-8" d="m52.97,63.84l1.12-1.47,2.13,1.62-1.29-2.63,1.12-1.61h-2.1l-1.33-2.68.21,2.48-2.13-.15,2.13,1.75.15,2.68h0Z"/>
        <path class="cls-8" d="m77.37,65.32l.81-1.36,2.1,1.5-1.44-2.48.95-1.36-1.76-.13-1.29-2.25.17,2.1h-1.64l1.79,1.64.31,2.34h0Zm-53.44-3.49l1.61-1.46,2.45,1.8-1.62-2.78,1.47-1.64-2.45-.21-1.32-2.76-.15,2.63-2.28-.15,2.28,1.99v2.58h0Zm5.67-7.54l1.32-1.47,2.45,1.76-1.64-2.79,1.47-1.44-2.28-.17-1.32-2.82v2.5l-2.24-.17,2.24,1.96v2.64h0Z"/>
        <path class="cls-8" d="m43.85,55.56l1.32-1.47,2.1,1.84-1.47-2.61,1.32-1.53-2.16-.31-1.26-2.65v2.65l-2.1-.31,2.24,1.81v2.59h0Zm13.33,1.01l.97-1.32,2.1,1.67-1.47-2.48,1.18-1.47-1.95-.15-1.33-2.48.17,2.28-1.95-.17,2.13,1.64.15,2.48h0Zm23.39,2.13l.84-1.29,1.95,1.47-1.47-2.3.78-1.32-1.61-.31-1.32-2.1.34,2.1-1.62-.15,1.76,1.63.34,2.29Z"/>
        <path class="cls-8" d="m14.79,54.5l1.47-1.61,2.42,1.76-1.44-2.8,1.62-1.61-2.45-.17-1.43-2.79-.17,2.65-2.61-.34,2.61,2.13v2.78h0Z"/>
        <path class="cls-8" d="m41.73,25.02l1.12-1.2,2.1,1.69-1.47-2.33,1.32-1.29-2.1-.31-1.12-2.48v2.3l-1.96-.32,1.96,1.62.15,2.33h0Z"/>
        <path class="cls-8" d="m66.13,28.62l.77-1.15,1.97,1.46-1.27-2.13.95-1.15-1.78-.31-1.12-2.31.15,2.13-1.81-.32,1.95,1.62.21,2.16h-.01ZM13.78,20.08l1.47-1.32,2.27,1.8-1.29-2.44,1.47-1.36-2.45-.29-1.29-2.68v2.33l-2.28-.49,2.1,1.95v2.48h0Zm19.51,48.7l1.44-1.84,2.3,1.98-1.47-2.79,1.29-1.67-2.27-.15-1.47-2.82.17,2.61h-2.42l2.42,1.85v2.82h0Z"/>
        <path class="cls-8" d="m47.88,70.2l1.18-1.67,2.24,1.82-1.47-2.8,1.16-1.46-2.13-.15-1.27-2.68.15,2.51h-2.1l2.1,1.78.15,2.65h0Zm13.33.64l1.12-1.62,1.95,1.62-1.27-2.65,1.12-1.47-2.1-.13-1.32-2.48.17,2.48-1.92-.15,1.92,1.76.32,2.65h0Zm23.11,1.35l.77-1.52,1.95,1.67-1.32-2.48.69-1.32-1.61-.15-1.32-2.3.34,2.1h-1.67l1.81,1.67.35,2.33h0Z"/>
        <path class="cls-8" d="m16.7,70.63l1.61-1.76,2.45,1.93-1.62-2.94,1.62-1.8h-2.45l-1.44-2.97-.17,2.82-2.45-.17,2.45,1.93v2.96h0Z"/>
        <path class="cls-8" d="m33.24,16.96l1.15-.98,2.24,1.79-1.29-2.48,1.15-1.15-2.1-.35-1.32-2.48v2.19l-1.96-.34,2.13,1.84v1.95h0Z"/>
        <path class="cls-8" d="m68.04,22.05l.93-.98,1.67,1.47-1.33-2.18.98-.99-1.61-.28-1.12-2.13.15,1.79-1.61-.15,1.61,1.47.34,1.98h0Z"/>
        <path class="cls-8" d="m5.88,11.23l1.47-1.12,2.24,1.98-1.27-2.68,1.42-1.15-2.25-.49-1.32-2.59-.15,2.28-2.59-.49,2.45,1.98v2.28h0Z"/>
      </g>
      <path class="cls-10" d="m143.77,138.51l.17-.49.37-.49.49-.55.61-.52.69-.55.7-.58.71-.58.73-.57.61-.61.51-.63.44-.67.19-.64.08-.66-.21-.69-.43-.72-.46-.43-.55-.37-.6-.31-.7-.26-.71-.13-.78-.15-.77-.06-.81-.02-.84.02-.8.06-.83.06-.84.17-.78.08-.72.21-.72.13-.64.21,5.87,10.16v-.43l.02-.02Z"/>
      <g>
        <path class="cls-2" d="m151.2,127.26l.17,3.74,1.43-3.74h-1.61,0Zm6.5-1.03l-.55,1.23-.55,1.2-.55,1.23-.55,1.24-.55,1.23-.58,1.24-.52,1.2-.58,1.24.8-.61.75-.55.76-.52.74-.58.7-.61.69-.67.67-.72.63-.83.37-.61.37-.66.29-.72.25-.78.23-.77.26-.75.22-.75.24-.73-.41.13-.92.23-.43.15-.49.11-.46.11-.46.15-.4.13h0Zm8.29-1.07l-.31,1.01-.37,1-.35,1.01-.34,1.06-.35,1.01-.28,1-.26,1.07.55-1.07.61-1.03.58-1.07.61-1.03.55-1.06.57-1.09.49-1.09.46-1.06-.22.02-.23.08-.46.04-.17.08h-.23l-.23.02h-.26l-.31,1.06v.03Zm-5.01-81.79l.52.84.55.75.69.66.72.64.75.57.84.52.87.54.89.43-.98-9.38-.58-.4-.52-.43-.52-.43-.51-.46-.49-.49-.49-.49-.49-.52-.46-.52-.46-.58-.43-.58-.43-.55-.38-.64-.37-.6-.37-.7-.34-.67-.28-.69,2.29,13.16h0Z"/>
        <path class="cls-2" d="m118.96,67.87l-.52-.37-.49-.4-.49-.43-.41-.43-.43-.46-.31-.4-.31-.43-.26-.37-.25-.29-.35-.22-.4-.21-.46-.13-.49-.02-.55-.02-.6.02-.64.08-.72.06-.75.13-.81.11-.86.15-.86.17-.9.13-.97.08-.98.11.49,1.04.52.94.58.99.64.94.69.9.7.86.83.83.95.75.72-.17.67-.17.66-.15.61-.15.58-.15.55-.13.49-.15.46-.11,1.69-.26,1.24.17.89.49.61.73.41.88.34.96.26.86.37.78.04-.92-.08-.95-.17-.95-.29-.98-.37-.92-.37-.95-.43-.92-.43-.95v.03Z"/>
        <path class="cls-2" d="m113.65,83.56l-.17,2.74.02,2.73.41,2.79.31-.17.28-.11.32-.15.34-.17.28-.15.29-.17.31-.11.28-.15.55-.26.55-.22.6-.17.64-.11.7-.13.66-.11.72-.02h1.42l.71.02.72.08.7.08.63.17.61.15.55.17.52.19-.7-1.15-.72-1.18-.64-1.15-.66-1.18-.64-1.16-.6-1.2-.55-1.23-.58-1.27-.31-.31-.43-.26-.4-.23-.41-.15-.49-.11-.49-.08h-1.05l-.51.04-.52.02-.51.11-.49.13-.55.15-.51.15-.49.17-.46.17-.26,2.79h0Z"/>
        <path class="cls-2" d="m84.17,16.95l-.15-.49-.25.04-.25.49-.32.86-.25,1.06-.23,1.16-.15,1.12v.97l3.08-.86-.37-.86-.26-.61-.19-.49-.15-.37-.11-.37-.11-.41-.11-.52-.15-.75h-.02Zm-59.77,122.11h.6l.64.02.61.02.63.08.64.04.66.06.64.04.63.08.61.02.63.02.63.06h.61l.63-.06.61-.02.57-.13.61-.11,1.43-.4,1.44-.46,1.44-.49,1.42-.55,1.44-.58,2.81-1.21,1.42-.58,1.43-.67,1.42-.57,1.44-.61,1.42-.58,1.47-.52,1.47-.49,1.5-.46,1.52-.4v-2.13l-.04-2.56-.06-2.84-.19-2.97-.73.08-.77.17-.84.17-.87.21-.92.17-.97.23-1.04.26-1.06.31-1.12.29-1.18.34-1.23.37-1.23.4-1.36.46-1.36.49-1.44.52-1.44.58-.98.31-.98.34-.95.25-.95.26-.92.23-.95.21-.92.15-.98.15-1.03.11-1.06.08-1.09.06-1.18.08-1.23.02-1.3.06h-2.87l.31,1.44.29,1.44.31,1.43.28,1.39.31,1.41.26,1.44.26,1.44.26,1.47v.05Z"/>
        <path class="cls-2" d="m86.71,101.17l.81.86.69.93.69.86.64.92.49.95.46.98.29,1,.19,1.1.06.4.04.55-.04.52-.06.52,4.86,1.95-.15-.64-.15-.69-.13-.66-.06-.64.08-1.03.15-1.01.25-1.03.34-1.07.35-1.03.31-1.03.34-1.01.26-1.01-10.74-.69h0Zm-21.72-8.52v-1.64l-.08-1.64-.23-1.67-.37-1.62-.15-.6-.15-.49-.21-.43-.15-.46-3.57-.35.21.99.17.97.21.96.17.88.19.84.15.81.11.75.06.72v1.98h3.64Zm5.32,18.25l-.11-.25-.15-.31-.15-.32-.23-.26-.49-1.06-.52-1.03-.58-1.07-.52-1.06-.52-1.09-.49-1.09-.46-1.12-.35-1.18-4.86.34.46.86.58.84.58.81.61.86.55.83.49.84.37.87.26.86.21.64.11.75.02.81v.77l5.19-.21h0Zm-5.67,20.03l.98.04.98.13.98.11.97.13.98.08.98.11.95.11.97.06,1.04.13.98.08.95.06,1.03.04,1.01.04.98.02h1l-.41-1.47-.55-1.47-.58-1.41-.61-1.47-.58-1.47-.51-1.5-.43-1.46-.26-1.53-9.76-.19-.11.49-.15.58-.22.52-.26.55-.22.55-.26.55-.23.55-.15.51-.41,1.53-.08,1.61.02,1.67-.02,1.61.97.13h0Z"/>
        <path class="cls-2" d="m77.17,84.84l.49,1.23.46,1.2.46,1.21.87,2.3.49,1.18.49,1.12.52,1.12.86.15.89.11.92.11.87.08.88.06.9.08.92.02.9.06.86.02h.89l.86.02h.9l.86.06h.86l.86.02.87.02-.78-.66-.86-.69-.9-.61-.95-.55-.97-.58-.98-.52-1.01-.58-.97-.52-.98-.55-1.84-1.21-.86-.63-.78-.73-.74-.75-.64-.8-.55-.89h-4.06v.04Zm10.76,34.88l-.31.63-.29.61-.31.69-.26.64-.26.63-.22.64-.15.64-.13.66-.24,1.64-.08,1.73v1.75l-.02,1.73.7-.02.66-.08.67-.02.69-.08.63-.02h.7l.66-.02h.69l.26-1.2.28-1.32.32-1.29.37-1.36.43-1.36.46-1.24.52-1.2.6-1.06-6.33-1.64v-.03Zm-3.08-88.96l.28,1.29.21,1.23.08,1.18.17,1.18.17,1.15.25,1.18.46,1.15.6,1.18.64-.11.61-.11.58-.08.58-.06.58-.08.57-.02h.52l.55-.06.58.06h.58l.57.02.61.08.6.06.64.08.69.11.72.11-.55-.6-.49-.58-.49-.61-.49-.55-.43-.58-.46-.61-.46-.55-.43-.6-.43-.58-.43-.55-.43-.61-.37-.6-.4-.57-.37-.58-.37-.66-.37-.58-4.83-.17h0Z"/>
        <path class="cls-2" d="m108.77,56.41l-.52-.69-.52-.73-.52-.69-.49-.72-.49-.76-.49-.69-.46-.66-.46-.64-.37-.6-.32-.55-.31-.43-.24-.37-.17-.26-.46-.11-.43-.06-.49-.02-.49-.02-1.03.04-1.01.13-.51.08-.52.13-.55.04-1.04.23-.49.08-.49.04-.46.08.46.58,1.21,1.67.7,1.04.68,1.04.64,1.06.58.89.43.78.6-.15.64-.15.66-.13.64-.15.64-.17.64-.11.69-.02.63-.02.64.02.64.08.64.17.63.25.67.37.6.49.25.27-.54-.7h0Zm1.47,1.75l-.61-.72-.32-.34.44.54.49.52Z"/>
        <path class="cls-2" d="m129.99,120.26l.19,1.36.24,1.39.46,2.76.22,1.41.26,1.41.26,1.39.28,1.44,1.04-.49,1.01-.49,1-.49,1-.49,1.04-.4,1.04-.37,1.05-.35,1.05-.25,1.08-.21,1.09-.06h1.12l1.16.11,1.18.26,1.2.37,1.18.55,1.29.69-.58-.74-.55-.75-.57-.73-.52-.72-.52-.66-.55-.7-.52-.66-.49-.69-.52-.67-.49-.69-.49-.67-.46-.72-.49-.72-.43-.74-.49-.76-.46-.78-.23-.55-.35-.37-.49-.17-.55-.11-.69.02-.7.15-.83.21-.84.25-.86.31-.89.37-.89.32-.92.37-.86.31-.81.28-.78.26-.68.17h.01Zm-9.44-18.1l.49.51.49.49.49.52.46.49.49.52.43.49.46.55.46.49.43.52.43.52.37.58.37.52.37.58.35.57.28.6.28.61.55-.29.61-.25.57-.23.69-.23.64-.15.7-.15.66-.13.69-.08h1.23l.58.02.55.13.49.15.4.17.35.26.26.25-.61-1.12-.57-1.18-.55-1.15-.52-1.18-.55-1.18-.52-1.21-.55-1.18-.55-1.18-.43-.58-.49-.41-.58-.32-.64-.19-.63-.11h-.72l-.75.02-.75.15-.81.22-.77.23-.84.34-.78.32-.81.37-.78.43-.75.4-.72.46h0Zm-23.05-70.37l.31,1.04.32,1.06.34,1.03.41,1.07.43,1.03.49.97.52,1.04.61.92.25.31.25.29.32.26.31.25.32.23.31.23.31.22.28.17,9.13,2.64-.15-.43-.17-.4-.22-.38-.26-.25-.37-.61-.46-.51-.49-.55-.52-.43-.58-.46-.61-.37-.6-.4-.64-.37-.6-.37-.64-.34-.64-.37-.6-.37-.61-.43-.55-.4-.57-.4-.49-.49-.4-.37-.86-.86-.37-.46-.43-.49-.4-.46-.37-.49-.37-.49-1.96-.81h0Zm.95-16.95l.43,1.55.46,1.59.41,1.55.46,1.59.41,1.58.46,1.59.49,1.59.46.15.49.11.43.06.49.06.49.02.49.02h3.05l.52.06.49.02.52.02.55.08-.38-1.41-.34-1.44-.32-1.46-.25-1.56-.26-1.5-.26-1.47-.28-1.47-.35-1.38-.57-.08-.61-.11-.55-.04-.57-.08-.55-.06-1.15-.17-.55-.08-.58-.08-.55-.08-.58-.11-.55-.04-.58-.13-.58-.11-.58-.13-.58-.11.46,1.5v-.03Z"/>
        <path class="cls-2" d="m110.9,35.41l-3.74-.63.75.49.77.49.81.4.87.46.83.4.86.37.87.41.86.4.86.41.87.4.86.46.78.49.83.49.75.52.75.58.67.63.43.4.37.46.37.49.34.5.28.49.29.51.28.52.26.55h.43l.49-.06h.46l.46-.02.49-.08.43-.02.49-.08.46-.06.46-.08.43-.04.49-.13.46-.08.41-.13.46-.11.46-.11.4-.13-.72-.49-.72-.49-.73-.49-.75-.43-.75-.49-.75-.46-.75-.49-.74-.43-.78-.46-.75-.49-.78-.46-.75-.49-.75-.43-.73-.49-.68-.49-.73-.49-7.33-1.96h0Zm26.56,17.67l-.75.13-1.5.17-.75.02-.77.08-.75.02-.76.02-.74.02h-1.5l-.75.04h-3.02l.4.49.37.49.41.49.4.49.46.43.4.49.46.46.46.46.43.46.46.46.46.46.4.49.46.43.4.49.41.49.43.49,8.43-.28-.29-1.07-.37-1.01-.34-1-.4-1-.87-1.96-.46-.95-.49-.92-.75.08v.03Zm-1.55,17.35l-.06,1.73-.15,1.82-.11,1.75.02,1.79.4-.08.37-.02.43-.08.43-.02.43-.06.41-.02.46-.02.43-.06.43-.02.43-.02.46-.02.46-.04.44-.04h.49l.46-.02.46-.06-.29-.62-.19-.61-.26-.55-.23-.55-.13-.52-.04-.52.08-.58.13-.55.15-.6.19-.61.24-.6.17-.61-6.5.49-.02-.06Zm10.81-.28l-.02.66.02.7.08.72.15.55.17.61.21.57.25.55.23.61.25.51.26.55.25.52.37.04.37.06.34.02h.43l.37.02h1.18l-.25-1.36-.24-1.26-.19-1.26-.29-1.24-.08-.71-.13-.64-.17-.66-.11-.64-.4.08-.46.02-.4.06-.41.02-.46.02-.41.04-.46.04-.41.02-.08.72v.05Zm9.12,16.8l-1.23-.04-1.2-.06h-1.23l-1.18-.02h-1.21l-1.23.02h-1.2l-1.21.06-1.18.02h-1.26l-1.18.02-1.21.06h-1.15l-1.21.02h-1.2l.37,1.15.37,1.21.41,1.2.43,1.21.37,1.18.46,1.2.41,1.2.4,1.15,1.09.11,1.12.13,1.12.08,1.18.04,1.13.06,1.15.04,1.18.06,1.2.02,1.15.02h2.36l1.18.02h4.69l-.34-1.15-.26-1.15-.22-1.18-.24-1.15-.17-1.12-.46-2.22-.25-1.06-.15-.26-.11-.32-.11-.28-.11-.26-1.22-.08-.02.04Zm-11.08,20.21l.37.55.43.55.37.52.4.58.41.52.37.52.43.55.4.55.84,1.05.4.52.43.52.41.55.4.52.43.51.55.04.57.04.55-.04.61-.04.58-.02.61-.08.52-.11.58-.11-.11-2.1-.17-4.2-.04-2.1-.71.08-.67.02-.69.02-.69.04-.7.02-.63.02h-1.36l-.7.06h-.63l-.67-.06h-1.32l-.66-.02h-.66l-.67-.02.41.55h0Zm16.25.32l.26,2.04v2.1l-.17,2.19.61-.11.61-.15.58-.11.67-.17.6-.17.58-.21.66-.23.58-.31-.37-.92-.37-.93-.41-.92-.37-.94-.4-.93-.43-.92-.75-1.84-.29.08-.31.06-.28.04-.32.06-.28.06-.29.04-.31.06-.29.06.54,2.04h0ZM116.16,19.04l.72,1.26.71,1.29.67,1.32.72,1.27.66,1.26.67,1.29.67,1.24.63-.08.7-.02.64-.08.66-.06.69-.08.66-.08.72-.11.7-.06.67-.11.72-.11.66-.11.69-.13.66-.15.67-.11.66-.15.64-.15.72-.19.75-.17.73-.21.74-.15.73-.13.75-.15.75-.08.72-.13.75-.08.75-.04.71-.02.76-.02h2.27l.78.02-.41-.72-.37-.72-.37-.67-.75-1.44-.37-.66-.4-.73-.37-.69-.37-.66-.43-.72-.37-.67-.41-.72-.37-.72-.4-.67-.37-.72-.43-.72-.72-.02h-1.44l-.75.02-.72.08-.72.04-.72.11-.72.13-.69.15-.73.21-.69.17-.67.21-.69.17-.66.23-.64.26-.66.22-.64.23-.66.21-.64.21-.69.21-.67.17-.69.17-.72.15-.67.15-.68.13-.7.08-.69.11-.67.06-.69.06-.64.02h-1.32l.73,1.23h0Z"/>
        <path class="cls-2" d="m144.41,34.56l-1.15-.11-1.2-.06h-1.18l-1.27.06-1.23.08-1.23.15-1.24.21-1.23.22-1.24.26-1.23.28-1.2.31-1.18.32-1.18.34-1.12.34-1.12.37.34.43.37.43.32.43.37.43.4.4.4.43.37.37.41.41.43.37.4.34.46.31.4.35.46.32.43.25.46.26.46.23.54.15h.61l.73-.11.72-.13.69-.11h.66l.58.15.49.35,1.03-.13,1.01-.02h1l1.07.02,1,.13,1.04.11,1.03.21,1.01.17.97.26,1.01.25.95.31.97.35.9.37.89.4.89.41.84.46.08-1,.02-1-.04-1.09-.21-1.18-.13-.37-.26-.23-.31-.06-.4.02-.49.13-.55.22-.58.24-.6.28-.61.25-.63.26-.61.23-.52.15-.52.08-.46-.02-.37-.21-.28-.29-.46-.92-.32-.95-.15-1.04v-1.09l.04-1.06.08-1.09.13-1.12.17-1.09-1.15-.21.02-.02Zm-2.36,18.6l.49.51.49.49.58.49.55.46.58.46.61.43.55.49.6.49.52.49.55.52.49.55.43.6.37.64.34.66.25.75.58.08.61.02.61.06.55.06.61.02.6.06.58.02.58.08.6.02.61.08.6.06.58.08.58.11.6.11.58.11.61.15-.75-1.07-.81-1.03-.86-1.06-.86-1-.75-1.01-.67-.98-.55-.95-.29-.92-.6-.22-.55-.24-.58-.22-.58-.17-.52-.17-.52-.17-.49-.11-.52-.15-.49-.08-.49-.13-.49-.06-.49-.08-.49-.08-.97-.04-.52-.04-.43-.02h-.43l-.43.02-.41.04-.46.06-.41.06-.46.06-.41.08.41.52h0Zm11.16,16.17l.35.55.31.55.34.55.37.52.35.55.37.55.37.52.37.52.37.52.37.58.4.52.43.55.4.52.4.52.43.52.52.08.49.02.52.08.49.06.52.08.49.08.49.04.55.08.49.06.49.13.52.08.49.08.52.11.49.06.52.11.55.08-.49-.99-.46-1-.49-1.05-.46-1-.43-1.01-.49-1.01-.46-1.03-.49-.98-1.27-.42-.63-.17-.67-.17-.66-.15-.64-.15-.69-.11-.64-.11-.63-.13-.69-.04-.64-.08-.66-.08-.64-.06-.66-.04-.64-.04-.64-.02.34.55v.02Zm13.33,19.02l.55,1,.49,1.04.4,1.05.31,1.1.32,1.12.26,1.2.22,1.18.52-.02.51-.02.49-.06.52-.04h.49l.54-.02.49-.02h.52l.49-.06h.49l.52-.02h.49l.52-.02h1.56l-.7-1.04-.63-.97-.61-.92-.61-.95-.63-.92-.61-.95-.62-.98-.67-1.01h-.37l-.43-.02h-.37l-.4-.06-.37-.02-.43-.02-.37-.08-.41-.02-.37-.08-.4-.02-.37-.08-.43-.02-.37-.02-.4-.08-.37-.04-.43-.04.69,1.04v-.07Zm8.84,35.31l-.46,1.7-.52,1.7-.58,1.67-.58,1.73-.58,1.7-.58,1.69-.58,1.65.43-.06.37-.13.4-.08.37-.11.43-.06.4-.11.37-.08.4-.11.43-.06.41-.08.4-.11.43-.08.81-.17.43-.11.4-.08,1.07-1.52.97-1.71.92-1.72.84-1.78.67-1.82.54-1.75.29-1.7.08-1.62-.49.06-.49.08-.49.08-.49.06-.49.13-.46.08-.49.11-.49.06-.49.13-.43.11-.49.11-.49.13-.46.11-.46.15-.92.23-.4,1.64v-.05Z"/>
        <path class="cls-2" d="m187.27,98.2l.43.55.37.58.4.55.37.57.41.55.37.57.43.55.4.58.37.52.41.58.43.55.4.57.43.58.41.55.46.61.41.57.4.43.43.43.4.37.41.32.37.31.46.26.46.26.43.22-.4-.63-.46-.64-.4-.66-.41-.64-.43-.63-.43-.64-.43-.6-.4-.64-.46-.64-.4-.61-.46-.64-.4-.6-.41-.64-.43-.6-.43-.67-.43-.58-.4-.21-.44-.17-.4-.21-.37-.17-.37-.21-.37-.22-.34-.24-.37-.19v.02Zm-24.32-44.47l.35,1.39.37,1.44.31,1.41.37,1.39.31,1.44.35,1.43.28,1.41.49.23.46.21.43.17.43.21.4.15.46.17.43.17.49.17-.17-.97-.22-1.01-.21-1.01-.21-1.03-.22-1.01-.21-1.01-.23-1-.17-.97-.63-.35-.7-.37-.6-.46-.61-.49-.57-.58-.58-.72-.52-.83-.49-.98.37,1.44h.01Zm4.35,15.31l.37.86.43.9.46.86.49.92.55.9.52.83.57.8.52.84.49.81.49.64.52.6.61.43.66.34.8.23.93.06-.64-.87-.54-.89-.58-.9-.49-.94-.49-.92-.46-.98-.43-1.04-.43-1-.58-.23-.66-.26-.58-.34-.66-.37-.61-.43-.54-.52-.58-.55-.49-.6.34.83h0Zm13.44,19.91l3.76,3.14-4.89-6.93-2.45-.98,3.57,4.77Zm17.95,27.66l.41.52.75,1.15.43.52.75,1.09.37.52.75,1.09.37.55.41.55.37.55.37.58.43.52.37.58.43.4.46.41.49.43.49.37.51.37.49.37.52.37.49.37-.4-.6-.41-.64-.43-.61-.4-.61-.41-.6-.38-.64-.37-.61-.37-.6-.4-.61-.37-.63-.75-1.21-.75-1.26-.32-.64-.4-.64-.46-.11-.49-.15-.49-.17-.49-.17-.49-.26-.49-.32-.5-.37-.49-.43.37.55h0Z"/>
      </g>
    </g>
  </g>
</svg>